G04 #@! TF.GenerationSoftware,KiCad,Pcbnew,8.0.6*
G04 #@! TF.CreationDate,2025-06-25T21:28:08+01:00*
G04 #@! TF.ProjectId,led-matrix,6c65642d-6d61-4747-9269-782e6b696361,rev?*
G04 #@! TF.SameCoordinates,Original*
G04 #@! TF.FileFunction,Copper,L1,Top*
G04 #@! TF.FilePolarity,Positive*
%FSLAX46Y46*%
G04 Gerber Fmt 4.6, Leading zero omitted, Abs format (unit mm)*
G04 Created by KiCad (PCBNEW 8.0.6) date 2025-06-25 21:28:08*
%MOMM*%
%LPD*%
G01*
G04 APERTURE LIST*
G04 Aperture macros list*
%AMHorizOval*
0 Thick line with rounded ends*
0 $1 width*
0 $2 $3 position (X,Y) of the first rounded end (center of the circle)*
0 $4 $5 position (X,Y) of the second rounded end (center of the circle)*
0 Add line between two ends*
20,1,$1,$2,$3,$4,$5,0*
0 Add two circle primitives to create the rounded ends*
1,1,$1,$2,$3*
1,1,$1,$4,$5*%
G04 Aperture macros list end*
G04 #@! TA.AperFunction,ComponentPad*
%ADD10O,1.000000X2.000000*%
G04 #@! TD*
G04 #@! TA.AperFunction,ComponentPad*
%ADD11HorizOval,1.000000X0.353553X0.353553X-0.353553X-0.353553X0*%
G04 #@! TD*
G04 #@! TA.AperFunction,ComponentPad*
%ADD12HorizOval,1.000000X-0.353553X0.353553X0.353553X-0.353553X0*%
G04 #@! TD*
G04 #@! TA.AperFunction,ViaPad*
%ADD13C,0.600000*%
G04 #@! TD*
G04 #@! TA.AperFunction,Conductor*
%ADD14C,0.200000*%
G04 #@! TD*
G04 APERTURE END LIST*
D10*
X90310000Y-58500000D03*
X89040000Y-58500000D03*
X87770000Y-58500000D03*
X86500000Y-58500000D03*
D11*
X99752038Y-69847038D03*
X98854013Y-68949013D03*
X97955987Y-68050987D03*
X97057962Y-67152962D03*
D10*
X120310000Y-58500000D03*
X119040000Y-58500000D03*
X117770000Y-58500000D03*
X116500000Y-58500000D03*
X120310000Y-68500000D03*
X119040000Y-68500000D03*
X117770000Y-68500000D03*
X116500000Y-68500000D03*
D12*
X109752038Y-67152962D03*
X108854013Y-68050987D03*
X107955987Y-68949013D03*
X107057962Y-69847038D03*
D10*
X80310000Y-58500000D03*
X79040000Y-58500000D03*
X77770000Y-58500000D03*
X76500000Y-58500000D03*
X130310000Y-58500000D03*
X129040000Y-58500000D03*
X127770000Y-58500000D03*
X126500000Y-58500000D03*
X130310000Y-68500000D03*
X129040000Y-68500000D03*
X127770000Y-68500000D03*
X126500000Y-68500000D03*
X80310000Y-68500000D03*
X79040000Y-68500000D03*
X77770000Y-68500000D03*
X76500000Y-68500000D03*
X90310000Y-68500000D03*
X89040000Y-68500000D03*
X87770000Y-68500000D03*
X86500000Y-68500000D03*
D12*
X99752038Y-57152962D03*
X98854013Y-58050987D03*
X97955987Y-58949013D03*
X97057962Y-59847038D03*
D11*
X109752038Y-59847038D03*
X108854013Y-58949013D03*
X107955987Y-58050987D03*
X107057962Y-57152962D03*
D13*
X101950000Y-67850000D03*
X104950000Y-67800000D03*
D14*
X76500000Y-66200000D02*
X76500000Y-68500000D01*
X130310000Y-58500000D02*
X130310000Y-60840000D01*
X79200000Y-63500000D02*
X76500000Y-66200000D01*
X127650000Y-63500000D02*
X79200000Y-63500000D01*
X130310000Y-60840000D02*
X127650000Y-63500000D01*
G04 #@! TA.AperFunction,Conductor*
G36*
X131942539Y-55020185D02*
G01*
X131988294Y-55072989D01*
X131999500Y-55124500D01*
X131999500Y-71875500D01*
X131979815Y-71942539D01*
X131927011Y-71988294D01*
X131875500Y-71999500D01*
X75124500Y-71999500D01*
X75057461Y-71979815D01*
X75011706Y-71927011D01*
X75000500Y-71875500D01*
X75000500Y-69098543D01*
X75499499Y-69098543D01*
X75537947Y-69291829D01*
X75537950Y-69291839D01*
X75613364Y-69473907D01*
X75613371Y-69473920D01*
X75722860Y-69637781D01*
X75722863Y-69637785D01*
X75862214Y-69777136D01*
X75862218Y-69777139D01*
X76026079Y-69886628D01*
X76026092Y-69886635D01*
X76207001Y-69961569D01*
X76208165Y-69962051D01*
X76208169Y-69962051D01*
X76208170Y-69962052D01*
X76401456Y-70000500D01*
X76401459Y-70000500D01*
X76598543Y-70000500D01*
X76752567Y-69969862D01*
X76791835Y-69962051D01*
X76973914Y-69886632D01*
X76973919Y-69886628D01*
X76973922Y-69886627D01*
X76998040Y-69870511D01*
X77066559Y-69824728D01*
X77133234Y-69803850D01*
X77200614Y-69822334D01*
X77204341Y-69824728D01*
X77296321Y-69886188D01*
X77296328Y-69886192D01*
X77478308Y-69961569D01*
X77520000Y-69969862D01*
X77520000Y-68846409D01*
X77605956Y-68896037D01*
X77714048Y-68925000D01*
X77825952Y-68925000D01*
X77934044Y-68896037D01*
X78020000Y-68846409D01*
X78020000Y-69969862D01*
X78061690Y-69961569D01*
X78061692Y-69961569D01*
X78243673Y-69886191D01*
X78243676Y-69886189D01*
X78335657Y-69824729D01*
X78402334Y-69803850D01*
X78469715Y-69822334D01*
X78473440Y-69824728D01*
X78566079Y-69886628D01*
X78566092Y-69886635D01*
X78747001Y-69961569D01*
X78748165Y-69962051D01*
X78748169Y-69962051D01*
X78748170Y-69962052D01*
X78941456Y-70000500D01*
X78941459Y-70000500D01*
X79138543Y-70000500D01*
X79292567Y-69969862D01*
X79331835Y-69962051D01*
X79513914Y-69886632D01*
X79606109Y-69825029D01*
X79672786Y-69804151D01*
X79740166Y-69822635D01*
X79743891Y-69825029D01*
X79835423Y-69886189D01*
X79836086Y-69886632D01*
X79836088Y-69886633D01*
X79836092Y-69886635D01*
X80017001Y-69961569D01*
X80018165Y-69962051D01*
X80018169Y-69962051D01*
X80018170Y-69962052D01*
X80211456Y-70000500D01*
X80211459Y-70000500D01*
X80408543Y-70000500D01*
X80562567Y-69969862D01*
X80601835Y-69962051D01*
X80783914Y-69886632D01*
X80784579Y-69886188D01*
X80876558Y-69824729D01*
X80947782Y-69777139D01*
X81087139Y-69637782D01*
X81196632Y-69473914D01*
X81272051Y-69291835D01*
X81288335Y-69209969D01*
X81310500Y-69098543D01*
X85499499Y-69098543D01*
X85537947Y-69291829D01*
X85537950Y-69291839D01*
X85613364Y-69473907D01*
X85613371Y-69473920D01*
X85722860Y-69637781D01*
X85722863Y-69637785D01*
X85862214Y-69777136D01*
X85862218Y-69777139D01*
X86026079Y-69886628D01*
X86026092Y-69886635D01*
X86207001Y-69961569D01*
X86208165Y-69962051D01*
X86208169Y-69962051D01*
X86208170Y-69962052D01*
X86401456Y-70000500D01*
X86401459Y-70000500D01*
X86598543Y-70000500D01*
X86752567Y-69969862D01*
X86791835Y-69962051D01*
X86973914Y-69886632D01*
X86973919Y-69886628D01*
X86973922Y-69886627D01*
X86998040Y-69870511D01*
X87066559Y-69824728D01*
X87133234Y-69803850D01*
X87200614Y-69822334D01*
X87204341Y-69824728D01*
X87296321Y-69886188D01*
X87296328Y-69886192D01*
X87478308Y-69961569D01*
X87520000Y-69969862D01*
X87520000Y-68846409D01*
X87605956Y-68896037D01*
X87714048Y-68925000D01*
X87825952Y-68925000D01*
X87934044Y-68896037D01*
X88020000Y-68846409D01*
X88020000Y-69969862D01*
X88061690Y-69961569D01*
X88061692Y-69961569D01*
X88243673Y-69886191D01*
X88243676Y-69886189D01*
X88335657Y-69824729D01*
X88402334Y-69803850D01*
X88469715Y-69822334D01*
X88473440Y-69824728D01*
X88566079Y-69886628D01*
X88566092Y-69886635D01*
X88747001Y-69961569D01*
X88748165Y-69962051D01*
X88748169Y-69962051D01*
X88748170Y-69962052D01*
X88941456Y-70000500D01*
X88941459Y-70000500D01*
X89138543Y-70000500D01*
X89292567Y-69969862D01*
X89331835Y-69962051D01*
X89513914Y-69886632D01*
X89606109Y-69825029D01*
X89672786Y-69804151D01*
X89740166Y-69822635D01*
X89743891Y-69825029D01*
X89835423Y-69886189D01*
X89836086Y-69886632D01*
X89836088Y-69886633D01*
X89836092Y-69886635D01*
X90017001Y-69961569D01*
X90018165Y-69962051D01*
X90018169Y-69962051D01*
X90018170Y-69962052D01*
X90211456Y-70000500D01*
X90211459Y-70000500D01*
X90408543Y-70000500D01*
X90562567Y-69969862D01*
X90601835Y-69962051D01*
X90783914Y-69886632D01*
X90784579Y-69886188D01*
X90876558Y-69824729D01*
X90947782Y-69777139D01*
X91087139Y-69637782D01*
X91196632Y-69473914D01*
X91272051Y-69291835D01*
X91288335Y-69209969D01*
X91310500Y-69098543D01*
X91310500Y-67901456D01*
X91272052Y-67708170D01*
X91272051Y-67708169D01*
X91272051Y-67708165D01*
X91241285Y-67633889D01*
X91196635Y-67526092D01*
X91196628Y-67526079D01*
X91117710Y-67407970D01*
X95703909Y-67407970D01*
X95703909Y-67605059D01*
X95742356Y-67798343D01*
X95742358Y-67798351D01*
X95817776Y-67980425D01*
X95817781Y-67980435D01*
X95927269Y-68144295D01*
X95927272Y-68144299D01*
X96066624Y-68283651D01*
X96066628Y-68283654D01*
X96230488Y-68393142D01*
X96230492Y-68393144D01*
X96230495Y-68393146D01*
X96412573Y-68468566D01*
X96521856Y-68490303D01*
X96583765Y-68522687D01*
X96618339Y-68583403D01*
X96619280Y-68587728D01*
X96640861Y-68696223D01*
X96640864Y-68696233D01*
X96716242Y-68878213D01*
X96716243Y-68878215D01*
X96739859Y-68913559D01*
X97534261Y-68119158D01*
X97559950Y-68215031D01*
X97615903Y-68311943D01*
X97695031Y-68391071D01*
X97791943Y-68447024D01*
X97887814Y-68472712D01*
X97093413Y-69267112D01*
X97128762Y-69290732D01*
X97310741Y-69366109D01*
X97310745Y-69366110D01*
X97419243Y-69387691D01*
X97481154Y-69420076D01*
X97515729Y-69480791D01*
X97516670Y-69485117D01*
X97538407Y-69594396D01*
X97538409Y-69594402D01*
X97613827Y-69776476D01*
X97613832Y-69776486D01*
X97723320Y-69940346D01*
X97723323Y-69940350D01*
X97862675Y-70079702D01*
X97862679Y-70079705D01*
X98026539Y-70189193D01*
X98026543Y-70189195D01*
X98026546Y-70189197D01*
X98208624Y-70264617D01*
X98306340Y-70284054D01*
X98317375Y-70286249D01*
X98379286Y-70318633D01*
X98413860Y-70379349D01*
X98414801Y-70383674D01*
X98436432Y-70492421D01*
X98436434Y-70492427D01*
X98511852Y-70674501D01*
X98511857Y-70674511D01*
X98621345Y-70838371D01*
X98621348Y-70838375D01*
X98760700Y-70977727D01*
X98760704Y-70977730D01*
X98924564Y-71087218D01*
X98924568Y-71087220D01*
X98924571Y-71087222D01*
X99106649Y-71162642D01*
X99299940Y-71201090D01*
X99299943Y-71201091D01*
X99299945Y-71201091D01*
X99497027Y-71201091D01*
X99497028Y-71201090D01*
X99690321Y-71162642D01*
X99872399Y-71087222D01*
X100036266Y-70977730D01*
X100882730Y-70131266D01*
X100992222Y-69967399D01*
X101067642Y-69785321D01*
X101106091Y-69592025D01*
X101106091Y-69394945D01*
X101106091Y-69394942D01*
X101106090Y-69394940D01*
X105703909Y-69394940D01*
X105703909Y-69592029D01*
X105742356Y-69785313D01*
X105742358Y-69785321D01*
X105817776Y-69967395D01*
X105817781Y-69967405D01*
X105927269Y-70131265D01*
X105927272Y-70131269D01*
X106773730Y-70977727D01*
X106773734Y-70977730D01*
X106937594Y-71087218D01*
X106937598Y-71087220D01*
X106937601Y-71087222D01*
X107119679Y-71162642D01*
X107312970Y-71201090D01*
X107312973Y-71201091D01*
X107312975Y-71201091D01*
X107510057Y-71201091D01*
X107510058Y-71201090D01*
X107703351Y-71162642D01*
X107885429Y-71087222D01*
X108049296Y-70977730D01*
X108188654Y-70838372D01*
X108298146Y-70674505D01*
X108373566Y-70492427D01*
X108395304Y-70383140D01*
X108427687Y-70321234D01*
X108488402Y-70286659D01*
X108492730Y-70285717D01*
X108601229Y-70264136D01*
X108601232Y-70264135D01*
X108783216Y-70188756D01*
X108783220Y-70188753D01*
X108818559Y-70165139D01*
X108818560Y-70165138D01*
X108024159Y-69370738D01*
X108120031Y-69345050D01*
X108216943Y-69289097D01*
X108296071Y-69209969D01*
X108352024Y-69113057D01*
X108377712Y-69017185D01*
X109172112Y-69811586D01*
X109172113Y-69811585D01*
X109195727Y-69776246D01*
X109195730Y-69776242D01*
X109271109Y-69594258D01*
X109271112Y-69594246D01*
X109292693Y-69485754D01*
X109325077Y-69423843D01*
X109385793Y-69389269D01*
X109390036Y-69388345D01*
X109499402Y-69366591D01*
X109681480Y-69291171D01*
X109845347Y-69181679D01*
X109928483Y-69098543D01*
X115499499Y-69098543D01*
X115537947Y-69291829D01*
X115537950Y-69291839D01*
X115613364Y-69473907D01*
X115613371Y-69473920D01*
X115722860Y-69637781D01*
X115722863Y-69637785D01*
X115862214Y-69777136D01*
X115862218Y-69777139D01*
X116026079Y-69886628D01*
X116026092Y-69886635D01*
X116207001Y-69961569D01*
X116208165Y-69962051D01*
X116208169Y-69962051D01*
X116208170Y-69962052D01*
X116401456Y-70000500D01*
X116401459Y-70000500D01*
X116598543Y-70000500D01*
X116752567Y-69969862D01*
X116791835Y-69962051D01*
X116973914Y-69886632D01*
X116973919Y-69886628D01*
X116973922Y-69886627D01*
X116998040Y-69870511D01*
X117066559Y-69824728D01*
X117133234Y-69803850D01*
X117200614Y-69822334D01*
X117204341Y-69824728D01*
X117296321Y-69886188D01*
X117296328Y-69886192D01*
X117478308Y-69961569D01*
X117520000Y-69969862D01*
X117520000Y-68846409D01*
X117605956Y-68896037D01*
X117714048Y-68925000D01*
X117825952Y-68925000D01*
X117934044Y-68896037D01*
X118020000Y-68846409D01*
X118020000Y-69969862D01*
X118061690Y-69961569D01*
X118061692Y-69961569D01*
X118243673Y-69886191D01*
X118243676Y-69886189D01*
X118335657Y-69824729D01*
X118402334Y-69803850D01*
X118469715Y-69822334D01*
X118473440Y-69824728D01*
X118566079Y-69886628D01*
X118566092Y-69886635D01*
X118747001Y-69961569D01*
X118748165Y-69962051D01*
X118748169Y-69962051D01*
X118748170Y-69962052D01*
X118941456Y-70000500D01*
X118941459Y-70000500D01*
X119138543Y-70000500D01*
X119292567Y-69969862D01*
X119331835Y-69962051D01*
X119513914Y-69886632D01*
X119606109Y-69825029D01*
X119672786Y-69804151D01*
X119740166Y-69822635D01*
X119743891Y-69825029D01*
X119835423Y-69886189D01*
X119836086Y-69886632D01*
X119836088Y-69886633D01*
X119836092Y-69886635D01*
X120017001Y-69961569D01*
X120018165Y-69962051D01*
X120018169Y-69962051D01*
X120018170Y-69962052D01*
X120211456Y-70000500D01*
X120211459Y-70000500D01*
X120408543Y-70000500D01*
X120562567Y-69969862D01*
X120601835Y-69962051D01*
X120783914Y-69886632D01*
X120784579Y-69886188D01*
X120876558Y-69824729D01*
X120947782Y-69777139D01*
X121087139Y-69637782D01*
X121196632Y-69473914D01*
X121272051Y-69291835D01*
X121288335Y-69209969D01*
X121310500Y-69098543D01*
X125499499Y-69098543D01*
X125537947Y-69291829D01*
X125537950Y-69291839D01*
X125613364Y-69473907D01*
X125613371Y-69473920D01*
X125722860Y-69637781D01*
X125722863Y-69637785D01*
X125862214Y-69777136D01*
X125862218Y-69777139D01*
X126026079Y-69886628D01*
X126026092Y-69886635D01*
X126207001Y-69961569D01*
X126208165Y-69962051D01*
X126208169Y-69962051D01*
X126208170Y-69962052D01*
X126401456Y-70000500D01*
X126401459Y-70000500D01*
X126598543Y-70000500D01*
X126752567Y-69969862D01*
X126791835Y-69962051D01*
X126973914Y-69886632D01*
X126973919Y-69886628D01*
X126973922Y-69886627D01*
X126998040Y-69870511D01*
X127066559Y-69824728D01*
X127133234Y-69803850D01*
X127200614Y-69822334D01*
X127204341Y-69824728D01*
X127296321Y-69886188D01*
X127296328Y-69886192D01*
X127478308Y-69961569D01*
X127520000Y-69969862D01*
X127520000Y-68846409D01*
X127605956Y-68896037D01*
X127714048Y-68925000D01*
X127825952Y-68925000D01*
X127934044Y-68896037D01*
X128020000Y-68846409D01*
X128020000Y-69969862D01*
X128061690Y-69961569D01*
X128061692Y-69961569D01*
X128243673Y-69886191D01*
X128243676Y-69886189D01*
X128335657Y-69824729D01*
X128402334Y-69803850D01*
X128469715Y-69822334D01*
X128473440Y-69824728D01*
X128566079Y-69886628D01*
X128566092Y-69886635D01*
X128747001Y-69961569D01*
X128748165Y-69962051D01*
X128748169Y-69962051D01*
X128748170Y-69962052D01*
X128941456Y-70000500D01*
X128941459Y-70000500D01*
X129138543Y-70000500D01*
X129292567Y-69969862D01*
X129331835Y-69962051D01*
X129513914Y-69886632D01*
X129606109Y-69825029D01*
X129672786Y-69804151D01*
X129740166Y-69822635D01*
X129743891Y-69825029D01*
X129835423Y-69886189D01*
X129836086Y-69886632D01*
X129836088Y-69886633D01*
X129836092Y-69886635D01*
X130017001Y-69961569D01*
X130018165Y-69962051D01*
X130018169Y-69962051D01*
X130018170Y-69962052D01*
X130211456Y-70000500D01*
X130211459Y-70000500D01*
X130408543Y-70000500D01*
X130562567Y-69969862D01*
X130601835Y-69962051D01*
X130783914Y-69886632D01*
X130784579Y-69886188D01*
X130876558Y-69824729D01*
X130947782Y-69777139D01*
X131087139Y-69637782D01*
X131196632Y-69473914D01*
X131272051Y-69291835D01*
X131288335Y-69209969D01*
X131310500Y-69098543D01*
X131310500Y-67901456D01*
X131272052Y-67708170D01*
X131272051Y-67708169D01*
X131272051Y-67708165D01*
X131241285Y-67633889D01*
X131196635Y-67526092D01*
X131196628Y-67526079D01*
X131087139Y-67362218D01*
X131087136Y-67362214D01*
X130947785Y-67222863D01*
X130947781Y-67222860D01*
X130783920Y-67113371D01*
X130783907Y-67113364D01*
X130601839Y-67037950D01*
X130601829Y-67037947D01*
X130408543Y-66999500D01*
X130408541Y-66999500D01*
X130211459Y-66999500D01*
X130211457Y-66999500D01*
X130018170Y-67037947D01*
X130018160Y-67037950D01*
X129836089Y-67113366D01*
X129743890Y-67174971D01*
X129677213Y-67195848D01*
X129609833Y-67177363D01*
X129606110Y-67174971D01*
X129579740Y-67157352D01*
X129513914Y-67113368D01*
X129513911Y-67113366D01*
X129513910Y-67113366D01*
X129331839Y-67037950D01*
X129331829Y-67037947D01*
X129138543Y-66999500D01*
X129138541Y-66999500D01*
X128941459Y-66999500D01*
X128941457Y-66999500D01*
X128748170Y-67037947D01*
X128748160Y-67037950D01*
X128566093Y-67113364D01*
X128566082Y-67113370D01*
X128473440Y-67175271D01*
X128406762Y-67196148D01*
X128339382Y-67177663D01*
X128335659Y-67175270D01*
X128243684Y-67113814D01*
X128243671Y-67113807D01*
X128061691Y-67038429D01*
X128061683Y-67038427D01*
X128020000Y-67030135D01*
X128020000Y-68153590D01*
X127934044Y-68103963D01*
X127825952Y-68075000D01*
X127714048Y-68075000D01*
X127605956Y-68103963D01*
X127520000Y-68153590D01*
X127520000Y-67030136D01*
X127519999Y-67030135D01*
X127478316Y-67038427D01*
X127478308Y-67038429D01*
X127296325Y-67113809D01*
X127204339Y-67175271D01*
X127137661Y-67196148D01*
X127070281Y-67177663D01*
X127066559Y-67175271D01*
X127034552Y-67153885D01*
X126973914Y-67113368D01*
X126973911Y-67113366D01*
X126973910Y-67113366D01*
X126791839Y-67037950D01*
X126791829Y-67037947D01*
X126598543Y-66999500D01*
X126598541Y-66999500D01*
X126401459Y-66999500D01*
X126401457Y-66999500D01*
X126208170Y-67037947D01*
X126208160Y-67037950D01*
X126026092Y-67113364D01*
X126026079Y-67113371D01*
X125862218Y-67222860D01*
X125862214Y-67222863D01*
X125722863Y-67362214D01*
X125722860Y-67362218D01*
X125613371Y-67526079D01*
X125613364Y-67526092D01*
X125537950Y-67708160D01*
X125537947Y-67708170D01*
X125499500Y-67901456D01*
X125499500Y-67901459D01*
X125499500Y-69098541D01*
X125499500Y-69098543D01*
X125499499Y-69098543D01*
X121310500Y-69098543D01*
X121310500Y-67901456D01*
X121272052Y-67708170D01*
X121272051Y-67708169D01*
X121272051Y-67708165D01*
X121241285Y-67633889D01*
X121196635Y-67526092D01*
X121196628Y-67526079D01*
X121087139Y-67362218D01*
X121087136Y-67362214D01*
X120947785Y-67222863D01*
X120947781Y-67222860D01*
X120783920Y-67113371D01*
X120783907Y-67113364D01*
X120601839Y-67037950D01*
X120601829Y-67037947D01*
X120408543Y-66999500D01*
X120408541Y-66999500D01*
X120211459Y-66999500D01*
X120211457Y-66999500D01*
X120018170Y-67037947D01*
X120018160Y-67037950D01*
X119836089Y-67113366D01*
X119743890Y-67174971D01*
X119677213Y-67195848D01*
X119609833Y-67177363D01*
X119606110Y-67174971D01*
X119579740Y-67157352D01*
X119513914Y-67113368D01*
X119513911Y-67113366D01*
X119513910Y-67113366D01*
X119331839Y-67037950D01*
X119331829Y-67037947D01*
X119138543Y-66999500D01*
X119138541Y-66999500D01*
X118941459Y-66999500D01*
X118941457Y-66999500D01*
X118748170Y-67037947D01*
X118748160Y-67037950D01*
X118566093Y-67113364D01*
X118566082Y-67113370D01*
X118473440Y-67175271D01*
X118406762Y-67196148D01*
X118339382Y-67177663D01*
X118335659Y-67175270D01*
X118243684Y-67113814D01*
X118243671Y-67113807D01*
X118061691Y-67038429D01*
X118061683Y-67038427D01*
X118020000Y-67030135D01*
X118020000Y-68153590D01*
X117934044Y-68103963D01*
X117825952Y-68075000D01*
X117714048Y-68075000D01*
X117605956Y-68103963D01*
X117520000Y-68153590D01*
X117520000Y-67030136D01*
X117519999Y-67030135D01*
X117478316Y-67038427D01*
X117478308Y-67038429D01*
X117296325Y-67113809D01*
X117204339Y-67175271D01*
X117137661Y-67196148D01*
X117070281Y-67177663D01*
X117066559Y-67175271D01*
X117034552Y-67153885D01*
X116973914Y-67113368D01*
X116973911Y-67113366D01*
X116973910Y-67113366D01*
X116791839Y-67037950D01*
X116791829Y-67037947D01*
X116598543Y-66999500D01*
X116598541Y-66999500D01*
X116401459Y-66999500D01*
X116401457Y-66999500D01*
X116208170Y-67037947D01*
X116208160Y-67037950D01*
X116026092Y-67113364D01*
X116026079Y-67113371D01*
X115862218Y-67222860D01*
X115862214Y-67222863D01*
X115722863Y-67362214D01*
X115722860Y-67362218D01*
X115613371Y-67526079D01*
X115613364Y-67526092D01*
X115537950Y-67708160D01*
X115537947Y-67708170D01*
X115499500Y-67901456D01*
X115499500Y-67901459D01*
X115499500Y-69098541D01*
X115499500Y-69098543D01*
X115499499Y-69098543D01*
X109928483Y-69098543D01*
X109984705Y-69042321D01*
X110094197Y-68878454D01*
X110169617Y-68696376D01*
X110191249Y-68587620D01*
X110223633Y-68525713D01*
X110284349Y-68491139D01*
X110288619Y-68490209D01*
X110397427Y-68468566D01*
X110579505Y-68393146D01*
X110743372Y-68283654D01*
X110882730Y-68144296D01*
X110992222Y-67980429D01*
X111067642Y-67798351D01*
X111106091Y-67605055D01*
X111106091Y-67407975D01*
X111106091Y-67407972D01*
X111106090Y-67407970D01*
X111096989Y-67362218D01*
X111067642Y-67214679D01*
X110992222Y-67032601D01*
X110992220Y-67032598D01*
X110992218Y-67032594D01*
X110882730Y-66868734D01*
X110882727Y-66868730D01*
X110036269Y-66022272D01*
X110036265Y-66022269D01*
X109872405Y-65912781D01*
X109872395Y-65912776D01*
X109690321Y-65837358D01*
X109690313Y-65837356D01*
X109497028Y-65798909D01*
X109497025Y-65798909D01*
X109299945Y-65798909D01*
X109299942Y-65798909D01*
X109106656Y-65837356D01*
X109106648Y-65837358D01*
X108924574Y-65912776D01*
X108924564Y-65912781D01*
X108760704Y-66022269D01*
X108760700Y-66022272D01*
X108621348Y-66161624D01*
X108621345Y-66161628D01*
X108511857Y-66325488D01*
X108511852Y-66325498D01*
X108436434Y-66507572D01*
X108436432Y-66507578D01*
X108414801Y-66616325D01*
X108382416Y-66678236D01*
X108321700Y-66712810D01*
X108317376Y-66713750D01*
X108208629Y-66735381D01*
X108208623Y-66735383D01*
X108026549Y-66810801D01*
X108026539Y-66810806D01*
X107862679Y-66920294D01*
X107862675Y-66920297D01*
X107723323Y-67059649D01*
X107723320Y-67059653D01*
X107613832Y-67223513D01*
X107613827Y-67223523D01*
X107538409Y-67405597D01*
X107538407Y-67405603D01*
X107516670Y-67514881D01*
X107484285Y-67576792D01*
X107423569Y-67611366D01*
X107419245Y-67612306D01*
X107310750Y-67633887D01*
X107310744Y-67633889D01*
X107128759Y-67709269D01*
X107128752Y-67709273D01*
X107093413Y-67732886D01*
X107093412Y-67732886D01*
X107887814Y-68527287D01*
X107791943Y-68552976D01*
X107695031Y-68608929D01*
X107615903Y-68688057D01*
X107559950Y-68784969D01*
X107534261Y-68880840D01*
X106739860Y-68086438D01*
X106739860Y-68086439D01*
X106716247Y-68121778D01*
X106716243Y-68121785D01*
X106640863Y-68303770D01*
X106640861Y-68303776D01*
X106619280Y-68412271D01*
X106586895Y-68474182D01*
X106526179Y-68508756D01*
X106521854Y-68509696D01*
X106412580Y-68531432D01*
X106412572Y-68531434D01*
X106230498Y-68606852D01*
X106230488Y-68606857D01*
X106066628Y-68716345D01*
X106066624Y-68716348D01*
X105927272Y-68855700D01*
X105927269Y-68855704D01*
X105817781Y-69019564D01*
X105817776Y-69019574D01*
X105742358Y-69201648D01*
X105742356Y-69201656D01*
X105703909Y-69394940D01*
X101106090Y-69394940D01*
X101096166Y-69345050D01*
X101067642Y-69201649D01*
X100992222Y-69019571D01*
X100992220Y-69019568D01*
X100992218Y-69019564D01*
X100882730Y-68855704D01*
X100882727Y-68855700D01*
X100743375Y-68716348D01*
X100743371Y-68716345D01*
X100579511Y-68606857D01*
X100579501Y-68606852D01*
X100397427Y-68531434D01*
X100397421Y-68531432D01*
X100288674Y-68509801D01*
X100226763Y-68477416D01*
X100192189Y-68416700D01*
X100191249Y-68412375D01*
X100175901Y-68335215D01*
X100169617Y-68303624D01*
X100094197Y-68121546D01*
X100094195Y-68121543D01*
X100094193Y-68121539D01*
X99984705Y-67957679D01*
X99984702Y-67957675D01*
X99845350Y-67818323D01*
X99845346Y-67818320D01*
X99681486Y-67708832D01*
X99681476Y-67708827D01*
X99499402Y-67633409D01*
X99499396Y-67633407D01*
X99390117Y-67611670D01*
X99328206Y-67579285D01*
X99293632Y-67518569D01*
X99292691Y-67514243D01*
X99271110Y-67405745D01*
X99271109Y-67405741D01*
X99195732Y-67223762D01*
X99172112Y-67188413D01*
X98377712Y-67982813D01*
X98352024Y-67886943D01*
X98296071Y-67790031D01*
X98216943Y-67710903D01*
X98120031Y-67654950D01*
X98024159Y-67629261D01*
X98818560Y-66834860D01*
X98783215Y-66811243D01*
X98783213Y-66811242D01*
X98601233Y-66735864D01*
X98601223Y-66735861D01*
X98492728Y-66714280D01*
X98430817Y-66681895D01*
X98396243Y-66621179D01*
X98395315Y-66616915D01*
X98373566Y-66507573D01*
X98298146Y-66325495D01*
X98298144Y-66325492D01*
X98298142Y-66325488D01*
X98188654Y-66161628D01*
X98188651Y-66161624D01*
X98049299Y-66022272D01*
X98049295Y-66022269D01*
X97885435Y-65912781D01*
X97885425Y-65912776D01*
X97703351Y-65837358D01*
X97703343Y-65837356D01*
X97510058Y-65798909D01*
X97510055Y-65798909D01*
X97312975Y-65798909D01*
X97312972Y-65798909D01*
X97119686Y-65837356D01*
X97119678Y-65837358D01*
X96937604Y-65912776D01*
X96937594Y-65912781D01*
X96773734Y-66022269D01*
X96773730Y-66022272D01*
X95927272Y-66868730D01*
X95927269Y-66868734D01*
X95817781Y-67032594D01*
X95817776Y-67032604D01*
X95742358Y-67214678D01*
X95742356Y-67214686D01*
X95703909Y-67407970D01*
X91117710Y-67407970D01*
X91087139Y-67362218D01*
X91087136Y-67362214D01*
X90947785Y-67222863D01*
X90947781Y-67222860D01*
X90783920Y-67113371D01*
X90783907Y-67113364D01*
X90601839Y-67037950D01*
X90601829Y-67037947D01*
X90408543Y-66999500D01*
X90408541Y-66999500D01*
X90211459Y-66999500D01*
X90211457Y-66999500D01*
X90018170Y-67037947D01*
X90018160Y-67037950D01*
X89836089Y-67113366D01*
X89743890Y-67174971D01*
X89677213Y-67195848D01*
X89609833Y-67177363D01*
X89606110Y-67174971D01*
X89579740Y-67157352D01*
X89513914Y-67113368D01*
X89513911Y-67113366D01*
X89513910Y-67113366D01*
X89331839Y-67037950D01*
X89331829Y-67037947D01*
X89138543Y-66999500D01*
X89138541Y-66999500D01*
X88941459Y-66999500D01*
X88941457Y-66999500D01*
X88748170Y-67037947D01*
X88748160Y-67037950D01*
X88566093Y-67113364D01*
X88566082Y-67113370D01*
X88473440Y-67175271D01*
X88406762Y-67196148D01*
X88339382Y-67177663D01*
X88335659Y-67175270D01*
X88243684Y-67113814D01*
X88243671Y-67113807D01*
X88061691Y-67038429D01*
X88061683Y-67038427D01*
X88020000Y-67030135D01*
X88020000Y-68153590D01*
X87934044Y-68103963D01*
X87825952Y-68075000D01*
X87714048Y-68075000D01*
X87605956Y-68103963D01*
X87520000Y-68153590D01*
X87520000Y-67030136D01*
X87519999Y-67030135D01*
X87478316Y-67038427D01*
X87478308Y-67038429D01*
X87296325Y-67113809D01*
X87204339Y-67175271D01*
X87137661Y-67196148D01*
X87070281Y-67177663D01*
X87066559Y-67175271D01*
X87034552Y-67153885D01*
X86973914Y-67113368D01*
X86973911Y-67113366D01*
X86973910Y-67113366D01*
X86791839Y-67037950D01*
X86791829Y-67037947D01*
X86598543Y-66999500D01*
X86598541Y-66999500D01*
X86401459Y-66999500D01*
X86401457Y-66999500D01*
X86208170Y-67037947D01*
X86208160Y-67037950D01*
X86026092Y-67113364D01*
X86026079Y-67113371D01*
X85862218Y-67222860D01*
X85862214Y-67222863D01*
X85722863Y-67362214D01*
X85722860Y-67362218D01*
X85613371Y-67526079D01*
X85613364Y-67526092D01*
X85537950Y-67708160D01*
X85537947Y-67708170D01*
X85499500Y-67901456D01*
X85499500Y-67901459D01*
X85499500Y-69098541D01*
X85499500Y-69098543D01*
X85499499Y-69098543D01*
X81310500Y-69098543D01*
X81310500Y-67901456D01*
X81272052Y-67708170D01*
X81272051Y-67708169D01*
X81272051Y-67708165D01*
X81241285Y-67633889D01*
X81196635Y-67526092D01*
X81196628Y-67526079D01*
X81087139Y-67362218D01*
X81087136Y-67362214D01*
X80947785Y-67222863D01*
X80947781Y-67222860D01*
X80783920Y-67113371D01*
X80783907Y-67113364D01*
X80601839Y-67037950D01*
X80601829Y-67037947D01*
X80408543Y-66999500D01*
X80408541Y-66999500D01*
X80211459Y-66999500D01*
X80211457Y-66999500D01*
X80018170Y-67037947D01*
X80018160Y-67037950D01*
X79836089Y-67113366D01*
X79743890Y-67174971D01*
X79677213Y-67195848D01*
X79609833Y-67177363D01*
X79606110Y-67174971D01*
X79579740Y-67157352D01*
X79513914Y-67113368D01*
X79513911Y-67113366D01*
X79513910Y-67113366D01*
X79331839Y-67037950D01*
X79331829Y-67037947D01*
X79138543Y-66999500D01*
X79138541Y-66999500D01*
X78941459Y-66999500D01*
X78941457Y-66999500D01*
X78748170Y-67037947D01*
X78748160Y-67037950D01*
X78566093Y-67113364D01*
X78566082Y-67113370D01*
X78473440Y-67175271D01*
X78406762Y-67196148D01*
X78339382Y-67177663D01*
X78335659Y-67175270D01*
X78243684Y-67113814D01*
X78243671Y-67113807D01*
X78061691Y-67038429D01*
X78061683Y-67038427D01*
X78020000Y-67030135D01*
X78020000Y-68153590D01*
X77934044Y-68103963D01*
X77825952Y-68075000D01*
X77714048Y-68075000D01*
X77605956Y-68103963D01*
X77520000Y-68153590D01*
X77520000Y-67030136D01*
X77519999Y-67030135D01*
X77478316Y-67038427D01*
X77478308Y-67038429D01*
X77296324Y-67113809D01*
X77293387Y-67115772D01*
X77291614Y-67116326D01*
X77290952Y-67116681D01*
X77290884Y-67116555D01*
X77226709Y-67136647D01*
X77159329Y-67118160D01*
X77112641Y-67066179D01*
X77100500Y-67012667D01*
X77100500Y-66500097D01*
X77120185Y-66433058D01*
X77136819Y-66412416D01*
X79412417Y-64136819D01*
X79473740Y-64103334D01*
X79500098Y-64100500D01*
X127563331Y-64100500D01*
X127563347Y-64100501D01*
X127570943Y-64100501D01*
X127729054Y-64100501D01*
X127729057Y-64100501D01*
X127881785Y-64059577D01*
X127931904Y-64030639D01*
X128018716Y-63980520D01*
X128130520Y-63868716D01*
X128130520Y-63868714D01*
X128140728Y-63858507D01*
X128140730Y-63858504D01*
X130668506Y-61330728D01*
X130668511Y-61330724D01*
X130678714Y-61320520D01*
X130678716Y-61320520D01*
X130790520Y-61208716D01*
X130817121Y-61162641D01*
X130860663Y-61087225D01*
X130860664Y-61087222D01*
X130860666Y-61087218D01*
X130869577Y-61071785D01*
X130910500Y-60919057D01*
X130910500Y-60760943D01*
X130910500Y-59865784D01*
X130930185Y-59798745D01*
X130946819Y-59778103D01*
X131087136Y-59637785D01*
X131087139Y-59637782D01*
X131196632Y-59473914D01*
X131272051Y-59291835D01*
X131288335Y-59209969D01*
X131310500Y-59098543D01*
X131310500Y-57901456D01*
X131272052Y-57708170D01*
X131272051Y-57708169D01*
X131272051Y-57708165D01*
X131241285Y-57633889D01*
X131196635Y-57526092D01*
X131196628Y-57526079D01*
X131087139Y-57362218D01*
X131087136Y-57362214D01*
X130947785Y-57222863D01*
X130947781Y-57222860D01*
X130783920Y-57113371D01*
X130783907Y-57113364D01*
X130601839Y-57037950D01*
X130601829Y-57037947D01*
X130408543Y-56999500D01*
X130408541Y-56999500D01*
X130211459Y-56999500D01*
X130211457Y-56999500D01*
X130018170Y-57037947D01*
X130018160Y-57037950D01*
X129836089Y-57113366D01*
X129743890Y-57174971D01*
X129677213Y-57195848D01*
X129609833Y-57177363D01*
X129606110Y-57174971D01*
X129579740Y-57157352D01*
X129513914Y-57113368D01*
X129513911Y-57113366D01*
X129513910Y-57113366D01*
X129331839Y-57037950D01*
X129331829Y-57037947D01*
X129138543Y-56999500D01*
X129138541Y-56999500D01*
X128941459Y-56999500D01*
X128941457Y-56999500D01*
X128748170Y-57037947D01*
X128748160Y-57037950D01*
X128566093Y-57113364D01*
X128566082Y-57113370D01*
X128473440Y-57175271D01*
X128406762Y-57196148D01*
X128339382Y-57177663D01*
X128335659Y-57175270D01*
X128243684Y-57113814D01*
X128243671Y-57113807D01*
X128061691Y-57038429D01*
X128061683Y-57038427D01*
X128020000Y-57030135D01*
X128020000Y-58153590D01*
X127934044Y-58103963D01*
X127825952Y-58075000D01*
X127714048Y-58075000D01*
X127605956Y-58103963D01*
X127520000Y-58153590D01*
X127520000Y-57030136D01*
X127519999Y-57030135D01*
X127478316Y-57038427D01*
X127478308Y-57038429D01*
X127296325Y-57113809D01*
X127204339Y-57175271D01*
X127137661Y-57196148D01*
X127070281Y-57177663D01*
X127066559Y-57175271D01*
X127034552Y-57153885D01*
X126973914Y-57113368D01*
X126973911Y-57113366D01*
X126973910Y-57113366D01*
X126791839Y-57037950D01*
X126791829Y-57037947D01*
X126598543Y-56999500D01*
X126598541Y-56999500D01*
X126401459Y-56999500D01*
X126401457Y-56999500D01*
X126208170Y-57037947D01*
X126208160Y-57037950D01*
X126026092Y-57113364D01*
X126026079Y-57113371D01*
X125862218Y-57222860D01*
X125862214Y-57222863D01*
X125722863Y-57362214D01*
X125722860Y-57362218D01*
X125613371Y-57526079D01*
X125613364Y-57526092D01*
X125537950Y-57708160D01*
X125537947Y-57708170D01*
X125499500Y-57901456D01*
X125499500Y-57901459D01*
X125499500Y-59098541D01*
X125499500Y-59098543D01*
X125499499Y-59098543D01*
X125537947Y-59291829D01*
X125537950Y-59291839D01*
X125613364Y-59473907D01*
X125613371Y-59473920D01*
X125722860Y-59637781D01*
X125722863Y-59637785D01*
X125862214Y-59777136D01*
X125862218Y-59777139D01*
X126026079Y-59886628D01*
X126026092Y-59886635D01*
X126207001Y-59961569D01*
X126208165Y-59962051D01*
X126208169Y-59962051D01*
X126208170Y-59962052D01*
X126401456Y-60000500D01*
X126401459Y-60000500D01*
X126598543Y-60000500D01*
X126752567Y-59969862D01*
X126791835Y-59962051D01*
X126973914Y-59886632D01*
X126973919Y-59886628D01*
X126973922Y-59886627D01*
X127005115Y-59865784D01*
X127066559Y-59824728D01*
X127133234Y-59803850D01*
X127200614Y-59822334D01*
X127204341Y-59824728D01*
X127296321Y-59886188D01*
X127296328Y-59886192D01*
X127478308Y-59961569D01*
X127520000Y-59969862D01*
X127520000Y-58846409D01*
X127605956Y-58896037D01*
X127714048Y-58925000D01*
X127825952Y-58925000D01*
X127934044Y-58896037D01*
X128020000Y-58846409D01*
X128020000Y-59969862D01*
X128061690Y-59961569D01*
X128061692Y-59961569D01*
X128243673Y-59886191D01*
X128243676Y-59886189D01*
X128335657Y-59824729D01*
X128402334Y-59803850D01*
X128469715Y-59822334D01*
X128473440Y-59824728D01*
X128566079Y-59886628D01*
X128566092Y-59886635D01*
X128747001Y-59961569D01*
X128748165Y-59962051D01*
X128748169Y-59962051D01*
X128748170Y-59962052D01*
X128941456Y-60000500D01*
X128941459Y-60000500D01*
X129138543Y-60000500D01*
X129292567Y-59969862D01*
X129331835Y-59962051D01*
X129513914Y-59886632D01*
X129516602Y-59884835D01*
X129518226Y-59884326D01*
X129519289Y-59883759D01*
X129519396Y-59883960D01*
X129583276Y-59863953D01*
X129650658Y-59882432D01*
X129697353Y-59934407D01*
X129709500Y-59987933D01*
X129709500Y-60539903D01*
X129689815Y-60606942D01*
X129673181Y-60627584D01*
X127437584Y-62863181D01*
X127376261Y-62896666D01*
X127349903Y-62899500D01*
X79286670Y-62899500D01*
X79286654Y-62899499D01*
X79279058Y-62899499D01*
X79120943Y-62899499D01*
X79044579Y-62919961D01*
X78968214Y-62940423D01*
X78968209Y-62940426D01*
X78831290Y-63019475D01*
X78831282Y-63019481D01*
X76019481Y-65831282D01*
X76019477Y-65831287D01*
X75972430Y-65912777D01*
X75972430Y-65912778D01*
X75940423Y-65968214D01*
X75940423Y-65968215D01*
X75899499Y-66120943D01*
X75899499Y-66120945D01*
X75899499Y-66289046D01*
X75899500Y-66289059D01*
X75899500Y-67134216D01*
X75879815Y-67201255D01*
X75863181Y-67221897D01*
X75722863Y-67362214D01*
X75722860Y-67362218D01*
X75613371Y-67526079D01*
X75613364Y-67526092D01*
X75537950Y-67708160D01*
X75537947Y-67708170D01*
X75499500Y-67901456D01*
X75499500Y-67901459D01*
X75499500Y-69098541D01*
X75499500Y-69098543D01*
X75499499Y-69098543D01*
X75000500Y-69098543D01*
X75000500Y-59098543D01*
X75499499Y-59098543D01*
X75537947Y-59291829D01*
X75537950Y-59291839D01*
X75613364Y-59473907D01*
X75613371Y-59473920D01*
X75722860Y-59637781D01*
X75722863Y-59637785D01*
X75862214Y-59777136D01*
X75862218Y-59777139D01*
X76026079Y-59886628D01*
X76026092Y-59886635D01*
X76207001Y-59961569D01*
X76208165Y-59962051D01*
X76208169Y-59962051D01*
X76208170Y-59962052D01*
X76401456Y-60000500D01*
X76401459Y-60000500D01*
X76598543Y-60000500D01*
X76752567Y-59969862D01*
X76791835Y-59962051D01*
X76973914Y-59886632D01*
X76973919Y-59886628D01*
X76973922Y-59886627D01*
X77005115Y-59865784D01*
X77066559Y-59824728D01*
X77133234Y-59803850D01*
X77200614Y-59822334D01*
X77204341Y-59824728D01*
X77296321Y-59886188D01*
X77296328Y-59886192D01*
X77478308Y-59961569D01*
X77520000Y-59969862D01*
X77520000Y-58846409D01*
X77605956Y-58896037D01*
X77714048Y-58925000D01*
X77825952Y-58925000D01*
X77934044Y-58896037D01*
X78020000Y-58846409D01*
X78020000Y-59969862D01*
X78061690Y-59961569D01*
X78061692Y-59961569D01*
X78243673Y-59886191D01*
X78243676Y-59886189D01*
X78335657Y-59824729D01*
X78402334Y-59803850D01*
X78469715Y-59822334D01*
X78473440Y-59824728D01*
X78566079Y-59886628D01*
X78566092Y-59886635D01*
X78747001Y-59961569D01*
X78748165Y-59962051D01*
X78748169Y-59962051D01*
X78748170Y-59962052D01*
X78941456Y-60000500D01*
X78941459Y-60000500D01*
X79138543Y-60000500D01*
X79292567Y-59969862D01*
X79331835Y-59962051D01*
X79513914Y-59886632D01*
X79606109Y-59825029D01*
X79672786Y-59804151D01*
X79740166Y-59822635D01*
X79743891Y-59825029D01*
X79835423Y-59886189D01*
X79836086Y-59886632D01*
X79836088Y-59886633D01*
X79836092Y-59886635D01*
X80017001Y-59961569D01*
X80018165Y-59962051D01*
X80018169Y-59962051D01*
X80018170Y-59962052D01*
X80211456Y-60000500D01*
X80211459Y-60000500D01*
X80408543Y-60000500D01*
X80562567Y-59969862D01*
X80601835Y-59962051D01*
X80783914Y-59886632D01*
X80784579Y-59886188D01*
X80815115Y-59865784D01*
X80947782Y-59777139D01*
X81087139Y-59637782D01*
X81196632Y-59473914D01*
X81272051Y-59291835D01*
X81288335Y-59209969D01*
X81310500Y-59098543D01*
X85499499Y-59098543D01*
X85537947Y-59291829D01*
X85537950Y-59291839D01*
X85613364Y-59473907D01*
X85613371Y-59473920D01*
X85722860Y-59637781D01*
X85722863Y-59637785D01*
X85862214Y-59777136D01*
X85862218Y-59777139D01*
X86026079Y-59886628D01*
X86026092Y-59886635D01*
X86207001Y-59961569D01*
X86208165Y-59962051D01*
X86208169Y-59962051D01*
X86208170Y-59962052D01*
X86401456Y-60000500D01*
X86401459Y-60000500D01*
X86598543Y-60000500D01*
X86752567Y-59969862D01*
X86791835Y-59962051D01*
X86973914Y-59886632D01*
X86973919Y-59886628D01*
X86973922Y-59886627D01*
X87005115Y-59865784D01*
X87066559Y-59824728D01*
X87133234Y-59803850D01*
X87200614Y-59822334D01*
X87204341Y-59824728D01*
X87296321Y-59886188D01*
X87296328Y-59886192D01*
X87478308Y-59961569D01*
X87520000Y-59969862D01*
X87520000Y-58846409D01*
X87605956Y-58896037D01*
X87714048Y-58925000D01*
X87825952Y-58925000D01*
X87934044Y-58896037D01*
X88020000Y-58846409D01*
X88020000Y-59969862D01*
X88061690Y-59961569D01*
X88061692Y-59961569D01*
X88243673Y-59886191D01*
X88243676Y-59886189D01*
X88335657Y-59824729D01*
X88402334Y-59803850D01*
X88469715Y-59822334D01*
X88473440Y-59824728D01*
X88566079Y-59886628D01*
X88566092Y-59886635D01*
X88747001Y-59961569D01*
X88748165Y-59962051D01*
X88748169Y-59962051D01*
X88748170Y-59962052D01*
X88941456Y-60000500D01*
X88941459Y-60000500D01*
X89138543Y-60000500D01*
X89292567Y-59969862D01*
X89331835Y-59962051D01*
X89513914Y-59886632D01*
X89606109Y-59825029D01*
X89672786Y-59804151D01*
X89740166Y-59822635D01*
X89743891Y-59825029D01*
X89835423Y-59886189D01*
X89836086Y-59886632D01*
X89836088Y-59886633D01*
X89836092Y-59886635D01*
X90017001Y-59961569D01*
X90018165Y-59962051D01*
X90018169Y-59962051D01*
X90018170Y-59962052D01*
X90211456Y-60000500D01*
X90211459Y-60000500D01*
X90408543Y-60000500D01*
X90562567Y-59969862D01*
X90601835Y-59962051D01*
X90783914Y-59886632D01*
X90784579Y-59886188D01*
X90815115Y-59865784D01*
X90947782Y-59777139D01*
X91087139Y-59637782D01*
X91196632Y-59473914D01*
X91229344Y-59394940D01*
X95703909Y-59394940D01*
X95703909Y-59592029D01*
X95742356Y-59785313D01*
X95742358Y-59785321D01*
X95817776Y-59967395D01*
X95817781Y-59967405D01*
X95927269Y-60131265D01*
X95927272Y-60131269D01*
X96773730Y-60977727D01*
X96773734Y-60977730D01*
X96937594Y-61087218D01*
X96937601Y-61087222D01*
X97119679Y-61162642D01*
X97312970Y-61201090D01*
X97312973Y-61201091D01*
X97312975Y-61201091D01*
X97510057Y-61201091D01*
X97510058Y-61201090D01*
X97703351Y-61162642D01*
X97885429Y-61087222D01*
X98049296Y-60977730D01*
X98188654Y-60838372D01*
X98298146Y-60674505D01*
X98373566Y-60492427D01*
X98395304Y-60383140D01*
X98427687Y-60321234D01*
X98488402Y-60286659D01*
X98492730Y-60285717D01*
X98601229Y-60264136D01*
X98601232Y-60264135D01*
X98783216Y-60188756D01*
X98783220Y-60188753D01*
X98818559Y-60165139D01*
X98818560Y-60165138D01*
X98024159Y-59370738D01*
X98120031Y-59345050D01*
X98216943Y-59289097D01*
X98296071Y-59209969D01*
X98352024Y-59113057D01*
X98377712Y-59017185D01*
X99172112Y-59811586D01*
X99172113Y-59811585D01*
X99195727Y-59776246D01*
X99195730Y-59776242D01*
X99271109Y-59594258D01*
X99271112Y-59594246D01*
X99292693Y-59485754D01*
X99325077Y-59423843D01*
X99385793Y-59389269D01*
X99390036Y-59388345D01*
X99499402Y-59366591D01*
X99681480Y-59291171D01*
X99845347Y-59181679D01*
X99984705Y-59042321D01*
X100094197Y-58878454D01*
X100169617Y-58696376D01*
X100191249Y-58587620D01*
X100223633Y-58525713D01*
X100284349Y-58491139D01*
X100288619Y-58490209D01*
X100397427Y-58468566D01*
X100579505Y-58393146D01*
X100743372Y-58283654D01*
X100882730Y-58144296D01*
X100992222Y-57980429D01*
X101067642Y-57798351D01*
X101106091Y-57605055D01*
X101106091Y-57407975D01*
X101106091Y-57407972D01*
X101106090Y-57407970D01*
X105703909Y-57407970D01*
X105703909Y-57605059D01*
X105742356Y-57798343D01*
X105742358Y-57798351D01*
X105817776Y-57980425D01*
X105817781Y-57980435D01*
X105927269Y-58144295D01*
X105927272Y-58144299D01*
X106066624Y-58283651D01*
X106066628Y-58283654D01*
X106230488Y-58393142D01*
X106230492Y-58393144D01*
X106230495Y-58393146D01*
X106412573Y-58468566D01*
X106521856Y-58490303D01*
X106583765Y-58522687D01*
X106618339Y-58583403D01*
X106619280Y-58587728D01*
X106640861Y-58696223D01*
X106640864Y-58696233D01*
X106716242Y-58878213D01*
X106716243Y-58878215D01*
X106739859Y-58913559D01*
X107534261Y-58119158D01*
X107559950Y-58215031D01*
X107615903Y-58311943D01*
X107695031Y-58391071D01*
X107791943Y-58447024D01*
X107887814Y-58472712D01*
X107093413Y-59267112D01*
X107128762Y-59290732D01*
X107310741Y-59366109D01*
X107310745Y-59366110D01*
X107419243Y-59387691D01*
X107481154Y-59420076D01*
X107515729Y-59480791D01*
X107516670Y-59485117D01*
X107538407Y-59594396D01*
X107538409Y-59594402D01*
X107613827Y-59776476D01*
X107613832Y-59776486D01*
X107723320Y-59940346D01*
X107723323Y-59940350D01*
X107862675Y-60079702D01*
X107862679Y-60079705D01*
X108026539Y-60189193D01*
X108026543Y-60189195D01*
X108026546Y-60189197D01*
X108208624Y-60264617D01*
X108306340Y-60284054D01*
X108317375Y-60286249D01*
X108379286Y-60318633D01*
X108413860Y-60379349D01*
X108414801Y-60383674D01*
X108436432Y-60492421D01*
X108436434Y-60492427D01*
X108511852Y-60674501D01*
X108511857Y-60674511D01*
X108621345Y-60838371D01*
X108621348Y-60838375D01*
X108760700Y-60977727D01*
X108760704Y-60977730D01*
X108924564Y-61087218D01*
X108924571Y-61087222D01*
X109106649Y-61162642D01*
X109299940Y-61201090D01*
X109299943Y-61201091D01*
X109299945Y-61201091D01*
X109497027Y-61201091D01*
X109497028Y-61201090D01*
X109690321Y-61162642D01*
X109872399Y-61087222D01*
X110036266Y-60977730D01*
X110882730Y-60131266D01*
X110992222Y-59967399D01*
X111067642Y-59785321D01*
X111106091Y-59592025D01*
X111106091Y-59394945D01*
X111106091Y-59394942D01*
X111106090Y-59394940D01*
X111096166Y-59345050D01*
X111067642Y-59201649D01*
X111024934Y-59098543D01*
X115499499Y-59098543D01*
X115537947Y-59291829D01*
X115537950Y-59291839D01*
X115613364Y-59473907D01*
X115613371Y-59473920D01*
X115722860Y-59637781D01*
X115722863Y-59637785D01*
X115862214Y-59777136D01*
X115862218Y-59777139D01*
X116026079Y-59886628D01*
X116026092Y-59886635D01*
X116207001Y-59961569D01*
X116208165Y-59962051D01*
X116208169Y-59962051D01*
X116208170Y-59962052D01*
X116401456Y-60000500D01*
X116401459Y-60000500D01*
X116598543Y-60000500D01*
X116752567Y-59969862D01*
X116791835Y-59962051D01*
X116973914Y-59886632D01*
X116973919Y-59886628D01*
X116973922Y-59886627D01*
X117005115Y-59865784D01*
X117066559Y-59824728D01*
X117133234Y-59803850D01*
X117200614Y-59822334D01*
X117204341Y-59824728D01*
X117296321Y-59886188D01*
X117296328Y-59886192D01*
X117478308Y-59961569D01*
X117520000Y-59969862D01*
X117520000Y-58846409D01*
X117605956Y-58896037D01*
X117714048Y-58925000D01*
X117825952Y-58925000D01*
X117934044Y-58896037D01*
X118020000Y-58846409D01*
X118020000Y-59969862D01*
X118061690Y-59961569D01*
X118061692Y-59961569D01*
X118243673Y-59886191D01*
X118243676Y-59886189D01*
X118335657Y-59824729D01*
X118402334Y-59803850D01*
X118469715Y-59822334D01*
X118473440Y-59824728D01*
X118566079Y-59886628D01*
X118566092Y-59886635D01*
X118747001Y-59961569D01*
X118748165Y-59962051D01*
X118748169Y-59962051D01*
X118748170Y-59962052D01*
X118941456Y-60000500D01*
X118941459Y-60000500D01*
X119138543Y-60000500D01*
X119292567Y-59969862D01*
X119331835Y-59962051D01*
X119513914Y-59886632D01*
X119606109Y-59825029D01*
X119672786Y-59804151D01*
X119740166Y-59822635D01*
X119743891Y-59825029D01*
X119835423Y-59886189D01*
X119836086Y-59886632D01*
X119836088Y-59886633D01*
X119836092Y-59886635D01*
X120017001Y-59961569D01*
X120018165Y-59962051D01*
X120018169Y-59962051D01*
X120018170Y-59962052D01*
X120211456Y-60000500D01*
X120211459Y-60000500D01*
X120408543Y-60000500D01*
X120562567Y-59969862D01*
X120601835Y-59962051D01*
X120783914Y-59886632D01*
X120784579Y-59886188D01*
X120815115Y-59865784D01*
X120947782Y-59777139D01*
X121087139Y-59637782D01*
X121196632Y-59473914D01*
X121272051Y-59291835D01*
X121288335Y-59209969D01*
X121310500Y-59098543D01*
X121310500Y-57901456D01*
X121272052Y-57708170D01*
X121272051Y-57708169D01*
X121272051Y-57708165D01*
X121241285Y-57633889D01*
X121196635Y-57526092D01*
X121196628Y-57526079D01*
X121087139Y-57362218D01*
X121087136Y-57362214D01*
X120947785Y-57222863D01*
X120947781Y-57222860D01*
X120783920Y-57113371D01*
X120783907Y-57113364D01*
X120601839Y-57037950D01*
X120601829Y-57037947D01*
X120408543Y-56999500D01*
X120408541Y-56999500D01*
X120211459Y-56999500D01*
X120211457Y-56999500D01*
X120018170Y-57037947D01*
X120018160Y-57037950D01*
X119836089Y-57113366D01*
X119743890Y-57174971D01*
X119677213Y-57195848D01*
X119609833Y-57177363D01*
X119606110Y-57174971D01*
X119579740Y-57157352D01*
X119513914Y-57113368D01*
X119513911Y-57113366D01*
X119513910Y-57113366D01*
X119331839Y-57037950D01*
X119331829Y-57037947D01*
X119138543Y-56999500D01*
X119138541Y-56999500D01*
X118941459Y-56999500D01*
X118941457Y-56999500D01*
X118748170Y-57037947D01*
X118748160Y-57037950D01*
X118566093Y-57113364D01*
X118566082Y-57113370D01*
X118473440Y-57175271D01*
X118406762Y-57196148D01*
X118339382Y-57177663D01*
X118335659Y-57175270D01*
X118243684Y-57113814D01*
X118243671Y-57113807D01*
X118061691Y-57038429D01*
X118061683Y-57038427D01*
X118020000Y-57030135D01*
X118020000Y-58153590D01*
X117934044Y-58103963D01*
X117825952Y-58075000D01*
X117714048Y-58075000D01*
X117605956Y-58103963D01*
X117520000Y-58153590D01*
X117520000Y-57030136D01*
X117519999Y-57030135D01*
X117478316Y-57038427D01*
X117478308Y-57038429D01*
X117296325Y-57113809D01*
X117204339Y-57175271D01*
X117137661Y-57196148D01*
X117070281Y-57177663D01*
X117066559Y-57175271D01*
X117034552Y-57153885D01*
X116973914Y-57113368D01*
X116973911Y-57113366D01*
X116973910Y-57113366D01*
X116791839Y-57037950D01*
X116791829Y-57037947D01*
X116598543Y-56999500D01*
X116598541Y-56999500D01*
X116401459Y-56999500D01*
X116401457Y-56999500D01*
X116208170Y-57037947D01*
X116208160Y-57037950D01*
X116026092Y-57113364D01*
X116026079Y-57113371D01*
X115862218Y-57222860D01*
X115862214Y-57222863D01*
X115722863Y-57362214D01*
X115722860Y-57362218D01*
X115613371Y-57526079D01*
X115613364Y-57526092D01*
X115537950Y-57708160D01*
X115537947Y-57708170D01*
X115499500Y-57901456D01*
X115499500Y-57901459D01*
X115499500Y-59098541D01*
X115499500Y-59098543D01*
X115499499Y-59098543D01*
X111024934Y-59098543D01*
X110992222Y-59019571D01*
X110992220Y-59019568D01*
X110992218Y-59019564D01*
X110882730Y-58855704D01*
X110882727Y-58855700D01*
X110743375Y-58716348D01*
X110743371Y-58716345D01*
X110579511Y-58606857D01*
X110579501Y-58606852D01*
X110397427Y-58531434D01*
X110397421Y-58531432D01*
X110288674Y-58509801D01*
X110226763Y-58477416D01*
X110192189Y-58416700D01*
X110191249Y-58412375D01*
X110175901Y-58335215D01*
X110169617Y-58303624D01*
X110094197Y-58121546D01*
X110094195Y-58121543D01*
X110094193Y-58121539D01*
X109984705Y-57957679D01*
X109984702Y-57957675D01*
X109845350Y-57818323D01*
X109845346Y-57818320D01*
X109681486Y-57708832D01*
X109681476Y-57708827D01*
X109499402Y-57633409D01*
X109499396Y-57633407D01*
X109390117Y-57611670D01*
X109328206Y-57579285D01*
X109293632Y-57518569D01*
X109292691Y-57514243D01*
X109271110Y-57405745D01*
X109271109Y-57405741D01*
X109195732Y-57223762D01*
X109172112Y-57188413D01*
X108377712Y-57982813D01*
X108352024Y-57886943D01*
X108296071Y-57790031D01*
X108216943Y-57710903D01*
X108120031Y-57654950D01*
X108024159Y-57629261D01*
X108818560Y-56834860D01*
X108783215Y-56811243D01*
X108783213Y-56811242D01*
X108601233Y-56735864D01*
X108601223Y-56735861D01*
X108492728Y-56714280D01*
X108430817Y-56681895D01*
X108396243Y-56621179D01*
X108395315Y-56616915D01*
X108373566Y-56507573D01*
X108298146Y-56325495D01*
X108298144Y-56325492D01*
X108298142Y-56325488D01*
X108188654Y-56161628D01*
X108188651Y-56161624D01*
X108049299Y-56022272D01*
X108049295Y-56022269D01*
X107885435Y-55912781D01*
X107885425Y-55912776D01*
X107703351Y-55837358D01*
X107703343Y-55837356D01*
X107510058Y-55798909D01*
X107510055Y-55798909D01*
X107312975Y-55798909D01*
X107312972Y-55798909D01*
X107119686Y-55837356D01*
X107119678Y-55837358D01*
X106937604Y-55912776D01*
X106937594Y-55912781D01*
X106773734Y-56022269D01*
X106773730Y-56022272D01*
X105927272Y-56868730D01*
X105927269Y-56868734D01*
X105817781Y-57032594D01*
X105817776Y-57032604D01*
X105742358Y-57214678D01*
X105742356Y-57214686D01*
X105703909Y-57407970D01*
X101106090Y-57407970D01*
X101096989Y-57362218D01*
X101067642Y-57214679D01*
X100992222Y-57032601D01*
X100992220Y-57032598D01*
X100992218Y-57032594D01*
X100882730Y-56868734D01*
X100882727Y-56868730D01*
X100036269Y-56022272D01*
X100036265Y-56022269D01*
X99872405Y-55912781D01*
X99872395Y-55912776D01*
X99690321Y-55837358D01*
X99690313Y-55837356D01*
X99497028Y-55798909D01*
X99497025Y-55798909D01*
X99299945Y-55798909D01*
X99299942Y-55798909D01*
X99106656Y-55837356D01*
X99106648Y-55837358D01*
X98924574Y-55912776D01*
X98924564Y-55912781D01*
X98760704Y-56022269D01*
X98760700Y-56022272D01*
X98621348Y-56161624D01*
X98621345Y-56161628D01*
X98511857Y-56325488D01*
X98511852Y-56325498D01*
X98436434Y-56507572D01*
X98436432Y-56507578D01*
X98414801Y-56616325D01*
X98382416Y-56678236D01*
X98321700Y-56712810D01*
X98317376Y-56713750D01*
X98208629Y-56735381D01*
X98208623Y-56735383D01*
X98026549Y-56810801D01*
X98026539Y-56810806D01*
X97862679Y-56920294D01*
X97862675Y-56920297D01*
X97723323Y-57059649D01*
X97723320Y-57059653D01*
X97613832Y-57223513D01*
X97613827Y-57223523D01*
X97538409Y-57405597D01*
X97538407Y-57405603D01*
X97516670Y-57514881D01*
X97484285Y-57576792D01*
X97423569Y-57611366D01*
X97419245Y-57612306D01*
X97310750Y-57633887D01*
X97310744Y-57633889D01*
X97128759Y-57709269D01*
X97128752Y-57709273D01*
X97093413Y-57732886D01*
X97093412Y-57732886D01*
X97887814Y-58527287D01*
X97791943Y-58552976D01*
X97695031Y-58608929D01*
X97615903Y-58688057D01*
X97559950Y-58784969D01*
X97534261Y-58880840D01*
X96739860Y-58086438D01*
X96739860Y-58086439D01*
X96716247Y-58121778D01*
X96716243Y-58121785D01*
X96640863Y-58303770D01*
X96640861Y-58303776D01*
X96619280Y-58412271D01*
X96586895Y-58474182D01*
X96526179Y-58508756D01*
X96521854Y-58509696D01*
X96412580Y-58531432D01*
X96412572Y-58531434D01*
X96230498Y-58606852D01*
X96230488Y-58606857D01*
X96066628Y-58716345D01*
X96066624Y-58716348D01*
X95927272Y-58855700D01*
X95927269Y-58855704D01*
X95817781Y-59019564D01*
X95817776Y-59019574D01*
X95742358Y-59201648D01*
X95742356Y-59201656D01*
X95703909Y-59394940D01*
X91229344Y-59394940D01*
X91272051Y-59291835D01*
X91288335Y-59209969D01*
X91310500Y-59098543D01*
X91310500Y-57901456D01*
X91272052Y-57708170D01*
X91272051Y-57708169D01*
X91272051Y-57708165D01*
X91241285Y-57633889D01*
X91196635Y-57526092D01*
X91196628Y-57526079D01*
X91087139Y-57362218D01*
X91087136Y-57362214D01*
X90947785Y-57222863D01*
X90947781Y-57222860D01*
X90783920Y-57113371D01*
X90783907Y-57113364D01*
X90601839Y-57037950D01*
X90601829Y-57037947D01*
X90408543Y-56999500D01*
X90408541Y-56999500D01*
X90211459Y-56999500D01*
X90211457Y-56999500D01*
X90018170Y-57037947D01*
X90018160Y-57037950D01*
X89836089Y-57113366D01*
X89743890Y-57174971D01*
X89677213Y-57195848D01*
X89609833Y-57177363D01*
X89606110Y-57174971D01*
X89579740Y-57157352D01*
X89513914Y-57113368D01*
X89513911Y-57113366D01*
X89513910Y-57113366D01*
X89331839Y-57037950D01*
X89331829Y-57037947D01*
X89138543Y-56999500D01*
X89138541Y-56999500D01*
X88941459Y-56999500D01*
X88941457Y-56999500D01*
X88748170Y-57037947D01*
X88748160Y-57037950D01*
X88566093Y-57113364D01*
X88566082Y-57113370D01*
X88473440Y-57175271D01*
X88406762Y-57196148D01*
X88339382Y-57177663D01*
X88335659Y-57175270D01*
X88243684Y-57113814D01*
X88243671Y-57113807D01*
X88061691Y-57038429D01*
X88061683Y-57038427D01*
X88020000Y-57030135D01*
X88020000Y-58153590D01*
X87934044Y-58103963D01*
X87825952Y-58075000D01*
X87714048Y-58075000D01*
X87605956Y-58103963D01*
X87520000Y-58153590D01*
X87520000Y-57030136D01*
X87519999Y-57030135D01*
X87478316Y-57038427D01*
X87478308Y-57038429D01*
X87296325Y-57113809D01*
X87204339Y-57175271D01*
X87137661Y-57196148D01*
X87070281Y-57177663D01*
X87066559Y-57175271D01*
X87034552Y-57153885D01*
X86973914Y-57113368D01*
X86973911Y-57113366D01*
X86973910Y-57113366D01*
X86791839Y-57037950D01*
X86791829Y-57037947D01*
X86598543Y-56999500D01*
X86598541Y-56999500D01*
X86401459Y-56999500D01*
X86401457Y-56999500D01*
X86208170Y-57037947D01*
X86208160Y-57037950D01*
X86026092Y-57113364D01*
X86026079Y-57113371D01*
X85862218Y-57222860D01*
X85862214Y-57222863D01*
X85722863Y-57362214D01*
X85722860Y-57362218D01*
X85613371Y-57526079D01*
X85613364Y-57526092D01*
X85537950Y-57708160D01*
X85537947Y-57708170D01*
X85499500Y-57901456D01*
X85499500Y-57901459D01*
X85499500Y-59098541D01*
X85499500Y-59098543D01*
X85499499Y-59098543D01*
X81310500Y-59098543D01*
X81310500Y-57901456D01*
X81272052Y-57708170D01*
X81272051Y-57708169D01*
X81272051Y-57708165D01*
X81241285Y-57633889D01*
X81196635Y-57526092D01*
X81196628Y-57526079D01*
X81087139Y-57362218D01*
X81087136Y-57362214D01*
X80947785Y-57222863D01*
X80947781Y-57222860D01*
X80783920Y-57113371D01*
X80783907Y-57113364D01*
X80601839Y-57037950D01*
X80601829Y-57037947D01*
X80408543Y-56999500D01*
X80408541Y-56999500D01*
X80211459Y-56999500D01*
X80211457Y-56999500D01*
X80018170Y-57037947D01*
X80018160Y-57037950D01*
X79836089Y-57113366D01*
X79743890Y-57174971D01*
X79677213Y-57195848D01*
X79609833Y-57177363D01*
X79606110Y-57174971D01*
X79579740Y-57157352D01*
X79513914Y-57113368D01*
X79513911Y-57113366D01*
X79513910Y-57113366D01*
X79331839Y-57037950D01*
X79331829Y-57037947D01*
X79138543Y-56999500D01*
X79138541Y-56999500D01*
X78941459Y-56999500D01*
X78941457Y-56999500D01*
X78748170Y-57037947D01*
X78748160Y-57037950D01*
X78566093Y-57113364D01*
X78566082Y-57113370D01*
X78473440Y-57175271D01*
X78406762Y-57196148D01*
X78339382Y-57177663D01*
X78335659Y-57175270D01*
X78243684Y-57113814D01*
X78243671Y-57113807D01*
X78061691Y-57038429D01*
X78061683Y-57038427D01*
X78020000Y-57030135D01*
X78020000Y-58153590D01*
X77934044Y-58103963D01*
X77825952Y-58075000D01*
X77714048Y-58075000D01*
X77605956Y-58103963D01*
X77520000Y-58153590D01*
X77520000Y-57030136D01*
X77519999Y-57030135D01*
X77478316Y-57038427D01*
X77478308Y-57038429D01*
X77296325Y-57113809D01*
X77204339Y-57175271D01*
X77137661Y-57196148D01*
X77070281Y-57177663D01*
X77066559Y-57175271D01*
X77034552Y-57153885D01*
X76973914Y-57113368D01*
X76973911Y-57113366D01*
X76973910Y-57113366D01*
X76791839Y-57037950D01*
X76791829Y-57037947D01*
X76598543Y-56999500D01*
X76598541Y-56999500D01*
X76401459Y-56999500D01*
X76401457Y-56999500D01*
X76208170Y-57037947D01*
X76208160Y-57037950D01*
X76026092Y-57113364D01*
X76026079Y-57113371D01*
X75862218Y-57222860D01*
X75862214Y-57222863D01*
X75722863Y-57362214D01*
X75722860Y-57362218D01*
X75613371Y-57526079D01*
X75613364Y-57526092D01*
X75537950Y-57708160D01*
X75537947Y-57708170D01*
X75499500Y-57901456D01*
X75499500Y-57901459D01*
X75499500Y-59098541D01*
X75499500Y-59098543D01*
X75499499Y-59098543D01*
X75000500Y-59098543D01*
X75000500Y-55124500D01*
X75020185Y-55057461D01*
X75072989Y-55011706D01*
X75124500Y-55000500D01*
X131875500Y-55000500D01*
X131942539Y-55020185D01*
G37*
G04 #@! TD.AperFunction*
M02*
