G04 #@! TF.GenerationSoftware,KiCad,Pcbnew,8.0.6*
G04 #@! TF.CreationDate,2025-07-13T20:09:48+01:00*
G04 #@! TF.ProjectId,led-matrix,6c65642d-6d61-4747-9269-782e6b696361,0.3*
G04 #@! TF.SameCoordinates,Original*
G04 #@! TF.FileFunction,Copper,L2,Bot*
G04 #@! TF.FilePolarity,Positive*
%FSLAX46Y46*%
G04 Gerber Fmt 4.6, Leading zero omitted, Abs format (unit mm)*
G04 Created by KiCad (PCBNEW 8.0.6) date 2025-07-13 20:09:48*
%MOMM*%
%LPD*%
G01*
G04 APERTURE LIST*
G04 Aperture macros list*
%AMRoundRect*
0 Rectangle with rounded corners*
0 $1 Rounding radius*
0 $2 $3 $4 $5 $6 $7 $8 $9 X,Y pos of 4 corners*
0 Add a 4 corners polygon primitive as box body*
4,1,4,$2,$3,$4,$5,$6,$7,$8,$9,$2,$3,0*
0 Add four circle primitives for the rounded corners*
1,1,$1+$1,$2,$3*
1,1,$1+$1,$4,$5*
1,1,$1+$1,$6,$7*
1,1,$1+$1,$8,$9*
0 Add four rect primitives between the rounded corners*
20,1,$1+$1,$2,$3,$4,$5,0*
20,1,$1+$1,$4,$5,$6,$7,0*
20,1,$1+$1,$6,$7,$8,$9,0*
20,1,$1+$1,$8,$9,$2,$3,0*%
%AMHorizOval*
0 Thick line with rounded ends*
0 $1 width*
0 $2 $3 position (X,Y) of the first rounded end (center of the circle)*
0 $4 $5 position (X,Y) of the second rounded end (center of the circle)*
0 Add line between two ends*
20,1,$1,$2,$3,$4,$5,0*
0 Add two circle primitives to create the rounded ends*
1,1,$1,$2,$3*
1,1,$1,$4,$5*%
G04 Aperture macros list end*
G04 #@! TA.AperFunction,ComponentPad*
%ADD10O,1.000000X2.000000*%
G04 #@! TD*
G04 #@! TA.AperFunction,ComponentPad*
%ADD11HorizOval,1.000000X0.353553X0.353553X-0.353553X-0.353553X0*%
G04 #@! TD*
G04 #@! TA.AperFunction,ComponentPad*
%ADD12HorizOval,1.000000X-0.353553X0.353553X0.353553X-0.353553X0*%
G04 #@! TD*
G04 #@! TA.AperFunction,SMDPad,CuDef*
%ADD13RoundRect,0.225000X-0.225000X-0.250000X0.225000X-0.250000X0.225000X0.250000X-0.225000X0.250000X0*%
G04 #@! TD*
G04 #@! TA.AperFunction,SMDPad,CuDef*
%ADD14R,3.150000X1.000000*%
G04 #@! TD*
G04 #@! TA.AperFunction,SMDPad,CuDef*
%ADD15RoundRect,0.225000X0.225000X0.250000X-0.225000X0.250000X-0.225000X-0.250000X0.225000X-0.250000X0*%
G04 #@! TD*
G04 #@! TA.AperFunction,ViaPad*
%ADD16C,0.600000*%
G04 #@! TD*
G04 #@! TA.AperFunction,Conductor*
%ADD17C,0.381000*%
G04 #@! TD*
G04 #@! TA.AperFunction,Conductor*
%ADD18C,0.200000*%
G04 #@! TD*
G04 #@! TA.AperFunction,Conductor*
%ADD19C,0.310000*%
G04 #@! TD*
G04 APERTURE END LIST*
D10*
X90310000Y-58500000D03*
X89040000Y-58500000D03*
X87770000Y-58500000D03*
X86500000Y-58500000D03*
D11*
X99752038Y-69847038D03*
X98854013Y-68949013D03*
X97955987Y-68050987D03*
X97057962Y-67152962D03*
D10*
X120310000Y-58500000D03*
X119040000Y-58500000D03*
X117770000Y-58500000D03*
X116500000Y-58500000D03*
X120310000Y-68500000D03*
X119040000Y-68500000D03*
X117770000Y-68500000D03*
X116500000Y-68500000D03*
D12*
X109752038Y-67152962D03*
X108854013Y-68050987D03*
X107955987Y-68949013D03*
X107057962Y-69847038D03*
D10*
X80310000Y-58500000D03*
X79040000Y-58500000D03*
X77770000Y-58500000D03*
X76500000Y-58500000D03*
X130310000Y-58500000D03*
X129040000Y-58500000D03*
X127770000Y-58500000D03*
X126500000Y-58500000D03*
X130310000Y-68500000D03*
X129040000Y-68500000D03*
X127770000Y-68500000D03*
X126500000Y-68500000D03*
X80310000Y-68500000D03*
X79040000Y-68500000D03*
X77770000Y-68500000D03*
X76500000Y-68500000D03*
X90310000Y-68500000D03*
X89040000Y-68500000D03*
X87770000Y-68500000D03*
X86500000Y-68500000D03*
D12*
X99752038Y-57152962D03*
X98854013Y-58050987D03*
X97955987Y-58949013D03*
X97057962Y-59847038D03*
D11*
X109752038Y-59847038D03*
X108854013Y-58949013D03*
X107955987Y-58050987D03*
X107057962Y-57152962D03*
D13*
X127605000Y-70750000D03*
X129155000Y-70750000D03*
X77580000Y-70750000D03*
X79130000Y-70750000D03*
X127605000Y-56250000D03*
X129155000Y-56250000D03*
D14*
X100830000Y-65997189D03*
X105880000Y-65997189D03*
X100830000Y-63457189D03*
X105880000Y-63457189D03*
X100830000Y-60917189D03*
X105880000Y-60917189D03*
D13*
X87605000Y-70750000D03*
X89155000Y-70750000D03*
X109500000Y-56300000D03*
X111050000Y-56300000D03*
X77605000Y-56250000D03*
X79155000Y-56250000D03*
X87605000Y-56250000D03*
X89155000Y-56250000D03*
X117605000Y-56250000D03*
X119155000Y-56250000D03*
D15*
X96177400Y-70750000D03*
X94627400Y-70750000D03*
D13*
X109575000Y-70750000D03*
X111125000Y-70750000D03*
D15*
X96325000Y-56250000D03*
X94775000Y-56250000D03*
D13*
X117580000Y-70750000D03*
X119130000Y-70750000D03*
D16*
X101950000Y-67850000D03*
X104950000Y-67800000D03*
D17*
X117770000Y-58500000D02*
X117770000Y-56415000D01*
X100830000Y-65997189D02*
X105880000Y-65997189D01*
X104950000Y-67800000D02*
X104950000Y-66927189D01*
X117770000Y-68500000D02*
X117770000Y-70667189D01*
X87770000Y-68500000D02*
X87770000Y-70692189D01*
X77770000Y-58500000D02*
X77770000Y-56322189D01*
D18*
X117770000Y-70667189D02*
X117580000Y-70857189D01*
D17*
X101950000Y-67117189D02*
X100830000Y-65997189D01*
X127770000Y-56322189D02*
X127605000Y-56157189D01*
X87770000Y-70692189D02*
X87605000Y-70857189D01*
X127770000Y-58500000D02*
X127770000Y-56322189D01*
X109575000Y-70750000D02*
X109575000Y-70568026D01*
X107955987Y-58050987D02*
X109500000Y-56506974D01*
X117770000Y-56415000D02*
X117605000Y-56250000D01*
X96325000Y-56250000D02*
X96325000Y-57318026D01*
X96177400Y-69829574D02*
X96177400Y-70750000D01*
X77770000Y-70667189D02*
X77580000Y-70857189D01*
X104950000Y-66927189D02*
X105880000Y-65997189D01*
D19*
X109500000Y-56506974D02*
X109500000Y-56300000D01*
D17*
X127770000Y-68500000D02*
X127770000Y-70692189D01*
X97955987Y-68050987D02*
X96177400Y-69829574D01*
X96325000Y-57318026D02*
X97955987Y-58949013D01*
D18*
X127770000Y-70692189D02*
X127605000Y-70857189D01*
D17*
X77770000Y-56322189D02*
X77605000Y-56157189D01*
X87770000Y-56322189D02*
X87605000Y-56157189D01*
X101950000Y-67850000D02*
X101950000Y-67117189D01*
X109575000Y-70568026D02*
X107955987Y-68949013D01*
X77770000Y-68500000D02*
X77770000Y-70667189D01*
X87770000Y-58500000D02*
X87770000Y-56322189D01*
X105880000Y-63457189D02*
X100830000Y-63457189D01*
D18*
X80310000Y-58500000D02*
X86500000Y-58500000D01*
X76500000Y-60700000D02*
X77450000Y-61650000D01*
X99432811Y-60917189D02*
X100830000Y-60917189D01*
X77450000Y-61650000D02*
X98700000Y-61650000D01*
X98700000Y-61650000D02*
X99432811Y-60917189D01*
X76500000Y-58500000D02*
X76500000Y-60700000D01*
X95710924Y-58500000D02*
X97057962Y-59847038D01*
X90310000Y-58500000D02*
X95710924Y-58500000D01*
X99752038Y-57152962D02*
X107057962Y-57152962D01*
X116500000Y-58500000D02*
X111099076Y-58500000D01*
X111099076Y-58500000D02*
X109752038Y-59847038D01*
X120310000Y-58500000D02*
X126500000Y-58500000D01*
X111099076Y-68500000D02*
X109752038Y-67152962D01*
X116500000Y-68500000D02*
X111099076Y-68500000D01*
X120310000Y-68500000D02*
X126500000Y-68500000D01*
X80310000Y-68500000D02*
X86500000Y-68500000D01*
X130310000Y-58500000D02*
X130310000Y-58900000D01*
X76500000Y-68112189D02*
X76500000Y-68500000D01*
X95710924Y-68500000D02*
X97057962Y-67152962D01*
X90310000Y-68500000D02*
X95710924Y-68500000D01*
X99752038Y-69847038D02*
X107057962Y-69847038D01*
X130310000Y-66060000D02*
X130310000Y-68500000D01*
X105880000Y-60917189D02*
X107367189Y-60917189D01*
X108100000Y-61650000D02*
X125900000Y-61650000D01*
X107367189Y-60917189D02*
X108100000Y-61650000D01*
X125900000Y-61650000D02*
X130310000Y-66060000D01*
G04 #@! TA.AperFunction,Conductor*
G36*
X103827747Y-66707874D02*
G01*
X103859974Y-66737878D01*
X103947452Y-66854733D01*
X103947455Y-66854736D01*
X104062664Y-66940982D01*
X104062671Y-66940986D01*
X104178333Y-66984125D01*
X104234267Y-67025996D01*
X104258684Y-67091460D01*
X104259000Y-67100307D01*
X104259000Y-67359387D01*
X104239995Y-67425357D01*
X104224209Y-67450480D01*
X104164633Y-67620737D01*
X104164630Y-67620750D01*
X104144435Y-67799996D01*
X104144435Y-67800003D01*
X104164630Y-67979249D01*
X104164631Y-67979254D01*
X104224211Y-68149523D01*
X104265373Y-68215031D01*
X104320184Y-68302262D01*
X104447738Y-68429816D01*
X104538080Y-68486582D01*
X104597651Y-68524013D01*
X104600478Y-68525789D01*
X104678174Y-68552976D01*
X104770745Y-68585368D01*
X104770750Y-68585369D01*
X104949996Y-68605565D01*
X104950000Y-68605565D01*
X104950004Y-68605565D01*
X105129249Y-68585369D01*
X105129252Y-68585368D01*
X105129255Y-68585368D01*
X105299522Y-68525789D01*
X105452262Y-68429816D01*
X105579816Y-68302262D01*
X105675789Y-68149522D01*
X105735368Y-67979255D01*
X105737799Y-67957679D01*
X105755565Y-67800003D01*
X105755565Y-67799996D01*
X105735369Y-67620750D01*
X105735366Y-67620737D01*
X105675790Y-67450480D01*
X105660005Y-67425357D01*
X105641000Y-67359387D01*
X105641000Y-67264772D01*
X105660685Y-67197733D01*
X105677319Y-67177091D01*
X105820403Y-67034007D01*
X105881726Y-67000522D01*
X105908084Y-66997688D01*
X107502871Y-66997688D01*
X107502872Y-66997688D01*
X107502877Y-66997687D01*
X107502882Y-66997687D01*
X107508408Y-66997092D01*
X107521922Y-66995640D01*
X107590682Y-67008044D01*
X107641820Y-67055653D01*
X107659101Y-67123352D01*
X107638283Y-67187818D01*
X107614271Y-67223755D01*
X107614268Y-67223760D01*
X107538890Y-67405740D01*
X107538887Y-67405750D01*
X107517306Y-67514245D01*
X107484921Y-67576156D01*
X107424205Y-67610730D01*
X107419881Y-67611670D01*
X107310603Y-67633407D01*
X107310597Y-67633409D01*
X107128523Y-67708827D01*
X107128513Y-67708832D01*
X106964653Y-67818320D01*
X106964649Y-67818323D01*
X106825297Y-67957675D01*
X106825294Y-67957679D01*
X106715806Y-68121539D01*
X106715801Y-68121549D01*
X106640383Y-68303623D01*
X106640381Y-68303629D01*
X106618750Y-68412376D01*
X106586365Y-68474287D01*
X106525649Y-68508861D01*
X106521325Y-68509801D01*
X106412578Y-68531432D01*
X106412572Y-68531434D01*
X106230498Y-68606852D01*
X106230488Y-68606857D01*
X106066628Y-68716345D01*
X106066624Y-68716348D01*
X105927272Y-68855700D01*
X105927269Y-68855704D01*
X105817781Y-69019564D01*
X105817776Y-69019574D01*
X105755471Y-69169991D01*
X105711630Y-69224394D01*
X105645335Y-69246459D01*
X105640910Y-69246538D01*
X101169090Y-69246538D01*
X101102051Y-69226853D01*
X101056296Y-69174049D01*
X101054529Y-69169991D01*
X101008793Y-69059576D01*
X100992222Y-69019571D01*
X100992220Y-69019568D01*
X100992218Y-69019564D01*
X100882730Y-68855704D01*
X100882727Y-68855700D01*
X100743375Y-68716348D01*
X100743371Y-68716345D01*
X100579511Y-68606857D01*
X100579501Y-68606852D01*
X100397427Y-68531434D01*
X100397421Y-68531432D01*
X100288143Y-68509695D01*
X100226232Y-68477310D01*
X100191658Y-68416594D01*
X100190717Y-68412268D01*
X100169136Y-68303771D01*
X100169135Y-68303767D01*
X100093758Y-68121788D01*
X100070138Y-68086439D01*
X99275738Y-68880839D01*
X99250050Y-68784969D01*
X99194097Y-68688057D01*
X99114969Y-68608929D01*
X99018057Y-68552976D01*
X98922185Y-68527287D01*
X99716586Y-67732886D01*
X99681241Y-67709269D01*
X99681239Y-67709268D01*
X99499259Y-67633890D01*
X99499249Y-67633887D01*
X99390753Y-67612306D01*
X99328843Y-67579921D01*
X99294268Y-67519205D01*
X99293342Y-67514952D01*
X99271591Y-67405598D01*
X99196171Y-67223520D01*
X99196169Y-67223517D01*
X99196167Y-67223513D01*
X99174161Y-67190579D01*
X99153283Y-67123902D01*
X99171767Y-67056522D01*
X99223746Y-67009831D01*
X99277258Y-66997688D01*
X100801915Y-66997688D01*
X100868954Y-67017373D01*
X100889596Y-67034007D01*
X101205167Y-67349578D01*
X101238652Y-67410901D01*
X101233668Y-67480593D01*
X101226998Y-67494093D01*
X101227231Y-67494206D01*
X101224210Y-67500478D01*
X101164633Y-67670737D01*
X101164630Y-67670750D01*
X101144435Y-67849996D01*
X101144435Y-67850003D01*
X101164630Y-68029249D01*
X101164631Y-68029254D01*
X101224211Y-68199523D01*
X101289715Y-68303771D01*
X101320184Y-68352262D01*
X101447738Y-68479816D01*
X101538080Y-68536582D01*
X101568907Y-68555952D01*
X101600478Y-68575789D01*
X101770745Y-68635368D01*
X101770750Y-68635369D01*
X101949996Y-68655565D01*
X101950000Y-68655565D01*
X101950004Y-68655565D01*
X102129249Y-68635369D01*
X102129252Y-68635368D01*
X102129255Y-68635368D01*
X102299522Y-68575789D01*
X102452262Y-68479816D01*
X102579816Y-68352262D01*
X102675789Y-68199522D01*
X102735368Y-68029255D01*
X102739224Y-67995035D01*
X102755565Y-67850003D01*
X102755565Y-67849996D01*
X102735369Y-67670750D01*
X102735366Y-67670737D01*
X102675790Y-67500480D01*
X102660005Y-67475357D01*
X102641000Y-67409387D01*
X102641000Y-67049128D01*
X102638341Y-67035764D01*
X102644565Y-66966172D01*
X102685643Y-66912304D01*
X102762546Y-66854735D01*
X102795434Y-66810803D01*
X102850026Y-66737878D01*
X102905959Y-66696007D01*
X102949292Y-66688189D01*
X103760708Y-66688189D01*
X103827747Y-66707874D01*
G37*
G04 #@! TD.AperFunction*
G04 #@! TA.AperFunction,Conductor*
G36*
X89290000Y-59969862D02*
G01*
X89331690Y-59961569D01*
X89331692Y-59961569D01*
X89513673Y-59886191D01*
X89513676Y-59886189D01*
X89605657Y-59824729D01*
X89672334Y-59803850D01*
X89739715Y-59822334D01*
X89743440Y-59824728D01*
X89836079Y-59886628D01*
X89836092Y-59886635D01*
X90017001Y-59961569D01*
X90018165Y-59962051D01*
X90018169Y-59962051D01*
X90018170Y-59962052D01*
X90211456Y-60000500D01*
X90211459Y-60000500D01*
X90408543Y-60000500D01*
X90538582Y-59974632D01*
X90601835Y-59962051D01*
X90783914Y-59886632D01*
X90784579Y-59886188D01*
X90798052Y-59877185D01*
X90947782Y-59777139D01*
X91087139Y-59637782D01*
X91196632Y-59473914D01*
X91272051Y-59291835D01*
X91272272Y-59290727D01*
X91290257Y-59200309D01*
X91322642Y-59138398D01*
X91383357Y-59103824D01*
X91411874Y-59100500D01*
X95410827Y-59100500D01*
X95477866Y-59120185D01*
X95498508Y-59136819D01*
X95667590Y-59305901D01*
X95701075Y-59367224D01*
X95703909Y-59393582D01*
X95703909Y-59592029D01*
X95742356Y-59785313D01*
X95742358Y-59785321D01*
X95817776Y-59967395D01*
X95817781Y-59967405D01*
X95927269Y-60131265D01*
X95927272Y-60131269D01*
X96633822Y-60837819D01*
X96667307Y-60899142D01*
X96662323Y-60968834D01*
X96620451Y-61024767D01*
X96554987Y-61049184D01*
X96546141Y-61049500D01*
X77750097Y-61049500D01*
X77683058Y-61029815D01*
X77662416Y-61013181D01*
X77136819Y-60487584D01*
X77103334Y-60426261D01*
X77100500Y-60399903D01*
X77100500Y-59987933D01*
X77120185Y-59920894D01*
X77172989Y-59875139D01*
X77242147Y-59865195D01*
X77290690Y-59883797D01*
X77290711Y-59883759D01*
X77291021Y-59883924D01*
X77293396Y-59884835D01*
X77296079Y-59886627D01*
X77296086Y-59886632D01*
X77296092Y-59886635D01*
X77477001Y-59961569D01*
X77478165Y-59962051D01*
X77478169Y-59962051D01*
X77478170Y-59962052D01*
X77671456Y-60000500D01*
X77671459Y-60000500D01*
X77868543Y-60000500D01*
X77998582Y-59974632D01*
X78061835Y-59962051D01*
X78243914Y-59886632D01*
X78243919Y-59886628D01*
X78243922Y-59886627D01*
X78275997Y-59865195D01*
X78336559Y-59824728D01*
X78403234Y-59803850D01*
X78470614Y-59822334D01*
X78474341Y-59824728D01*
X78566321Y-59886188D01*
X78566328Y-59886192D01*
X78748308Y-59961569D01*
X78790000Y-59969862D01*
X78790000Y-58846409D01*
X78875956Y-58896037D01*
X78984048Y-58925000D01*
X79095952Y-58925000D01*
X79204044Y-58896037D01*
X79290000Y-58846409D01*
X79290000Y-59969862D01*
X79331690Y-59961569D01*
X79331692Y-59961569D01*
X79513673Y-59886191D01*
X79513676Y-59886189D01*
X79605657Y-59824729D01*
X79672334Y-59803850D01*
X79739715Y-59822334D01*
X79743440Y-59824728D01*
X79836079Y-59886628D01*
X79836092Y-59886635D01*
X80017001Y-59961569D01*
X80018165Y-59962051D01*
X80018169Y-59962051D01*
X80018170Y-59962052D01*
X80211456Y-60000500D01*
X80211459Y-60000500D01*
X80408543Y-60000500D01*
X80538582Y-59974632D01*
X80601835Y-59962051D01*
X80783914Y-59886632D01*
X80784579Y-59886188D01*
X80798052Y-59877185D01*
X80947782Y-59777139D01*
X81087139Y-59637782D01*
X81196632Y-59473914D01*
X81272051Y-59291835D01*
X81272272Y-59290727D01*
X81290257Y-59200309D01*
X81322642Y-59138398D01*
X81383357Y-59103824D01*
X81411874Y-59100500D01*
X85398126Y-59100500D01*
X85465165Y-59120185D01*
X85510920Y-59172989D01*
X85519743Y-59200309D01*
X85537946Y-59291827D01*
X85537949Y-59291836D01*
X85613364Y-59473907D01*
X85613371Y-59473920D01*
X85722860Y-59637781D01*
X85722863Y-59637785D01*
X85862214Y-59777136D01*
X85862218Y-59777139D01*
X86026079Y-59886628D01*
X86026092Y-59886635D01*
X86207001Y-59961569D01*
X86208165Y-59962051D01*
X86208169Y-59962051D01*
X86208170Y-59962052D01*
X86401456Y-60000500D01*
X86401459Y-60000500D01*
X86598543Y-60000500D01*
X86728582Y-59974632D01*
X86791835Y-59962051D01*
X86973914Y-59886632D01*
X87066109Y-59825029D01*
X87132786Y-59804151D01*
X87200166Y-59822635D01*
X87203891Y-59825029D01*
X87295423Y-59886189D01*
X87296086Y-59886632D01*
X87296088Y-59886633D01*
X87296092Y-59886635D01*
X87477001Y-59961569D01*
X87478165Y-59962051D01*
X87478169Y-59962051D01*
X87478170Y-59962052D01*
X87671456Y-60000500D01*
X87671459Y-60000500D01*
X87868543Y-60000500D01*
X87998582Y-59974632D01*
X88061835Y-59962051D01*
X88243914Y-59886632D01*
X88243919Y-59886628D01*
X88243922Y-59886627D01*
X88275997Y-59865195D01*
X88336559Y-59824728D01*
X88403234Y-59803850D01*
X88470614Y-59822334D01*
X88474341Y-59824728D01*
X88566321Y-59886188D01*
X88566328Y-59886192D01*
X88748308Y-59961569D01*
X88790000Y-59969862D01*
X88790000Y-58846409D01*
X88875956Y-58896037D01*
X88984048Y-58925000D01*
X89095952Y-58925000D01*
X89204044Y-58896037D01*
X89290000Y-58846409D01*
X89290000Y-59969862D01*
G37*
G04 #@! TD.AperFunction*
G04 #@! TA.AperFunction,Conductor*
G36*
X131942539Y-55020185D02*
G01*
X131988294Y-55072989D01*
X131999500Y-55124500D01*
X131999500Y-71875500D01*
X131979815Y-71942539D01*
X131927011Y-71988294D01*
X131875500Y-71999500D01*
X75124500Y-71999500D01*
X75057461Y-71979815D01*
X75011706Y-71927011D01*
X75000500Y-71875500D01*
X75000500Y-64005033D01*
X98755000Y-64005033D01*
X98761401Y-64064561D01*
X98761403Y-64064568D01*
X98811645Y-64199275D01*
X98811649Y-64199282D01*
X98897809Y-64314376D01*
X98897812Y-64314379D01*
X99012906Y-64400539D01*
X99012913Y-64400543D01*
X99147620Y-64450785D01*
X99147627Y-64450787D01*
X99207155Y-64457188D01*
X99207172Y-64457189D01*
X100580000Y-64457189D01*
X101080000Y-64457189D01*
X102452828Y-64457189D01*
X102452844Y-64457188D01*
X102512372Y-64450787D01*
X102512379Y-64450785D01*
X102647086Y-64400543D01*
X102647093Y-64400539D01*
X102762187Y-64314379D01*
X102762190Y-64314376D01*
X102848350Y-64199282D01*
X102848354Y-64199275D01*
X102898596Y-64064568D01*
X102898598Y-64064561D01*
X102904999Y-64005033D01*
X103805000Y-64005033D01*
X103811401Y-64064561D01*
X103811403Y-64064568D01*
X103861645Y-64199275D01*
X103861649Y-64199282D01*
X103947809Y-64314376D01*
X103947812Y-64314379D01*
X104062906Y-64400539D01*
X104062913Y-64400543D01*
X104197620Y-64450785D01*
X104197627Y-64450787D01*
X104257155Y-64457188D01*
X104257172Y-64457189D01*
X105630000Y-64457189D01*
X106130000Y-64457189D01*
X107502828Y-64457189D01*
X107502844Y-64457188D01*
X107562372Y-64450787D01*
X107562379Y-64450785D01*
X107697086Y-64400543D01*
X107697093Y-64400539D01*
X107812187Y-64314379D01*
X107812190Y-64314376D01*
X107898350Y-64199282D01*
X107898354Y-64199275D01*
X107948596Y-64064568D01*
X107948598Y-64064561D01*
X107954999Y-64005033D01*
X107955000Y-64005016D01*
X107955000Y-63707189D01*
X106130000Y-63707189D01*
X106130000Y-64457189D01*
X105630000Y-64457189D01*
X105630000Y-63707189D01*
X103805000Y-63707189D01*
X103805000Y-64005033D01*
X102904999Y-64005033D01*
X102905000Y-64005016D01*
X102905000Y-63707189D01*
X101080000Y-63707189D01*
X101080000Y-64457189D01*
X100580000Y-64457189D01*
X100580000Y-63707189D01*
X98755000Y-63707189D01*
X98755000Y-64005033D01*
X75000500Y-64005033D01*
X75000500Y-62909344D01*
X98755000Y-62909344D01*
X98755000Y-63207189D01*
X100580000Y-63207189D01*
X101080000Y-63207189D01*
X102905000Y-63207189D01*
X102905000Y-62909361D01*
X102904999Y-62909344D01*
X103805000Y-62909344D01*
X103805000Y-63207189D01*
X105630000Y-63207189D01*
X106130000Y-63207189D01*
X107955000Y-63207189D01*
X107955000Y-62909361D01*
X107954999Y-62909344D01*
X107948598Y-62849816D01*
X107948596Y-62849809D01*
X107898354Y-62715102D01*
X107898350Y-62715095D01*
X107812190Y-62600001D01*
X107812187Y-62599998D01*
X107697093Y-62513838D01*
X107697086Y-62513834D01*
X107562379Y-62463592D01*
X107562372Y-62463590D01*
X107502844Y-62457189D01*
X106130000Y-62457189D01*
X106130000Y-63207189D01*
X105630000Y-63207189D01*
X105630000Y-62457189D01*
X104257155Y-62457189D01*
X104197627Y-62463590D01*
X104197620Y-62463592D01*
X104062913Y-62513834D01*
X104062906Y-62513838D01*
X103947812Y-62599998D01*
X103947809Y-62600001D01*
X103861649Y-62715095D01*
X103861645Y-62715102D01*
X103811403Y-62849809D01*
X103811401Y-62849816D01*
X103805000Y-62909344D01*
X102904999Y-62909344D01*
X102898598Y-62849816D01*
X102898596Y-62849809D01*
X102848354Y-62715102D01*
X102848350Y-62715095D01*
X102762190Y-62600001D01*
X102762187Y-62599998D01*
X102647093Y-62513838D01*
X102647086Y-62513834D01*
X102512379Y-62463592D01*
X102512372Y-62463590D01*
X102452844Y-62457189D01*
X101080000Y-62457189D01*
X101080000Y-63207189D01*
X100580000Y-63207189D01*
X100580000Y-62457189D01*
X99207155Y-62457189D01*
X99147627Y-62463590D01*
X99147620Y-62463592D01*
X99012913Y-62513834D01*
X99012906Y-62513838D01*
X98897812Y-62599998D01*
X98897809Y-62600001D01*
X98811649Y-62715095D01*
X98811645Y-62715102D01*
X98761403Y-62849809D01*
X98761401Y-62849816D01*
X98755000Y-62909344D01*
X75000500Y-62909344D01*
X75000500Y-59098543D01*
X75499499Y-59098543D01*
X75537947Y-59291829D01*
X75537950Y-59291839D01*
X75613364Y-59473907D01*
X75613371Y-59473920D01*
X75722860Y-59637781D01*
X75722863Y-59637785D01*
X75863181Y-59778103D01*
X75896666Y-59839426D01*
X75899500Y-59865784D01*
X75899500Y-60613330D01*
X75899499Y-60613348D01*
X75899499Y-60779054D01*
X75899498Y-60779054D01*
X75899499Y-60779057D01*
X75934010Y-60907853D01*
X75940423Y-60931784D01*
X75940423Y-60931785D01*
X75966950Y-60977731D01*
X76019477Y-61068712D01*
X76019481Y-61068717D01*
X76138349Y-61187585D01*
X76138355Y-61187590D01*
X76965139Y-62014374D01*
X76965149Y-62014385D01*
X76969479Y-62018715D01*
X76969480Y-62018716D01*
X77081284Y-62130520D01*
X77168095Y-62180639D01*
X77168097Y-62180641D01*
X77206151Y-62202611D01*
X77218215Y-62209577D01*
X77370943Y-62250501D01*
X77370946Y-62250501D01*
X77536653Y-62250501D01*
X77536669Y-62250500D01*
X98613331Y-62250500D01*
X98613347Y-62250501D01*
X98620943Y-62250501D01*
X98779054Y-62250501D01*
X98779057Y-62250501D01*
X98931785Y-62209577D01*
X98981904Y-62180639D01*
X99068716Y-62130520D01*
X99180520Y-62018716D01*
X99180520Y-62018714D01*
X99190728Y-62008507D01*
X99190730Y-62008503D01*
X99245228Y-61954006D01*
X99306551Y-61920522D01*
X99332908Y-61917688D01*
X102452871Y-61917688D01*
X102452872Y-61917688D01*
X102512483Y-61911280D01*
X102647331Y-61860985D01*
X102762546Y-61774735D01*
X102848796Y-61659520D01*
X102899091Y-61524672D01*
X102905500Y-61465062D01*
X102905499Y-60369317D01*
X102899091Y-60309706D01*
X102872098Y-60237335D01*
X102848797Y-60174860D01*
X102848793Y-60174853D01*
X102762547Y-60059644D01*
X102762544Y-60059641D01*
X102647335Y-59973395D01*
X102647328Y-59973391D01*
X102512482Y-59923097D01*
X102512483Y-59923097D01*
X102452883Y-59916690D01*
X102452881Y-59916689D01*
X102452873Y-59916689D01*
X102452865Y-59916689D01*
X99323673Y-59916689D01*
X99256634Y-59897004D01*
X99210879Y-59844200D01*
X99200935Y-59775042D01*
X99209109Y-59745243D01*
X99271591Y-59594402D01*
X99293329Y-59485115D01*
X99325712Y-59423209D01*
X99386427Y-59388634D01*
X99390754Y-59387693D01*
X99499246Y-59366112D01*
X99499258Y-59366109D01*
X99681242Y-59290730D01*
X99681246Y-59290727D01*
X99716585Y-59267113D01*
X99716586Y-59267112D01*
X98922185Y-58472712D01*
X99018057Y-58447024D01*
X99114969Y-58391071D01*
X99194097Y-58311943D01*
X99250050Y-58215031D01*
X99275738Y-58119159D01*
X100070138Y-58913560D01*
X100070139Y-58913559D01*
X100093753Y-58878220D01*
X100093756Y-58878216D01*
X100169135Y-58696232D01*
X100169136Y-58696229D01*
X100190717Y-58587730D01*
X100223102Y-58525819D01*
X100283817Y-58491244D01*
X100288061Y-58490320D01*
X100397427Y-58468566D01*
X100579505Y-58393146D01*
X100743372Y-58283654D01*
X100882730Y-58144296D01*
X100992222Y-57980429D01*
X101054529Y-57830009D01*
X101098370Y-57775606D01*
X101164665Y-57753541D01*
X101169090Y-57753462D01*
X105640910Y-57753462D01*
X105707949Y-57773147D01*
X105753704Y-57825951D01*
X105755471Y-57830009D01*
X105817776Y-57980425D01*
X105817781Y-57980435D01*
X105927269Y-58144295D01*
X105927272Y-58144299D01*
X106066624Y-58283651D01*
X106066628Y-58283654D01*
X106230488Y-58393142D01*
X106230492Y-58393144D01*
X106230495Y-58393146D01*
X106412573Y-58468566D01*
X106510289Y-58488003D01*
X106521324Y-58490198D01*
X106583235Y-58522582D01*
X106617809Y-58583298D01*
X106618750Y-58587623D01*
X106640381Y-58696370D01*
X106640383Y-58696376D01*
X106715801Y-58878450D01*
X106715806Y-58878460D01*
X106825294Y-59042320D01*
X106825297Y-59042324D01*
X106964649Y-59181676D01*
X106964653Y-59181679D01*
X107128513Y-59291167D01*
X107128517Y-59291169D01*
X107128520Y-59291171D01*
X107310598Y-59366591D01*
X107419883Y-59388329D01*
X107481790Y-59420712D01*
X107516365Y-59481427D01*
X107517306Y-59485753D01*
X107538887Y-59594249D01*
X107538890Y-59594259D01*
X107601427Y-59745237D01*
X107608896Y-59814706D01*
X107577621Y-59877185D01*
X107517532Y-59912837D01*
X107486866Y-59916689D01*
X104257129Y-59916689D01*
X104257123Y-59916690D01*
X104197516Y-59923097D01*
X104062671Y-59973391D01*
X104062664Y-59973395D01*
X103947455Y-60059641D01*
X103947452Y-60059644D01*
X103861206Y-60174853D01*
X103861202Y-60174860D01*
X103810908Y-60309706D01*
X103805799Y-60357233D01*
X103804501Y-60369312D01*
X103804500Y-60369324D01*
X103804500Y-61465059D01*
X103804501Y-61465065D01*
X103810908Y-61524672D01*
X103861202Y-61659517D01*
X103861206Y-61659524D01*
X103947452Y-61774733D01*
X103947455Y-61774736D01*
X104062664Y-61860982D01*
X104062671Y-61860986D01*
X104197517Y-61911280D01*
X104197516Y-61911280D01*
X104204444Y-61912024D01*
X104257127Y-61917689D01*
X107467091Y-61917688D01*
X107534130Y-61937373D01*
X107554772Y-61954007D01*
X107615139Y-62014374D01*
X107615149Y-62014385D01*
X107619479Y-62018715D01*
X107619480Y-62018716D01*
X107731284Y-62130520D01*
X107818095Y-62180639D01*
X107818097Y-62180641D01*
X107868213Y-62209576D01*
X107868215Y-62209577D01*
X108020942Y-62250500D01*
X108020943Y-62250500D01*
X125599903Y-62250500D01*
X125666942Y-62270185D01*
X125687584Y-62286819D01*
X129673181Y-66272416D01*
X129706666Y-66333739D01*
X129709500Y-66360097D01*
X129709500Y-67012666D01*
X129689815Y-67079705D01*
X129637011Y-67125460D01*
X129567853Y-67135404D01*
X129516616Y-67115773D01*
X129513685Y-67113815D01*
X129513671Y-67113807D01*
X129331691Y-67038429D01*
X129331683Y-67038427D01*
X129290000Y-67030135D01*
X129290000Y-68153590D01*
X129204044Y-68103963D01*
X129095952Y-68075000D01*
X128984048Y-68075000D01*
X128875956Y-68103963D01*
X128790000Y-68153590D01*
X128790000Y-67030136D01*
X128789999Y-67030135D01*
X128748316Y-67038427D01*
X128748308Y-67038429D01*
X128566325Y-67113809D01*
X128474339Y-67175271D01*
X128407661Y-67196148D01*
X128340281Y-67177663D01*
X128336559Y-67175271D01*
X128275115Y-67134216D01*
X128243914Y-67113368D01*
X128243911Y-67113366D01*
X128243910Y-67113366D01*
X128061839Y-67037950D01*
X128061829Y-67037947D01*
X127868543Y-66999500D01*
X127868541Y-66999500D01*
X127671459Y-66999500D01*
X127671457Y-66999500D01*
X127478170Y-67037947D01*
X127478160Y-67037950D01*
X127296089Y-67113366D01*
X127203890Y-67174971D01*
X127137213Y-67195848D01*
X127069833Y-67177363D01*
X127066110Y-67174971D01*
X127005115Y-67134216D01*
X126973914Y-67113368D01*
X126973911Y-67113366D01*
X126973910Y-67113366D01*
X126791839Y-67037950D01*
X126791829Y-67037947D01*
X126598543Y-66999500D01*
X126598541Y-66999500D01*
X126401459Y-66999500D01*
X126401457Y-66999500D01*
X126208170Y-67037947D01*
X126208160Y-67037950D01*
X126026092Y-67113364D01*
X126026079Y-67113371D01*
X125862218Y-67222860D01*
X125862214Y-67222863D01*
X125722863Y-67362214D01*
X125722860Y-67362218D01*
X125613371Y-67526079D01*
X125613364Y-67526092D01*
X125537949Y-67708163D01*
X125537946Y-67708172D01*
X125519743Y-67799691D01*
X125487358Y-67861602D01*
X125426643Y-67896176D01*
X125398126Y-67899500D01*
X121411874Y-67899500D01*
X121344835Y-67879815D01*
X121299080Y-67827011D01*
X121290257Y-67799691D01*
X121272053Y-67708172D01*
X121272050Y-67708163D01*
X121196635Y-67526092D01*
X121196628Y-67526079D01*
X121087139Y-67362218D01*
X121087136Y-67362214D01*
X120947785Y-67222863D01*
X120947781Y-67222860D01*
X120783920Y-67113371D01*
X120783907Y-67113364D01*
X120601839Y-67037950D01*
X120601829Y-67037947D01*
X120408543Y-66999500D01*
X120408541Y-66999500D01*
X120211459Y-66999500D01*
X120211457Y-66999500D01*
X120018170Y-67037947D01*
X120018160Y-67037950D01*
X119836093Y-67113364D01*
X119836082Y-67113370D01*
X119743440Y-67175271D01*
X119676762Y-67196148D01*
X119609382Y-67177663D01*
X119605659Y-67175270D01*
X119513684Y-67113814D01*
X119513671Y-67113807D01*
X119331691Y-67038429D01*
X119331683Y-67038427D01*
X119290000Y-67030135D01*
X119290000Y-68153590D01*
X119204044Y-68103963D01*
X119095952Y-68075000D01*
X118984048Y-68075000D01*
X118875956Y-68103963D01*
X118790000Y-68153590D01*
X118790000Y-67030136D01*
X118789999Y-67030135D01*
X118748316Y-67038427D01*
X118748308Y-67038429D01*
X118566325Y-67113809D01*
X118474339Y-67175271D01*
X118407661Y-67196148D01*
X118340281Y-67177663D01*
X118336559Y-67175271D01*
X118275115Y-67134216D01*
X118243914Y-67113368D01*
X118243911Y-67113366D01*
X118243910Y-67113366D01*
X118061839Y-67037950D01*
X118061829Y-67037947D01*
X117868543Y-66999500D01*
X117868541Y-66999500D01*
X117671459Y-66999500D01*
X117671457Y-66999500D01*
X117478170Y-67037947D01*
X117478160Y-67037950D01*
X117296089Y-67113366D01*
X117203890Y-67174971D01*
X117137213Y-67195848D01*
X117069833Y-67177363D01*
X117066110Y-67174971D01*
X117005115Y-67134216D01*
X116973914Y-67113368D01*
X116973911Y-67113366D01*
X116973910Y-67113366D01*
X116791839Y-67037950D01*
X116791829Y-67037947D01*
X116598543Y-66999500D01*
X116598541Y-66999500D01*
X116401459Y-66999500D01*
X116401457Y-66999500D01*
X116208170Y-67037947D01*
X116208160Y-67037950D01*
X116026092Y-67113364D01*
X116026079Y-67113371D01*
X115862218Y-67222860D01*
X115862214Y-67222863D01*
X115722863Y-67362214D01*
X115722860Y-67362218D01*
X115613371Y-67526079D01*
X115613364Y-67526092D01*
X115537949Y-67708163D01*
X115537946Y-67708172D01*
X115519743Y-67799691D01*
X115487358Y-67861602D01*
X115426643Y-67896176D01*
X115398126Y-67899500D01*
X111399173Y-67899500D01*
X111332134Y-67879815D01*
X111311492Y-67863181D01*
X111142410Y-67694099D01*
X111108925Y-67632776D01*
X111106091Y-67606418D01*
X111106091Y-67407972D01*
X111106090Y-67407970D01*
X111096989Y-67362218D01*
X111067642Y-67214679D01*
X110992222Y-67032601D01*
X110992220Y-67032598D01*
X110992218Y-67032594D01*
X110882730Y-66868734D01*
X110882727Y-66868730D01*
X110036269Y-66022272D01*
X110036265Y-66022269D01*
X109872405Y-65912781D01*
X109872395Y-65912776D01*
X109690321Y-65837358D01*
X109690313Y-65837356D01*
X109497028Y-65798909D01*
X109497025Y-65798909D01*
X109299945Y-65798909D01*
X109299942Y-65798909D01*
X109106656Y-65837356D01*
X109106648Y-65837358D01*
X108924574Y-65912776D01*
X108924564Y-65912781D01*
X108760704Y-66022269D01*
X108760700Y-66022272D01*
X108621348Y-66161624D01*
X108621345Y-66161628D01*
X108511857Y-66325488D01*
X108511852Y-66325498D01*
X108436434Y-66507572D01*
X108436432Y-66507580D01*
X108414696Y-66616854D01*
X108382311Y-66678765D01*
X108321595Y-66713339D01*
X108317271Y-66714280D01*
X108208776Y-66735861D01*
X108208775Y-66735862D01*
X108106955Y-66778036D01*
X108037485Y-66785504D01*
X107975006Y-66754228D01*
X107939354Y-66694139D01*
X107941849Y-66624314D01*
X107943312Y-66620165D01*
X107949091Y-66604672D01*
X107955500Y-66545062D01*
X107955499Y-65449317D01*
X107949091Y-65389706D01*
X107917941Y-65306189D01*
X107898797Y-65254860D01*
X107898793Y-65254853D01*
X107812547Y-65139644D01*
X107812544Y-65139641D01*
X107697335Y-65053395D01*
X107697328Y-65053391D01*
X107562482Y-65003097D01*
X107562483Y-65003097D01*
X107502883Y-64996690D01*
X107502881Y-64996689D01*
X107502873Y-64996689D01*
X107502864Y-64996689D01*
X104257129Y-64996689D01*
X104257123Y-64996690D01*
X104197516Y-65003097D01*
X104062671Y-65053391D01*
X104062664Y-65053395D01*
X103947455Y-65139641D01*
X103947452Y-65139644D01*
X103859974Y-65256500D01*
X103804041Y-65298371D01*
X103760708Y-65306189D01*
X102949292Y-65306189D01*
X102882253Y-65286504D01*
X102850026Y-65256500D01*
X102762547Y-65139644D01*
X102762544Y-65139641D01*
X102647335Y-65053395D01*
X102647328Y-65053391D01*
X102512482Y-65003097D01*
X102512483Y-65003097D01*
X102452883Y-64996690D01*
X102452881Y-64996689D01*
X102452873Y-64996689D01*
X102452864Y-64996689D01*
X99207129Y-64996689D01*
X99207123Y-64996690D01*
X99147516Y-65003097D01*
X99012671Y-65053391D01*
X99012664Y-65053395D01*
X98897455Y-65139641D01*
X98897452Y-65139644D01*
X98811206Y-65254853D01*
X98811202Y-65254860D01*
X98760908Y-65389706D01*
X98754501Y-65449305D01*
X98754501Y-65449312D01*
X98754500Y-65449324D01*
X98754500Y-66545059D01*
X98754501Y-66545068D01*
X98760783Y-66603507D01*
X98748376Y-66672266D01*
X98700764Y-66723402D01*
X98633064Y-66740680D01*
X98607383Y-66736401D01*
X98607350Y-66736571D01*
X98601912Y-66735489D01*
X98601502Y-66735421D01*
X98601374Y-66735382D01*
X98492623Y-66713750D01*
X98430712Y-66681365D01*
X98396138Y-66620649D01*
X98395198Y-66616324D01*
X98373567Y-66507580D01*
X98373566Y-66507573D01*
X98298146Y-66325495D01*
X98298144Y-66325492D01*
X98298142Y-66325488D01*
X98188654Y-66161628D01*
X98188651Y-66161624D01*
X98049299Y-66022272D01*
X98049295Y-66022269D01*
X97885435Y-65912781D01*
X97885425Y-65912776D01*
X97703351Y-65837358D01*
X97703343Y-65837356D01*
X97510058Y-65798909D01*
X97510055Y-65798909D01*
X97312975Y-65798909D01*
X97312972Y-65798909D01*
X97119686Y-65837356D01*
X97119678Y-65837358D01*
X96937604Y-65912776D01*
X96937594Y-65912781D01*
X96773734Y-66022269D01*
X96773730Y-66022272D01*
X95927272Y-66868730D01*
X95927269Y-66868734D01*
X95817781Y-67032594D01*
X95817776Y-67032604D01*
X95742358Y-67214678D01*
X95742356Y-67214686D01*
X95703909Y-67407970D01*
X95703909Y-67606417D01*
X95684224Y-67673456D01*
X95667594Y-67694093D01*
X95498506Y-67863182D01*
X95437185Y-67896666D01*
X95410827Y-67899500D01*
X91411874Y-67899500D01*
X91344835Y-67879815D01*
X91299080Y-67827011D01*
X91290257Y-67799691D01*
X91272053Y-67708172D01*
X91272050Y-67708163D01*
X91196635Y-67526092D01*
X91196628Y-67526079D01*
X91087139Y-67362218D01*
X91087136Y-67362214D01*
X90947785Y-67222863D01*
X90947781Y-67222860D01*
X90783920Y-67113371D01*
X90783907Y-67113364D01*
X90601839Y-67037950D01*
X90601829Y-67037947D01*
X90408543Y-66999500D01*
X90408541Y-66999500D01*
X90211459Y-66999500D01*
X90211457Y-66999500D01*
X90018170Y-67037947D01*
X90018160Y-67037950D01*
X89836093Y-67113364D01*
X89836082Y-67113370D01*
X89743440Y-67175271D01*
X89676762Y-67196148D01*
X89609382Y-67177663D01*
X89605659Y-67175270D01*
X89513684Y-67113814D01*
X89513671Y-67113807D01*
X89331691Y-67038429D01*
X89331683Y-67038427D01*
X89290000Y-67030135D01*
X89290000Y-68153590D01*
X89204044Y-68103963D01*
X89095952Y-68075000D01*
X88984048Y-68075000D01*
X88875956Y-68103963D01*
X88790000Y-68153590D01*
X88790000Y-67030136D01*
X88789999Y-67030135D01*
X88748316Y-67038427D01*
X88748308Y-67038429D01*
X88566325Y-67113809D01*
X88474339Y-67175271D01*
X88407661Y-67196148D01*
X88340281Y-67177663D01*
X88336559Y-67175271D01*
X88275115Y-67134216D01*
X88243914Y-67113368D01*
X88243911Y-67113366D01*
X88243910Y-67113366D01*
X88061839Y-67037950D01*
X88061829Y-67037947D01*
X87868543Y-66999500D01*
X87868541Y-66999500D01*
X87671459Y-66999500D01*
X87671457Y-66999500D01*
X87478170Y-67037947D01*
X87478160Y-67037950D01*
X87296089Y-67113366D01*
X87203890Y-67174971D01*
X87137213Y-67195848D01*
X87069833Y-67177363D01*
X87066110Y-67174971D01*
X87005115Y-67134216D01*
X86973914Y-67113368D01*
X86973911Y-67113366D01*
X86973910Y-67113366D01*
X86791839Y-67037950D01*
X86791829Y-67037947D01*
X86598543Y-66999500D01*
X86598541Y-66999500D01*
X86401459Y-66999500D01*
X86401457Y-66999500D01*
X86208170Y-67037947D01*
X86208160Y-67037950D01*
X86026092Y-67113364D01*
X86026079Y-67113371D01*
X85862218Y-67222860D01*
X85862214Y-67222863D01*
X85722863Y-67362214D01*
X85722860Y-67362218D01*
X85613371Y-67526079D01*
X85613364Y-67526092D01*
X85537949Y-67708163D01*
X85537946Y-67708172D01*
X85519743Y-67799691D01*
X85487358Y-67861602D01*
X85426643Y-67896176D01*
X85398126Y-67899500D01*
X81411874Y-67899500D01*
X81344835Y-67879815D01*
X81299080Y-67827011D01*
X81290257Y-67799691D01*
X81272053Y-67708172D01*
X81272050Y-67708163D01*
X81196635Y-67526092D01*
X81196628Y-67526079D01*
X81087139Y-67362218D01*
X81087136Y-67362214D01*
X80947785Y-67222863D01*
X80947781Y-67222860D01*
X80783920Y-67113371D01*
X80783907Y-67113364D01*
X80601839Y-67037950D01*
X80601829Y-67037947D01*
X80408543Y-66999500D01*
X80408541Y-66999500D01*
X80211459Y-66999500D01*
X80211457Y-66999500D01*
X80018170Y-67037947D01*
X80018160Y-67037950D01*
X79836093Y-67113364D01*
X79836082Y-67113370D01*
X79743440Y-67175271D01*
X79676762Y-67196148D01*
X79609382Y-67177663D01*
X79605659Y-67175270D01*
X79513684Y-67113814D01*
X79513671Y-67113807D01*
X79331691Y-67038429D01*
X79331683Y-67038427D01*
X79290000Y-67030135D01*
X79290000Y-68153590D01*
X79204044Y-68103963D01*
X79095952Y-68075000D01*
X78984048Y-68075000D01*
X78875956Y-68103963D01*
X78790000Y-68153590D01*
X78790000Y-67030136D01*
X78789999Y-67030135D01*
X78748316Y-67038427D01*
X78748308Y-67038429D01*
X78566325Y-67113809D01*
X78474339Y-67175271D01*
X78407661Y-67196148D01*
X78340281Y-67177663D01*
X78336559Y-67175271D01*
X78275115Y-67134216D01*
X78243914Y-67113368D01*
X78243911Y-67113366D01*
X78243910Y-67113366D01*
X78061839Y-67037950D01*
X78061829Y-67037947D01*
X77868543Y-66999500D01*
X77868541Y-66999500D01*
X77671459Y-66999500D01*
X77671457Y-66999500D01*
X77478170Y-67037947D01*
X77478160Y-67037950D01*
X77296089Y-67113366D01*
X77203890Y-67174971D01*
X77137213Y-67195848D01*
X77069833Y-67177363D01*
X77066110Y-67174971D01*
X77005115Y-67134216D01*
X76973914Y-67113368D01*
X76973911Y-67113366D01*
X76973910Y-67113366D01*
X76791839Y-67037950D01*
X76791829Y-67037947D01*
X76598543Y-66999500D01*
X76598541Y-66999500D01*
X76401459Y-66999500D01*
X76401457Y-66999500D01*
X76208170Y-67037947D01*
X76208160Y-67037950D01*
X76026092Y-67113364D01*
X76026079Y-67113371D01*
X75862218Y-67222860D01*
X75862214Y-67222863D01*
X75722863Y-67362214D01*
X75722860Y-67362218D01*
X75613371Y-67526079D01*
X75613364Y-67526092D01*
X75537950Y-67708160D01*
X75537947Y-67708170D01*
X75499500Y-67901456D01*
X75499500Y-67901459D01*
X75499500Y-69098541D01*
X75499500Y-69098543D01*
X75499499Y-69098543D01*
X75537947Y-69291829D01*
X75537950Y-69291839D01*
X75613364Y-69473907D01*
X75613371Y-69473920D01*
X75722860Y-69637781D01*
X75722863Y-69637785D01*
X75862214Y-69777136D01*
X75862218Y-69777139D01*
X76026079Y-69886628D01*
X76026092Y-69886635D01*
X76188832Y-69954043D01*
X76208165Y-69962051D01*
X76208169Y-69962051D01*
X76208170Y-69962052D01*
X76401456Y-70000500D01*
X76588511Y-70000500D01*
X76655550Y-70020185D01*
X76701305Y-70072989D01*
X76711249Y-70142147D01*
X76695839Y-70184656D01*
X76696051Y-70184755D01*
X76694940Y-70187135D01*
X76694048Y-70189599D01*
X76693000Y-70191296D01*
X76692996Y-70191305D01*
X76639651Y-70352290D01*
X76629500Y-70451647D01*
X76629500Y-71048337D01*
X76629501Y-71048355D01*
X76639650Y-71147707D01*
X76639651Y-71147710D01*
X76692996Y-71308694D01*
X76693001Y-71308705D01*
X76782029Y-71453040D01*
X76782032Y-71453044D01*
X76901955Y-71572967D01*
X76901959Y-71572970D01*
X77046294Y-71661998D01*
X77046297Y-71661999D01*
X77046303Y-71662003D01*
X77207292Y-71715349D01*
X77306655Y-71725500D01*
X77853344Y-71725499D01*
X77853352Y-71725498D01*
X77853355Y-71725498D01*
X77907760Y-71719940D01*
X77952708Y-71715349D01*
X78113697Y-71662003D01*
X78258044Y-71572968D01*
X78267668Y-71563343D01*
X78328987Y-71529856D01*
X78398679Y-71534835D01*
X78443034Y-71563339D01*
X78452267Y-71572572D01*
X78452271Y-71572575D01*
X78596507Y-71661542D01*
X78596518Y-71661547D01*
X78757393Y-71714855D01*
X78856683Y-71724999D01*
X79380000Y-71724999D01*
X79403308Y-71724999D01*
X79403322Y-71724998D01*
X79502607Y-71714855D01*
X79663481Y-71661547D01*
X79663492Y-71661542D01*
X79807728Y-71572575D01*
X79807732Y-71572572D01*
X79927572Y-71452732D01*
X79927575Y-71452728D01*
X80016542Y-71308492D01*
X80016547Y-71308481D01*
X80069855Y-71147606D01*
X80079999Y-71048322D01*
X80080000Y-71048309D01*
X80080000Y-71000000D01*
X79380000Y-71000000D01*
X79380000Y-71724999D01*
X78856683Y-71724999D01*
X78880000Y-71724998D01*
X78880000Y-70043000D01*
X78865866Y-70028866D01*
X78846961Y-70023315D01*
X78801206Y-69970511D01*
X78790000Y-69919000D01*
X78790000Y-68846409D01*
X78875956Y-68896037D01*
X78984048Y-68925000D01*
X79095952Y-68925000D01*
X79204044Y-68896037D01*
X79290000Y-68846409D01*
X79290000Y-69732000D01*
X79304133Y-69746133D01*
X79323039Y-69751685D01*
X79368794Y-69804489D01*
X79380000Y-69856000D01*
X79380000Y-70500000D01*
X80079999Y-70500000D01*
X80079999Y-70451692D01*
X80079998Y-70451677D01*
X80069855Y-70352392D01*
X80016547Y-70191518D01*
X80016544Y-70191512D01*
X80004407Y-70171835D01*
X79985966Y-70104443D01*
X80006887Y-70037779D01*
X80060529Y-69993009D01*
X80129859Y-69984347D01*
X80134136Y-69985120D01*
X80211454Y-70000499D01*
X80211457Y-70000500D01*
X80211459Y-70000500D01*
X80408543Y-70000500D01*
X80561139Y-69970146D01*
X80601835Y-69962051D01*
X80783914Y-69886632D01*
X80947782Y-69777139D01*
X81087139Y-69637782D01*
X81196632Y-69473914D01*
X81272051Y-69291835D01*
X81272272Y-69290727D01*
X81290257Y-69200309D01*
X81322642Y-69138398D01*
X81383357Y-69103824D01*
X81411874Y-69100500D01*
X85398126Y-69100500D01*
X85465165Y-69120185D01*
X85510920Y-69172989D01*
X85519743Y-69200309D01*
X85537946Y-69291827D01*
X85537949Y-69291836D01*
X85613364Y-69473907D01*
X85613371Y-69473920D01*
X85722860Y-69637781D01*
X85722863Y-69637785D01*
X85862214Y-69777136D01*
X85862218Y-69777139D01*
X86026079Y-69886628D01*
X86026092Y-69886635D01*
X86188832Y-69954043D01*
X86208165Y-69962051D01*
X86208169Y-69962051D01*
X86208170Y-69962052D01*
X86401456Y-70000500D01*
X86401459Y-70000500D01*
X86598537Y-70000500D01*
X86598541Y-70000500D01*
X86598544Y-70000499D01*
X86601928Y-70000166D01*
X86603689Y-70000500D01*
X86604633Y-70000500D01*
X86604633Y-70000678D01*
X86670574Y-70013184D01*
X86721285Y-70061248D01*
X86737961Y-70129099D01*
X86720856Y-70184664D01*
X86721051Y-70184755D01*
X86720398Y-70186155D01*
X86719628Y-70188657D01*
X86718002Y-70191292D01*
X86717996Y-70191305D01*
X86664651Y-70352290D01*
X86654500Y-70451647D01*
X86654500Y-71048337D01*
X86654501Y-71048355D01*
X86664650Y-71147707D01*
X86664651Y-71147710D01*
X86717996Y-71308694D01*
X86718001Y-71308705D01*
X86807029Y-71453040D01*
X86807032Y-71453044D01*
X86926955Y-71572967D01*
X86926959Y-71572970D01*
X87071294Y-71661998D01*
X87071297Y-71661999D01*
X87071303Y-71662003D01*
X87232292Y-71715349D01*
X87331655Y-71725500D01*
X87878344Y-71725499D01*
X87878352Y-71725498D01*
X87878355Y-71725498D01*
X87932760Y-71719940D01*
X87977708Y-71715349D01*
X88138697Y-71662003D01*
X88283044Y-71572968D01*
X88292668Y-71563343D01*
X88353987Y-71529856D01*
X88423679Y-71534835D01*
X88468034Y-71563339D01*
X88477267Y-71572572D01*
X88477271Y-71572575D01*
X88621507Y-71661542D01*
X88621518Y-71661547D01*
X88782393Y-71714855D01*
X88881683Y-71724999D01*
X89405000Y-71724999D01*
X89428308Y-71724999D01*
X89428322Y-71724998D01*
X89527607Y-71714855D01*
X89688481Y-71661547D01*
X89688492Y-71661542D01*
X89832728Y-71572575D01*
X89832732Y-71572572D01*
X89952572Y-71452732D01*
X89952575Y-71452728D01*
X90041542Y-71308492D01*
X90041547Y-71308481D01*
X90094855Y-71147606D01*
X90104999Y-71048322D01*
X93677401Y-71048322D01*
X93687544Y-71147607D01*
X93740852Y-71308481D01*
X93740857Y-71308492D01*
X93829824Y-71452728D01*
X93829827Y-71452732D01*
X93949667Y-71572572D01*
X93949671Y-71572575D01*
X94093907Y-71661542D01*
X94093918Y-71661547D01*
X94254793Y-71714855D01*
X94354083Y-71724999D01*
X94377400Y-71724998D01*
X94377400Y-71000000D01*
X93677401Y-71000000D01*
X93677401Y-71048322D01*
X90104999Y-71048322D01*
X90105000Y-71048309D01*
X90105000Y-71000000D01*
X89405000Y-71000000D01*
X89405000Y-71724999D01*
X88881683Y-71724999D01*
X88905000Y-71724998D01*
X88905000Y-70043000D01*
X88901258Y-70039258D01*
X88846961Y-70023315D01*
X88801206Y-69970511D01*
X88790000Y-69919000D01*
X88790000Y-68846409D01*
X88875956Y-68896037D01*
X88984048Y-68925000D01*
X89095952Y-68925000D01*
X89204044Y-68896037D01*
X89290000Y-68846409D01*
X89290000Y-69732000D01*
X89293741Y-69735741D01*
X89348039Y-69751685D01*
X89393794Y-69804489D01*
X89405000Y-69856000D01*
X89405000Y-70500000D01*
X90104999Y-70500000D01*
X90104999Y-70451692D01*
X90104998Y-70451677D01*
X93677400Y-70451677D01*
X93677400Y-70500000D01*
X94377400Y-70500000D01*
X94377400Y-69774999D01*
X94354093Y-69775000D01*
X94354074Y-69775001D01*
X94254792Y-69785144D01*
X94093918Y-69838452D01*
X94093907Y-69838457D01*
X93949671Y-69927424D01*
X93949667Y-69927427D01*
X93829827Y-70047267D01*
X93829824Y-70047271D01*
X93740857Y-70191507D01*
X93740852Y-70191518D01*
X93687544Y-70352393D01*
X93677400Y-70451677D01*
X90104998Y-70451677D01*
X90094855Y-70352392D01*
X90041547Y-70191518D01*
X90041543Y-70191509D01*
X90032904Y-70177504D01*
X90014462Y-70110112D01*
X90035383Y-70043448D01*
X90089024Y-69998677D01*
X90158355Y-69990014D01*
X90162633Y-69990788D01*
X90211456Y-70000500D01*
X90211459Y-70000500D01*
X90408543Y-70000500D01*
X90561139Y-69970146D01*
X90601835Y-69962051D01*
X90783914Y-69886632D01*
X90947782Y-69777139D01*
X91087139Y-69637782D01*
X91196632Y-69473914D01*
X91272051Y-69291835D01*
X91272272Y-69290727D01*
X91290257Y-69200309D01*
X91322642Y-69138398D01*
X91383357Y-69103824D01*
X91411874Y-69100500D01*
X95624255Y-69100500D01*
X95624271Y-69100501D01*
X95629888Y-69100501D01*
X95631400Y-69100945D01*
X95639635Y-69101458D01*
X95639643Y-69101459D01*
X95639413Y-69103297D01*
X95696927Y-69120186D01*
X95742682Y-69172990D01*
X95752626Y-69242148D01*
X95723601Y-69305704D01*
X95717569Y-69312182D01*
X95640669Y-69389081D01*
X95640666Y-69389084D01*
X95583985Y-69473913D01*
X95583986Y-69473914D01*
X95565042Y-69502266D01*
X95512956Y-69628012D01*
X95512953Y-69628022D01*
X95486400Y-69761513D01*
X95486400Y-69817059D01*
X95466715Y-69884098D01*
X95413911Y-69929853D01*
X95344753Y-69939797D01*
X95297303Y-69922597D01*
X95160892Y-69838457D01*
X95160881Y-69838452D01*
X95000006Y-69785144D01*
X94900722Y-69775000D01*
X94877400Y-69775000D01*
X94877400Y-71724999D01*
X94900708Y-71724999D01*
X94900722Y-71724998D01*
X95000007Y-71714855D01*
X95160881Y-71661547D01*
X95160892Y-71661542D01*
X95305131Y-71572573D01*
X95314359Y-71563345D01*
X95375679Y-71529856D01*
X95445371Y-71534835D01*
X95489727Y-71563339D01*
X95499355Y-71572967D01*
X95499359Y-71572970D01*
X95643694Y-71661998D01*
X95643697Y-71661999D01*
X95643703Y-71662003D01*
X95804692Y-71715349D01*
X95904055Y-71725500D01*
X96450744Y-71725499D01*
X96450752Y-71725498D01*
X96450755Y-71725498D01*
X96505160Y-71719940D01*
X96550108Y-71715349D01*
X96711097Y-71662003D01*
X96855444Y-71572968D01*
X96975368Y-71453044D01*
X97064403Y-71308697D01*
X97117749Y-71147708D01*
X97127900Y-71048345D01*
X97127899Y-70451656D01*
X97127478Y-70447538D01*
X97117749Y-70352292D01*
X97117748Y-70352289D01*
X97064471Y-70191509D01*
X97064403Y-70191303D01*
X97012292Y-70106818D01*
X96993852Y-70039430D01*
X97014774Y-69972766D01*
X97030144Y-69954049D01*
X97364041Y-69620153D01*
X97425361Y-69586670D01*
X97495053Y-69591654D01*
X97550986Y-69633526D01*
X97566280Y-69660384D01*
X97614268Y-69776239D01*
X97614269Y-69776241D01*
X97637885Y-69811585D01*
X98432287Y-69017184D01*
X98457976Y-69113057D01*
X98513929Y-69209969D01*
X98593057Y-69289097D01*
X98689969Y-69345050D01*
X98785840Y-69370738D01*
X97991439Y-70165138D01*
X98026788Y-70188758D01*
X98208767Y-70264135D01*
X98208771Y-70264136D01*
X98317268Y-70285717D01*
X98379180Y-70318102D01*
X98413754Y-70378817D01*
X98414695Y-70383143D01*
X98436432Y-70492421D01*
X98436434Y-70492427D01*
X98511852Y-70674501D01*
X98511857Y-70674511D01*
X98621345Y-70838371D01*
X98621348Y-70838375D01*
X98760700Y-70977727D01*
X98760704Y-70977730D01*
X98924564Y-71087218D01*
X98924568Y-71087220D01*
X98924571Y-71087222D01*
X99106649Y-71162642D01*
X99299940Y-71201090D01*
X99299943Y-71201091D01*
X99299945Y-71201091D01*
X99497027Y-71201091D01*
X99497028Y-71201090D01*
X99690321Y-71162642D01*
X99872399Y-71087222D01*
X100036266Y-70977730D01*
X100530139Y-70483857D01*
X100591462Y-70450372D01*
X100617820Y-70447538D01*
X106192180Y-70447538D01*
X106259219Y-70467223D01*
X106279861Y-70483857D01*
X106773730Y-70977727D01*
X106773734Y-70977730D01*
X106937594Y-71087218D01*
X106937598Y-71087220D01*
X106937601Y-71087222D01*
X107119679Y-71162642D01*
X107312970Y-71201090D01*
X107312973Y-71201091D01*
X107312975Y-71201091D01*
X107510057Y-71201091D01*
X107510058Y-71201090D01*
X107703351Y-71162642D01*
X107885429Y-71087222D01*
X108049296Y-70977730D01*
X108188654Y-70838372D01*
X108298146Y-70674505D01*
X108346076Y-70558792D01*
X108389916Y-70504390D01*
X108456210Y-70482325D01*
X108523909Y-70499604D01*
X108548317Y-70518565D01*
X108588181Y-70558429D01*
X108621666Y-70619752D01*
X108624500Y-70646110D01*
X108624500Y-71048337D01*
X108624501Y-71048355D01*
X108634650Y-71147707D01*
X108634651Y-71147710D01*
X108687996Y-71308694D01*
X108688001Y-71308705D01*
X108777029Y-71453040D01*
X108777032Y-71453044D01*
X108896955Y-71572967D01*
X108896959Y-71572970D01*
X109041294Y-71661998D01*
X109041297Y-71661999D01*
X109041303Y-71662003D01*
X109202292Y-71715349D01*
X109301655Y-71725500D01*
X109848344Y-71725499D01*
X109848352Y-71725498D01*
X109848355Y-71725498D01*
X109902760Y-71719940D01*
X109947708Y-71715349D01*
X110108697Y-71662003D01*
X110253044Y-71572968D01*
X110262668Y-71563343D01*
X110323987Y-71529856D01*
X110393679Y-71534835D01*
X110438034Y-71563339D01*
X110447267Y-71572572D01*
X110447271Y-71572575D01*
X110591507Y-71661542D01*
X110591518Y-71661547D01*
X110752393Y-71714855D01*
X110851683Y-71724999D01*
X111375000Y-71724999D01*
X111398308Y-71724999D01*
X111398322Y-71724998D01*
X111497607Y-71714855D01*
X111658481Y-71661547D01*
X111658492Y-71661542D01*
X111802728Y-71572575D01*
X111802732Y-71572572D01*
X111922572Y-71452732D01*
X111922575Y-71452728D01*
X112011542Y-71308492D01*
X112011547Y-71308481D01*
X112064855Y-71147606D01*
X112074999Y-71048322D01*
X112075000Y-71048309D01*
X112075000Y-71000000D01*
X111375000Y-71000000D01*
X111375000Y-71724999D01*
X110851683Y-71724999D01*
X110875000Y-71724998D01*
X110875000Y-70500000D01*
X111375000Y-70500000D01*
X112074999Y-70500000D01*
X112074999Y-70451692D01*
X112074998Y-70451677D01*
X112064855Y-70352392D01*
X112011547Y-70191518D01*
X112011542Y-70191507D01*
X111922575Y-70047271D01*
X111922572Y-70047267D01*
X111802732Y-69927427D01*
X111802728Y-69927424D01*
X111658492Y-69838457D01*
X111658481Y-69838452D01*
X111497606Y-69785144D01*
X111398322Y-69775000D01*
X111375000Y-69775000D01*
X111375000Y-70500000D01*
X110875000Y-70500000D01*
X110875000Y-69774999D01*
X110851693Y-69775000D01*
X110851674Y-69775001D01*
X110752392Y-69785144D01*
X110591518Y-69838452D01*
X110591507Y-69838457D01*
X110447271Y-69927424D01*
X110447265Y-69927428D01*
X110438031Y-69936663D01*
X110376707Y-69970146D01*
X110307015Y-69965159D01*
X110262672Y-69936660D01*
X110253044Y-69927032D01*
X110253040Y-69927029D01*
X110108705Y-69838001D01*
X110108699Y-69837998D01*
X110108697Y-69837997D01*
X110045510Y-69817059D01*
X109947709Y-69784651D01*
X109848352Y-69774500D01*
X109848345Y-69774500D01*
X109810058Y-69774500D01*
X109743019Y-69754815D01*
X109722377Y-69738181D01*
X109525156Y-69540960D01*
X109491671Y-69479637D01*
X109496655Y-69409945D01*
X109538527Y-69354012D01*
X109565386Y-69338717D01*
X109681247Y-69290727D01*
X109716585Y-69267113D01*
X109716586Y-69267112D01*
X108922186Y-68472712D01*
X109018057Y-68447024D01*
X109114969Y-68391071D01*
X109194097Y-68311943D01*
X109250050Y-68215031D01*
X109275738Y-68119160D01*
X110070138Y-68913560D01*
X110070139Y-68913559D01*
X110093753Y-68878220D01*
X110093756Y-68878216D01*
X110169135Y-68696232D01*
X110169136Y-68696229D01*
X110169821Y-68692785D01*
X110170678Y-68691144D01*
X110170906Y-68690396D01*
X110171047Y-68690439D01*
X110202199Y-68630870D01*
X110262910Y-68596289D01*
X110332680Y-68600020D01*
X110379122Y-68629281D01*
X110614215Y-68864374D01*
X110614225Y-68864385D01*
X110618555Y-68868715D01*
X110618556Y-68868716D01*
X110730360Y-68980520D01*
X110730362Y-68980521D01*
X110730366Y-68980524D01*
X110798004Y-69019574D01*
X110867292Y-69059577D01*
X110979095Y-69089534D01*
X111020018Y-69100500D01*
X111020019Y-69100500D01*
X115398126Y-69100500D01*
X115465165Y-69120185D01*
X115510920Y-69172989D01*
X115519743Y-69200309D01*
X115537946Y-69291827D01*
X115537949Y-69291836D01*
X115613364Y-69473907D01*
X115613371Y-69473920D01*
X115722860Y-69637781D01*
X115722863Y-69637785D01*
X115862214Y-69777136D01*
X115862218Y-69777139D01*
X116026079Y-69886628D01*
X116026092Y-69886635D01*
X116188832Y-69954043D01*
X116208165Y-69962051D01*
X116208169Y-69962051D01*
X116208170Y-69962052D01*
X116401456Y-70000500D01*
X116588511Y-70000500D01*
X116655550Y-70020185D01*
X116701305Y-70072989D01*
X116711249Y-70142147D01*
X116695839Y-70184656D01*
X116696051Y-70184755D01*
X116694940Y-70187135D01*
X116694048Y-70189599D01*
X116693000Y-70191296D01*
X116692996Y-70191305D01*
X116639651Y-70352290D01*
X116629500Y-70451647D01*
X116629500Y-71048337D01*
X116629501Y-71048355D01*
X116639650Y-71147707D01*
X116639651Y-71147710D01*
X116692996Y-71308694D01*
X116693001Y-71308705D01*
X116782029Y-71453040D01*
X116782032Y-71453044D01*
X116901955Y-71572967D01*
X116901959Y-71572970D01*
X117046294Y-71661998D01*
X117046297Y-71661999D01*
X117046303Y-71662003D01*
X117207292Y-71715349D01*
X117306655Y-71725500D01*
X117853344Y-71725499D01*
X117853352Y-71725498D01*
X117853355Y-71725498D01*
X117907760Y-71719940D01*
X117952708Y-71715349D01*
X118113697Y-71662003D01*
X118258044Y-71572968D01*
X118267668Y-71563343D01*
X118328987Y-71529856D01*
X118398679Y-71534835D01*
X118443034Y-71563339D01*
X118452267Y-71572572D01*
X118452271Y-71572575D01*
X118596507Y-71661542D01*
X118596518Y-71661547D01*
X118757393Y-71714855D01*
X118856683Y-71724999D01*
X119380000Y-71724999D01*
X119403308Y-71724999D01*
X119403322Y-71724998D01*
X119502607Y-71714855D01*
X119663481Y-71661547D01*
X119663492Y-71661542D01*
X119807728Y-71572575D01*
X119807732Y-71572572D01*
X119927572Y-71452732D01*
X119927575Y-71452728D01*
X120016542Y-71308492D01*
X120016547Y-71308481D01*
X120069855Y-71147606D01*
X120079999Y-71048322D01*
X120080000Y-71048309D01*
X120080000Y-71000000D01*
X119380000Y-71000000D01*
X119380000Y-71724999D01*
X118856683Y-71724999D01*
X118880000Y-71724998D01*
X118880000Y-70043000D01*
X118865866Y-70028866D01*
X118846961Y-70023315D01*
X118801206Y-69970511D01*
X118790000Y-69919000D01*
X118790000Y-68846409D01*
X118875956Y-68896037D01*
X118984048Y-68925000D01*
X119095952Y-68925000D01*
X119204044Y-68896037D01*
X119290000Y-68846409D01*
X119290000Y-69732000D01*
X119304133Y-69746133D01*
X119323039Y-69751685D01*
X119368794Y-69804489D01*
X119380000Y-69856000D01*
X119380000Y-70500000D01*
X120079999Y-70500000D01*
X120079999Y-70451692D01*
X120079998Y-70451677D01*
X120069855Y-70352392D01*
X120016547Y-70191518D01*
X120016544Y-70191512D01*
X120004407Y-70171835D01*
X119985966Y-70104443D01*
X120006887Y-70037779D01*
X120060529Y-69993009D01*
X120129859Y-69984347D01*
X120134136Y-69985120D01*
X120211454Y-70000499D01*
X120211457Y-70000500D01*
X120211459Y-70000500D01*
X120408543Y-70000500D01*
X120561139Y-69970146D01*
X120601835Y-69962051D01*
X120783914Y-69886632D01*
X120947782Y-69777139D01*
X121087139Y-69637782D01*
X121196632Y-69473914D01*
X121272051Y-69291835D01*
X121272272Y-69290727D01*
X121290257Y-69200309D01*
X121322642Y-69138398D01*
X121383357Y-69103824D01*
X121411874Y-69100500D01*
X125398126Y-69100500D01*
X125465165Y-69120185D01*
X125510920Y-69172989D01*
X125519743Y-69200309D01*
X125537946Y-69291827D01*
X125537949Y-69291836D01*
X125613364Y-69473907D01*
X125613371Y-69473920D01*
X125722860Y-69637781D01*
X125722863Y-69637785D01*
X125862214Y-69777136D01*
X125862218Y-69777139D01*
X126026079Y-69886628D01*
X126026092Y-69886635D01*
X126188832Y-69954043D01*
X126208165Y-69962051D01*
X126208169Y-69962051D01*
X126208170Y-69962052D01*
X126401456Y-70000500D01*
X126401459Y-70000500D01*
X126598537Y-70000500D01*
X126598541Y-70000500D01*
X126598544Y-70000499D01*
X126601928Y-70000166D01*
X126603689Y-70000500D01*
X126604633Y-70000500D01*
X126604633Y-70000678D01*
X126670574Y-70013184D01*
X126721285Y-70061248D01*
X126737961Y-70129099D01*
X126720856Y-70184664D01*
X126721051Y-70184755D01*
X126720398Y-70186155D01*
X126719628Y-70188657D01*
X126718002Y-70191292D01*
X126717996Y-70191305D01*
X126664651Y-70352290D01*
X126654500Y-70451647D01*
X126654500Y-71048337D01*
X126654501Y-71048355D01*
X126664650Y-71147707D01*
X126664651Y-71147710D01*
X126717996Y-71308694D01*
X126718001Y-71308705D01*
X126807029Y-71453040D01*
X126807032Y-71453044D01*
X126926955Y-71572967D01*
X126926959Y-71572970D01*
X127071294Y-71661998D01*
X127071297Y-71661999D01*
X127071303Y-71662003D01*
X127232292Y-71715349D01*
X127331655Y-71725500D01*
X127878344Y-71725499D01*
X127878352Y-71725498D01*
X127878355Y-71725498D01*
X127932760Y-71719940D01*
X127977708Y-71715349D01*
X128138697Y-71662003D01*
X128283044Y-71572968D01*
X128292668Y-71563343D01*
X128353987Y-71529856D01*
X128423679Y-71534835D01*
X128468034Y-71563339D01*
X128477267Y-71572572D01*
X128477271Y-71572575D01*
X128621507Y-71661542D01*
X128621518Y-71661547D01*
X128782393Y-71714855D01*
X128881683Y-71724999D01*
X129405000Y-71724999D01*
X129428308Y-71724999D01*
X129428322Y-71724998D01*
X129527607Y-71714855D01*
X129688481Y-71661547D01*
X129688492Y-71661542D01*
X129832728Y-71572575D01*
X129832732Y-71572572D01*
X129952572Y-71452732D01*
X129952575Y-71452728D01*
X130041542Y-71308492D01*
X130041547Y-71308481D01*
X130094855Y-71147606D01*
X130104999Y-71048322D01*
X130105000Y-71048309D01*
X130105000Y-71000000D01*
X129405000Y-71000000D01*
X129405000Y-71724999D01*
X128881683Y-71724999D01*
X128905000Y-71724998D01*
X128905000Y-70043000D01*
X128901258Y-70039258D01*
X128846961Y-70023315D01*
X128801206Y-69970511D01*
X128790000Y-69919000D01*
X128790000Y-68846409D01*
X128875956Y-68896037D01*
X128984048Y-68925000D01*
X129095952Y-68925000D01*
X129204044Y-68896037D01*
X129290000Y-68846409D01*
X129290000Y-69732000D01*
X129293741Y-69735741D01*
X129348039Y-69751685D01*
X129393794Y-69804489D01*
X129405000Y-69856000D01*
X129405000Y-70500000D01*
X130104999Y-70500000D01*
X130104999Y-70451692D01*
X130104998Y-70451677D01*
X130094855Y-70352392D01*
X130041547Y-70191518D01*
X130041543Y-70191509D01*
X130032904Y-70177504D01*
X130014462Y-70110112D01*
X130035383Y-70043448D01*
X130089024Y-69998677D01*
X130158355Y-69990014D01*
X130162633Y-69990788D01*
X130211456Y-70000500D01*
X130211459Y-70000500D01*
X130408543Y-70000500D01*
X130561139Y-69970146D01*
X130601835Y-69962051D01*
X130783914Y-69886632D01*
X130947782Y-69777139D01*
X131087139Y-69637782D01*
X131196632Y-69473914D01*
X131272051Y-69291835D01*
X131288335Y-69209969D01*
X131310500Y-69098543D01*
X131310500Y-67901456D01*
X131272052Y-67708170D01*
X131272051Y-67708169D01*
X131272051Y-67708165D01*
X131241286Y-67633890D01*
X131196635Y-67526092D01*
X131196628Y-67526079D01*
X131087139Y-67362218D01*
X131087136Y-67362214D01*
X130946819Y-67221897D01*
X130913334Y-67160574D01*
X130910500Y-67134216D01*
X130910500Y-66149060D01*
X130910501Y-66149047D01*
X130910501Y-65980945D01*
X130910501Y-65980943D01*
X130869577Y-65828215D01*
X130840639Y-65778095D01*
X130790520Y-65691284D01*
X130678716Y-65579480D01*
X130678715Y-65579479D01*
X130674385Y-65575149D01*
X130674374Y-65575139D01*
X126387590Y-61288355D01*
X126387588Y-61288352D01*
X126268717Y-61169481D01*
X126268716Y-61169480D01*
X126181904Y-61119360D01*
X126181904Y-61119359D01*
X126181900Y-61119358D01*
X126131785Y-61090423D01*
X125979057Y-61049499D01*
X125820943Y-61049499D01*
X125813347Y-61049499D01*
X125813331Y-61049500D01*
X110263859Y-61049500D01*
X110196820Y-61029815D01*
X110151065Y-60977011D01*
X110141121Y-60907853D01*
X110170146Y-60844297D01*
X110176178Y-60837819D01*
X110882727Y-60131269D01*
X110882730Y-60131266D01*
X110992222Y-59967399D01*
X111067642Y-59785321D01*
X111106091Y-59592025D01*
X111106091Y-59394945D01*
X111106091Y-59393581D01*
X111125776Y-59326542D01*
X111142405Y-59305905D01*
X111311493Y-59136816D01*
X111372815Y-59103334D01*
X111399173Y-59100500D01*
X115398126Y-59100500D01*
X115465165Y-59120185D01*
X115510920Y-59172989D01*
X115519743Y-59200309D01*
X115537946Y-59291827D01*
X115537949Y-59291836D01*
X115613364Y-59473907D01*
X115613371Y-59473920D01*
X115722860Y-59637781D01*
X115722863Y-59637785D01*
X115862214Y-59777136D01*
X115862218Y-59777139D01*
X116026079Y-59886628D01*
X116026092Y-59886635D01*
X116207001Y-59961569D01*
X116208165Y-59962051D01*
X116208169Y-59962051D01*
X116208170Y-59962052D01*
X116401456Y-60000500D01*
X116401459Y-60000500D01*
X116598543Y-60000500D01*
X116728582Y-59974632D01*
X116791835Y-59962051D01*
X116973914Y-59886632D01*
X117066109Y-59825029D01*
X117132786Y-59804151D01*
X117200166Y-59822635D01*
X117203891Y-59825029D01*
X117295423Y-59886189D01*
X117296086Y-59886632D01*
X117296088Y-59886633D01*
X117296092Y-59886635D01*
X117477001Y-59961569D01*
X117478165Y-59962051D01*
X117478169Y-59962051D01*
X117478170Y-59962052D01*
X117671456Y-60000500D01*
X117671459Y-60000500D01*
X117868543Y-60000500D01*
X117998582Y-59974632D01*
X118061835Y-59962051D01*
X118243914Y-59886632D01*
X118243919Y-59886628D01*
X118243922Y-59886627D01*
X118275997Y-59865195D01*
X118336559Y-59824728D01*
X118403234Y-59803850D01*
X118470614Y-59822334D01*
X118474341Y-59824728D01*
X118566321Y-59886188D01*
X118566328Y-59886192D01*
X118748308Y-59961569D01*
X118790000Y-59969862D01*
X118790000Y-58846409D01*
X118875956Y-58896037D01*
X118984048Y-58925000D01*
X119095952Y-58925000D01*
X119204044Y-58896037D01*
X119290000Y-58846409D01*
X119290000Y-59969862D01*
X119331690Y-59961569D01*
X119331692Y-59961569D01*
X119513673Y-59886191D01*
X119513676Y-59886189D01*
X119605657Y-59824729D01*
X119672334Y-59803850D01*
X119739715Y-59822334D01*
X119743440Y-59824728D01*
X119836079Y-59886628D01*
X119836092Y-59886635D01*
X120017001Y-59961569D01*
X120018165Y-59962051D01*
X120018169Y-59962051D01*
X120018170Y-59962052D01*
X120211456Y-60000500D01*
X120211459Y-60000500D01*
X120408543Y-60000500D01*
X120538582Y-59974632D01*
X120601835Y-59962051D01*
X120783914Y-59886632D01*
X120784579Y-59886188D01*
X120798052Y-59877185D01*
X120947782Y-59777139D01*
X121087139Y-59637782D01*
X121196632Y-59473914D01*
X121272051Y-59291835D01*
X121272272Y-59290727D01*
X121290257Y-59200309D01*
X121322642Y-59138398D01*
X121383357Y-59103824D01*
X121411874Y-59100500D01*
X125398126Y-59100500D01*
X125465165Y-59120185D01*
X125510920Y-59172989D01*
X125519743Y-59200309D01*
X125537946Y-59291827D01*
X125537949Y-59291836D01*
X125613364Y-59473907D01*
X125613371Y-59473920D01*
X125722860Y-59637781D01*
X125722863Y-59637785D01*
X125862214Y-59777136D01*
X125862218Y-59777139D01*
X126026079Y-59886628D01*
X126026092Y-59886635D01*
X126207001Y-59961569D01*
X126208165Y-59962051D01*
X126208169Y-59962051D01*
X126208170Y-59962052D01*
X126401456Y-60000500D01*
X126401459Y-60000500D01*
X126598543Y-60000500D01*
X126728582Y-59974632D01*
X126791835Y-59962051D01*
X126973914Y-59886632D01*
X127066109Y-59825029D01*
X127132786Y-59804151D01*
X127200166Y-59822635D01*
X127203891Y-59825029D01*
X127295423Y-59886189D01*
X127296086Y-59886632D01*
X127296088Y-59886633D01*
X127296092Y-59886635D01*
X127477001Y-59961569D01*
X127478165Y-59962051D01*
X127478169Y-59962051D01*
X127478170Y-59962052D01*
X127671456Y-60000500D01*
X127671459Y-60000500D01*
X127868543Y-60000500D01*
X127998582Y-59974632D01*
X128061835Y-59962051D01*
X128243914Y-59886632D01*
X128243919Y-59886628D01*
X128243922Y-59886627D01*
X128275997Y-59865195D01*
X128336559Y-59824728D01*
X128403234Y-59803850D01*
X128470614Y-59822334D01*
X128474341Y-59824728D01*
X128566321Y-59886188D01*
X128566328Y-59886192D01*
X128748308Y-59961569D01*
X128790000Y-59969862D01*
X128790000Y-58846409D01*
X128875956Y-58896037D01*
X128984048Y-58925000D01*
X129095952Y-58925000D01*
X129204044Y-58896037D01*
X129290000Y-58846409D01*
X129290000Y-59969862D01*
X129331690Y-59961569D01*
X129331692Y-59961569D01*
X129513673Y-59886191D01*
X129513676Y-59886189D01*
X129605657Y-59824729D01*
X129672334Y-59803850D01*
X129739715Y-59822334D01*
X129743440Y-59824728D01*
X129836079Y-59886628D01*
X129836092Y-59886635D01*
X130017001Y-59961569D01*
X130018165Y-59962051D01*
X130018169Y-59962051D01*
X130018170Y-59962052D01*
X130211456Y-60000500D01*
X130211459Y-60000500D01*
X130408543Y-60000500D01*
X130538582Y-59974632D01*
X130601835Y-59962051D01*
X130783914Y-59886632D01*
X130784579Y-59886188D01*
X130798052Y-59877185D01*
X130947782Y-59777139D01*
X131087139Y-59637782D01*
X131196632Y-59473914D01*
X131272051Y-59291835D01*
X131288335Y-59209969D01*
X131310500Y-59098543D01*
X131310500Y-57901456D01*
X131272052Y-57708170D01*
X131272051Y-57708169D01*
X131272051Y-57708165D01*
X131272049Y-57708160D01*
X131196635Y-57526092D01*
X131196628Y-57526079D01*
X131087139Y-57362218D01*
X131087136Y-57362214D01*
X130947785Y-57222863D01*
X130947781Y-57222860D01*
X130783920Y-57113371D01*
X130783907Y-57113364D01*
X130601839Y-57037950D01*
X130601829Y-57037947D01*
X130408543Y-56999500D01*
X130408541Y-56999500D01*
X130211459Y-56999500D01*
X130162631Y-57009212D01*
X130093039Y-57002983D01*
X130037863Y-56960120D01*
X130014619Y-56894230D01*
X130030687Y-56826233D01*
X130032905Y-56822493D01*
X130041544Y-56808487D01*
X130041547Y-56808481D01*
X130094855Y-56647606D01*
X130104999Y-56548322D01*
X130105000Y-56548309D01*
X130105000Y-56500000D01*
X129405000Y-56500000D01*
X129405000Y-57144000D01*
X129385315Y-57211039D01*
X129332511Y-57256794D01*
X129292502Y-57265497D01*
X129290000Y-57268000D01*
X129290000Y-58153590D01*
X129204044Y-58103963D01*
X129095952Y-58075000D01*
X128984048Y-58075000D01*
X128875956Y-58103963D01*
X128790000Y-58153590D01*
X128790000Y-57081000D01*
X128809685Y-57013961D01*
X128862489Y-56968206D01*
X128902497Y-56959502D01*
X128905000Y-56957000D01*
X128905000Y-56000000D01*
X129405000Y-56000000D01*
X130104999Y-56000000D01*
X130104999Y-55951692D01*
X130104998Y-55951677D01*
X130094855Y-55852392D01*
X130041547Y-55691518D01*
X130041542Y-55691507D01*
X129952575Y-55547271D01*
X129952572Y-55547267D01*
X129832732Y-55427427D01*
X129832728Y-55427424D01*
X129688492Y-55338457D01*
X129688481Y-55338452D01*
X129527606Y-55285144D01*
X129428322Y-55275000D01*
X129405000Y-55275000D01*
X129405000Y-56000000D01*
X128905000Y-56000000D01*
X128905000Y-55274999D01*
X128881693Y-55275000D01*
X128881674Y-55275001D01*
X128782392Y-55285144D01*
X128621518Y-55338452D01*
X128621507Y-55338457D01*
X128477271Y-55427424D01*
X128477265Y-55427428D01*
X128468031Y-55436663D01*
X128406707Y-55470146D01*
X128337015Y-55465159D01*
X128292672Y-55436660D01*
X128283044Y-55427032D01*
X128283040Y-55427029D01*
X128138705Y-55338001D01*
X128138699Y-55337998D01*
X128138697Y-55337997D01*
X128128596Y-55334650D01*
X127977709Y-55284651D01*
X127878346Y-55274500D01*
X127331662Y-55274500D01*
X127331644Y-55274501D01*
X127232292Y-55284650D01*
X127232289Y-55284651D01*
X127071305Y-55337996D01*
X127071294Y-55338001D01*
X126926959Y-55427029D01*
X126926955Y-55427032D01*
X126807032Y-55546955D01*
X126807029Y-55546959D01*
X126718001Y-55691294D01*
X126717996Y-55691305D01*
X126664651Y-55852290D01*
X126654500Y-55951647D01*
X126654500Y-56548337D01*
X126654501Y-56548355D01*
X126664650Y-56647707D01*
X126664651Y-56647710D01*
X126717996Y-56808694D01*
X126718001Y-56808704D01*
X126719625Y-56811337D01*
X126720187Y-56813393D01*
X126721051Y-56815245D01*
X126720734Y-56815392D01*
X126738063Y-56878730D01*
X126717138Y-56945393D01*
X126663495Y-56990160D01*
X126604633Y-56999410D01*
X126604633Y-56999500D01*
X126604066Y-56999500D01*
X126601941Y-56999834D01*
X126598547Y-56999500D01*
X126598541Y-56999500D01*
X126401459Y-56999500D01*
X126401457Y-56999500D01*
X126208170Y-57037947D01*
X126208160Y-57037950D01*
X126026092Y-57113364D01*
X126026079Y-57113371D01*
X125862218Y-57222860D01*
X125862214Y-57222863D01*
X125722863Y-57362214D01*
X125722860Y-57362218D01*
X125613371Y-57526079D01*
X125613364Y-57526092D01*
X125537949Y-57708163D01*
X125537946Y-57708172D01*
X125519743Y-57799691D01*
X125487358Y-57861602D01*
X125426643Y-57896176D01*
X125398126Y-57899500D01*
X121411874Y-57899500D01*
X121344835Y-57879815D01*
X121299080Y-57827011D01*
X121290257Y-57799691D01*
X121272053Y-57708172D01*
X121272050Y-57708163D01*
X121196635Y-57526092D01*
X121196628Y-57526079D01*
X121087139Y-57362218D01*
X121087136Y-57362214D01*
X120947785Y-57222863D01*
X120947781Y-57222860D01*
X120783920Y-57113371D01*
X120783907Y-57113364D01*
X120601839Y-57037950D01*
X120601829Y-57037947D01*
X120408543Y-56999500D01*
X120408541Y-56999500D01*
X120211459Y-56999500D01*
X120162631Y-57009212D01*
X120093039Y-57002983D01*
X120037863Y-56960120D01*
X120014619Y-56894230D01*
X120030687Y-56826233D01*
X120032905Y-56822493D01*
X120041544Y-56808487D01*
X120041547Y-56808481D01*
X120094855Y-56647606D01*
X120104999Y-56548322D01*
X120105000Y-56548309D01*
X120105000Y-56500000D01*
X119405000Y-56500000D01*
X119405000Y-57144000D01*
X119385315Y-57211039D01*
X119332511Y-57256794D01*
X119292502Y-57265497D01*
X119290000Y-57268000D01*
X119290000Y-58153590D01*
X119204044Y-58103963D01*
X119095952Y-58075000D01*
X118984048Y-58075000D01*
X118875956Y-58103963D01*
X118790000Y-58153590D01*
X118790000Y-57081000D01*
X118809685Y-57013961D01*
X118862489Y-56968206D01*
X118902497Y-56959502D01*
X118905000Y-56957000D01*
X118905000Y-56000000D01*
X119405000Y-56000000D01*
X120104999Y-56000000D01*
X120104999Y-55951692D01*
X120104998Y-55951677D01*
X120094855Y-55852392D01*
X120041547Y-55691518D01*
X120041542Y-55691507D01*
X119952575Y-55547271D01*
X119952572Y-55547267D01*
X119832732Y-55427427D01*
X119832728Y-55427424D01*
X119688492Y-55338457D01*
X119688481Y-55338452D01*
X119527606Y-55285144D01*
X119428322Y-55275000D01*
X119405000Y-55275000D01*
X119405000Y-56000000D01*
X118905000Y-56000000D01*
X118905000Y-55274999D01*
X118881693Y-55275000D01*
X118881674Y-55275001D01*
X118782392Y-55285144D01*
X118621518Y-55338452D01*
X118621507Y-55338457D01*
X118477271Y-55427424D01*
X118477265Y-55427428D01*
X118468031Y-55436663D01*
X118406707Y-55470146D01*
X118337015Y-55465159D01*
X118292672Y-55436660D01*
X118283044Y-55427032D01*
X118283040Y-55427029D01*
X118138705Y-55338001D01*
X118138699Y-55337998D01*
X118138697Y-55337997D01*
X118128596Y-55334650D01*
X117977709Y-55284651D01*
X117878346Y-55274500D01*
X117331662Y-55274500D01*
X117331644Y-55274501D01*
X117232292Y-55284650D01*
X117232289Y-55284651D01*
X117071305Y-55337996D01*
X117071294Y-55338001D01*
X116926959Y-55427029D01*
X116926955Y-55427032D01*
X116807032Y-55546955D01*
X116807029Y-55546959D01*
X116718001Y-55691294D01*
X116717996Y-55691305D01*
X116664651Y-55852290D01*
X116654500Y-55951647D01*
X116654500Y-56548337D01*
X116654501Y-56548355D01*
X116664650Y-56647707D01*
X116664651Y-56647710D01*
X116717996Y-56808694D01*
X116718001Y-56808704D01*
X116719625Y-56811337D01*
X116720187Y-56813393D01*
X116721051Y-56815245D01*
X116720734Y-56815392D01*
X116738063Y-56878730D01*
X116717138Y-56945393D01*
X116663495Y-56990160D01*
X116604633Y-56999410D01*
X116604633Y-56999500D01*
X116604066Y-56999500D01*
X116601941Y-56999834D01*
X116598547Y-56999500D01*
X116598541Y-56999500D01*
X116401459Y-56999500D01*
X116401457Y-56999500D01*
X116208170Y-57037947D01*
X116208160Y-57037950D01*
X116026092Y-57113364D01*
X116026079Y-57113371D01*
X115862218Y-57222860D01*
X115862214Y-57222863D01*
X115722863Y-57362214D01*
X115722860Y-57362218D01*
X115613371Y-57526079D01*
X115613364Y-57526092D01*
X115537949Y-57708163D01*
X115537946Y-57708172D01*
X115519743Y-57799691D01*
X115487358Y-57861602D01*
X115426643Y-57896176D01*
X115398126Y-57899500D01*
X111020017Y-57899500D01*
X110980727Y-57910027D01*
X110980728Y-57910028D01*
X110867290Y-57940423D01*
X110867285Y-57940426D01*
X110730366Y-58019475D01*
X110730358Y-58019481D01*
X110618554Y-58131286D01*
X110379122Y-58370717D01*
X110317799Y-58404202D01*
X110248107Y-58399218D01*
X110192174Y-58357346D01*
X110169822Y-58307218D01*
X110169136Y-58303772D01*
X110169135Y-58303767D01*
X110093758Y-58121788D01*
X110070138Y-58086439D01*
X109275738Y-58880838D01*
X109250050Y-58784969D01*
X109194097Y-58688057D01*
X109114969Y-58608929D01*
X109018057Y-58552976D01*
X108922183Y-58527286D01*
X109716585Y-57732885D01*
X109681241Y-57709269D01*
X109565384Y-57661280D01*
X109510981Y-57617439D01*
X109488916Y-57551145D01*
X109506195Y-57483445D01*
X109525147Y-57459048D01*
X109672379Y-57311815D01*
X109733700Y-57278333D01*
X109760058Y-57275499D01*
X109773338Y-57275499D01*
X109773344Y-57275499D01*
X109773352Y-57275498D01*
X109773355Y-57275498D01*
X109827760Y-57269940D01*
X109872708Y-57265349D01*
X110033697Y-57212003D01*
X110178044Y-57122968D01*
X110187668Y-57113343D01*
X110248987Y-57079856D01*
X110318679Y-57084835D01*
X110363034Y-57113339D01*
X110372267Y-57122572D01*
X110372271Y-57122575D01*
X110516507Y-57211542D01*
X110516518Y-57211547D01*
X110677393Y-57264855D01*
X110776683Y-57274999D01*
X111300000Y-57274999D01*
X111323308Y-57274999D01*
X111323322Y-57274998D01*
X111422607Y-57264855D01*
X111583481Y-57211547D01*
X111583492Y-57211542D01*
X111727728Y-57122575D01*
X111727732Y-57122572D01*
X111847572Y-57002732D01*
X111847575Y-57002728D01*
X111936542Y-56858492D01*
X111936547Y-56858481D01*
X111989855Y-56697606D01*
X111999999Y-56598322D01*
X112000000Y-56598309D01*
X112000000Y-56550000D01*
X111300000Y-56550000D01*
X111300000Y-57274999D01*
X110776683Y-57274999D01*
X110800000Y-57274998D01*
X110800000Y-56050000D01*
X111300000Y-56050000D01*
X111999999Y-56050000D01*
X111999999Y-56001692D01*
X111999998Y-56001677D01*
X111989855Y-55902392D01*
X111936547Y-55741518D01*
X111936542Y-55741507D01*
X111847575Y-55597271D01*
X111847572Y-55597267D01*
X111727732Y-55477427D01*
X111727728Y-55477424D01*
X111583492Y-55388457D01*
X111583481Y-55388452D01*
X111422606Y-55335144D01*
X111323322Y-55325000D01*
X111300000Y-55325000D01*
X111300000Y-56050000D01*
X110800000Y-56050000D01*
X110800000Y-55324999D01*
X110776693Y-55325000D01*
X110776674Y-55325001D01*
X110677392Y-55335144D01*
X110516518Y-55388452D01*
X110516507Y-55388457D01*
X110372271Y-55477424D01*
X110372265Y-55477428D01*
X110363031Y-55486663D01*
X110301707Y-55520146D01*
X110232015Y-55515159D01*
X110187672Y-55486660D01*
X110178044Y-55477032D01*
X110178040Y-55477029D01*
X110033705Y-55388001D01*
X110033699Y-55387998D01*
X110033697Y-55387997D01*
X110033694Y-55387996D01*
X109872709Y-55334651D01*
X109773346Y-55324500D01*
X109226662Y-55324500D01*
X109226644Y-55324501D01*
X109127292Y-55334650D01*
X109127289Y-55334651D01*
X108966305Y-55387996D01*
X108966294Y-55388001D01*
X108821959Y-55477029D01*
X108821955Y-55477032D01*
X108702032Y-55596955D01*
X108702029Y-55596959D01*
X108613001Y-55741294D01*
X108612996Y-55741305D01*
X108559651Y-55902290D01*
X108549500Y-56001647D01*
X108549500Y-56308926D01*
X108529815Y-56375965D01*
X108477011Y-56421720D01*
X108407853Y-56431664D01*
X108344297Y-56402639D01*
X108310939Y-56356379D01*
X108298147Y-56325498D01*
X108298146Y-56325495D01*
X108298144Y-56325492D01*
X108298142Y-56325488D01*
X108188654Y-56161628D01*
X108188651Y-56161624D01*
X108049299Y-56022272D01*
X108049295Y-56022269D01*
X107885435Y-55912781D01*
X107885425Y-55912776D01*
X107703351Y-55837358D01*
X107703343Y-55837356D01*
X107510058Y-55798909D01*
X107510055Y-55798909D01*
X107312975Y-55798909D01*
X107312972Y-55798909D01*
X107119686Y-55837356D01*
X107119678Y-55837358D01*
X106937604Y-55912776D01*
X106937594Y-55912781D01*
X106773734Y-56022269D01*
X106773730Y-56022272D01*
X106279861Y-56516143D01*
X106218538Y-56549628D01*
X106192180Y-56552462D01*
X100617820Y-56552462D01*
X100550781Y-56532777D01*
X100530139Y-56516143D01*
X100036269Y-56022272D01*
X100036265Y-56022269D01*
X99872405Y-55912781D01*
X99872395Y-55912776D01*
X99690321Y-55837358D01*
X99690313Y-55837356D01*
X99497028Y-55798909D01*
X99497025Y-55798909D01*
X99299945Y-55798909D01*
X99299942Y-55798909D01*
X99106656Y-55837356D01*
X99106648Y-55837358D01*
X98924574Y-55912776D01*
X98924564Y-55912781D01*
X98760704Y-56022269D01*
X98760700Y-56022272D01*
X98621348Y-56161624D01*
X98621345Y-56161628D01*
X98511857Y-56325488D01*
X98511852Y-56325498D01*
X98436434Y-56507572D01*
X98436432Y-56507580D01*
X98414696Y-56616854D01*
X98382311Y-56678765D01*
X98321595Y-56713339D01*
X98317271Y-56714280D01*
X98208776Y-56735861D01*
X98208770Y-56735863D01*
X98026785Y-56811243D01*
X98026778Y-56811247D01*
X97991439Y-56834860D01*
X97991438Y-56834860D01*
X98785840Y-57629261D01*
X98689969Y-57654950D01*
X98593057Y-57710903D01*
X98513929Y-57790031D01*
X98457976Y-57886943D01*
X98432287Y-57982814D01*
X97637886Y-57188412D01*
X97637886Y-57188413D01*
X97614273Y-57223752D01*
X97614269Y-57223760D01*
X97566280Y-57339615D01*
X97522438Y-57394019D01*
X97456144Y-57416083D01*
X97388445Y-57398803D01*
X97364040Y-57379845D01*
X97240989Y-57256794D01*
X97117785Y-57133589D01*
X97084300Y-57072266D01*
X97089284Y-57002574D01*
X97117787Y-56958224D01*
X97122968Y-56953044D01*
X97123161Y-56952732D01*
X97211998Y-56808705D01*
X97211997Y-56808705D01*
X97212003Y-56808697D01*
X97265349Y-56647708D01*
X97275500Y-56548345D01*
X97275499Y-55951656D01*
X97271527Y-55912776D01*
X97265349Y-55852292D01*
X97265348Y-55852289D01*
X97228642Y-55741518D01*
X97212003Y-55691303D01*
X97211999Y-55691297D01*
X97211998Y-55691294D01*
X97122970Y-55546959D01*
X97122967Y-55546955D01*
X97003044Y-55427032D01*
X97003040Y-55427029D01*
X96858705Y-55338001D01*
X96858699Y-55337998D01*
X96858697Y-55337997D01*
X96848596Y-55334650D01*
X96697709Y-55284651D01*
X96598346Y-55274500D01*
X96051662Y-55274500D01*
X96051644Y-55274501D01*
X95952292Y-55284650D01*
X95952289Y-55284651D01*
X95791305Y-55337996D01*
X95791294Y-55338001D01*
X95646959Y-55427029D01*
X95646953Y-55427033D01*
X95637324Y-55436663D01*
X95576000Y-55470146D01*
X95506308Y-55465159D01*
X95461965Y-55436660D01*
X95452732Y-55427427D01*
X95452728Y-55427424D01*
X95308492Y-55338457D01*
X95308481Y-55338452D01*
X95147606Y-55285144D01*
X95048322Y-55275000D01*
X95025000Y-55275000D01*
X95025000Y-57224999D01*
X95048308Y-57224999D01*
X95048322Y-57224998D01*
X95147607Y-57214855D01*
X95308481Y-57161547D01*
X95308488Y-57161544D01*
X95444902Y-57077402D01*
X95512295Y-57058961D01*
X95578958Y-57079883D01*
X95623728Y-57133525D01*
X95634000Y-57182940D01*
X95634000Y-57386085D01*
X95641327Y-57422919D01*
X95641327Y-57422920D01*
X95660553Y-57519575D01*
X95660556Y-57519587D01*
X95673628Y-57551145D01*
X95712644Y-57645337D01*
X95723297Y-57661280D01*
X95753584Y-57706609D01*
X95774461Y-57773287D01*
X95755976Y-57840667D01*
X95703996Y-57887357D01*
X95650481Y-57899499D01*
X95624271Y-57899499D01*
X95624255Y-57899500D01*
X91411874Y-57899500D01*
X91344835Y-57879815D01*
X91299080Y-57827011D01*
X91290257Y-57799691D01*
X91272053Y-57708172D01*
X91272050Y-57708163D01*
X91196635Y-57526092D01*
X91196628Y-57526079D01*
X91087139Y-57362218D01*
X91087136Y-57362214D01*
X90947785Y-57222863D01*
X90947781Y-57222860D01*
X90783920Y-57113371D01*
X90783907Y-57113364D01*
X90601839Y-57037950D01*
X90601829Y-57037947D01*
X90408543Y-56999500D01*
X90408541Y-56999500D01*
X90211459Y-56999500D01*
X90162631Y-57009212D01*
X90093039Y-57002983D01*
X90037863Y-56960120D01*
X90014619Y-56894230D01*
X90030687Y-56826233D01*
X90032905Y-56822493D01*
X90041544Y-56808487D01*
X90041547Y-56808481D01*
X90094855Y-56647606D01*
X90104999Y-56548322D01*
X93825001Y-56548322D01*
X93835144Y-56647607D01*
X93888452Y-56808481D01*
X93888457Y-56808492D01*
X93977424Y-56952728D01*
X93977427Y-56952732D01*
X94097267Y-57072572D01*
X94097271Y-57072575D01*
X94241507Y-57161542D01*
X94241518Y-57161547D01*
X94402393Y-57214855D01*
X94501683Y-57224999D01*
X94525000Y-57224998D01*
X94525000Y-56500000D01*
X93825001Y-56500000D01*
X93825001Y-56548322D01*
X90104999Y-56548322D01*
X90105000Y-56548309D01*
X90105000Y-56500000D01*
X89405000Y-56500000D01*
X89405000Y-57144000D01*
X89385315Y-57211039D01*
X89332511Y-57256794D01*
X89292502Y-57265497D01*
X89290000Y-57268000D01*
X89290000Y-58153590D01*
X89204044Y-58103963D01*
X89095952Y-58075000D01*
X88984048Y-58075000D01*
X88875956Y-58103963D01*
X88790000Y-58153590D01*
X88790000Y-57081000D01*
X88809685Y-57013961D01*
X88862489Y-56968206D01*
X88902497Y-56959502D01*
X88905000Y-56957000D01*
X88905000Y-56000000D01*
X89405000Y-56000000D01*
X90104999Y-56000000D01*
X90104999Y-55951692D01*
X90104998Y-55951677D01*
X93825000Y-55951677D01*
X93825000Y-56000000D01*
X94525000Y-56000000D01*
X94525000Y-55274999D01*
X94501693Y-55275000D01*
X94501674Y-55275001D01*
X94402392Y-55285144D01*
X94241518Y-55338452D01*
X94241507Y-55338457D01*
X94097271Y-55427424D01*
X94097267Y-55427427D01*
X93977427Y-55547267D01*
X93977424Y-55547271D01*
X93888457Y-55691507D01*
X93888452Y-55691518D01*
X93835144Y-55852393D01*
X93825000Y-55951677D01*
X90104998Y-55951677D01*
X90094855Y-55852392D01*
X90041547Y-55691518D01*
X90041542Y-55691507D01*
X89952575Y-55547271D01*
X89952572Y-55547267D01*
X89832732Y-55427427D01*
X89832728Y-55427424D01*
X89688492Y-55338457D01*
X89688481Y-55338452D01*
X89527606Y-55285144D01*
X89428322Y-55275000D01*
X89405000Y-55275000D01*
X89405000Y-56000000D01*
X88905000Y-56000000D01*
X88905000Y-55274999D01*
X88881693Y-55275000D01*
X88881674Y-55275001D01*
X88782392Y-55285144D01*
X88621518Y-55338452D01*
X88621507Y-55338457D01*
X88477271Y-55427424D01*
X88477265Y-55427428D01*
X88468031Y-55436663D01*
X88406707Y-55470146D01*
X88337015Y-55465159D01*
X88292672Y-55436660D01*
X88283044Y-55427032D01*
X88283040Y-55427029D01*
X88138705Y-55338001D01*
X88138699Y-55337998D01*
X88138697Y-55337997D01*
X88128596Y-55334650D01*
X87977709Y-55284651D01*
X87878346Y-55274500D01*
X87331662Y-55274500D01*
X87331644Y-55274501D01*
X87232292Y-55284650D01*
X87232289Y-55284651D01*
X87071305Y-55337996D01*
X87071294Y-55338001D01*
X86926959Y-55427029D01*
X86926955Y-55427032D01*
X86807032Y-55546955D01*
X86807029Y-55546959D01*
X86718001Y-55691294D01*
X86717996Y-55691305D01*
X86664651Y-55852290D01*
X86654500Y-55951647D01*
X86654500Y-56548337D01*
X86654501Y-56548355D01*
X86664650Y-56647707D01*
X86664651Y-56647710D01*
X86717996Y-56808694D01*
X86718001Y-56808704D01*
X86719625Y-56811337D01*
X86720187Y-56813393D01*
X86721051Y-56815245D01*
X86720734Y-56815392D01*
X86738063Y-56878730D01*
X86717138Y-56945393D01*
X86663495Y-56990160D01*
X86604633Y-56999410D01*
X86604633Y-56999500D01*
X86604066Y-56999500D01*
X86601941Y-56999834D01*
X86598547Y-56999500D01*
X86598541Y-56999500D01*
X86401459Y-56999500D01*
X86401457Y-56999500D01*
X86208170Y-57037947D01*
X86208160Y-57037950D01*
X86026092Y-57113364D01*
X86026079Y-57113371D01*
X85862218Y-57222860D01*
X85862214Y-57222863D01*
X85722863Y-57362214D01*
X85722860Y-57362218D01*
X85613371Y-57526079D01*
X85613364Y-57526092D01*
X85537949Y-57708163D01*
X85537946Y-57708172D01*
X85519743Y-57799691D01*
X85487358Y-57861602D01*
X85426643Y-57896176D01*
X85398126Y-57899500D01*
X81411874Y-57899500D01*
X81344835Y-57879815D01*
X81299080Y-57827011D01*
X81290257Y-57799691D01*
X81272053Y-57708172D01*
X81272050Y-57708163D01*
X81196635Y-57526092D01*
X81196628Y-57526079D01*
X81087139Y-57362218D01*
X81087136Y-57362214D01*
X80947785Y-57222863D01*
X80947781Y-57222860D01*
X80783920Y-57113371D01*
X80783907Y-57113364D01*
X80601839Y-57037950D01*
X80601829Y-57037947D01*
X80408543Y-56999500D01*
X80408541Y-56999500D01*
X80211459Y-56999500D01*
X80162631Y-57009212D01*
X80093039Y-57002983D01*
X80037863Y-56960120D01*
X80014619Y-56894230D01*
X80030687Y-56826233D01*
X80032905Y-56822493D01*
X80041544Y-56808487D01*
X80041547Y-56808481D01*
X80094855Y-56647606D01*
X80104999Y-56548322D01*
X80105000Y-56548309D01*
X80105000Y-56500000D01*
X79405000Y-56500000D01*
X79405000Y-57144000D01*
X79385315Y-57211039D01*
X79332511Y-57256794D01*
X79292502Y-57265497D01*
X79290000Y-57268000D01*
X79290000Y-58153590D01*
X79204044Y-58103963D01*
X79095952Y-58075000D01*
X78984048Y-58075000D01*
X78875956Y-58103963D01*
X78790000Y-58153590D01*
X78790000Y-57081000D01*
X78809685Y-57013961D01*
X78862489Y-56968206D01*
X78902497Y-56959502D01*
X78905000Y-56957000D01*
X78905000Y-56000000D01*
X79405000Y-56000000D01*
X80104999Y-56000000D01*
X80104999Y-55951692D01*
X80104998Y-55951677D01*
X80094855Y-55852392D01*
X80041547Y-55691518D01*
X80041542Y-55691507D01*
X79952575Y-55547271D01*
X79952572Y-55547267D01*
X79832732Y-55427427D01*
X79832728Y-55427424D01*
X79688492Y-55338457D01*
X79688481Y-55338452D01*
X79527606Y-55285144D01*
X79428322Y-55275000D01*
X79405000Y-55275000D01*
X79405000Y-56000000D01*
X78905000Y-56000000D01*
X78905000Y-55274999D01*
X78881693Y-55275000D01*
X78881674Y-55275001D01*
X78782392Y-55285144D01*
X78621518Y-55338452D01*
X78621507Y-55338457D01*
X78477271Y-55427424D01*
X78477265Y-55427428D01*
X78468031Y-55436663D01*
X78406707Y-55470146D01*
X78337015Y-55465159D01*
X78292672Y-55436660D01*
X78283044Y-55427032D01*
X78283040Y-55427029D01*
X78138705Y-55338001D01*
X78138699Y-55337998D01*
X78138697Y-55337997D01*
X78128596Y-55334650D01*
X77977709Y-55284651D01*
X77878346Y-55274500D01*
X77331662Y-55274500D01*
X77331644Y-55274501D01*
X77232292Y-55284650D01*
X77232289Y-55284651D01*
X77071305Y-55337996D01*
X77071294Y-55338001D01*
X76926959Y-55427029D01*
X76926955Y-55427032D01*
X76807032Y-55546955D01*
X76807029Y-55546959D01*
X76718001Y-55691294D01*
X76717996Y-55691305D01*
X76664651Y-55852290D01*
X76654500Y-55951647D01*
X76654500Y-56548337D01*
X76654501Y-56548355D01*
X76664650Y-56647707D01*
X76664651Y-56647710D01*
X76717996Y-56808694D01*
X76718001Y-56808704D01*
X76719625Y-56811337D01*
X76720187Y-56813393D01*
X76721051Y-56815245D01*
X76720734Y-56815392D01*
X76738063Y-56878730D01*
X76717138Y-56945393D01*
X76663495Y-56990160D01*
X76604633Y-56999410D01*
X76604633Y-56999500D01*
X76604066Y-56999500D01*
X76601941Y-56999834D01*
X76598547Y-56999500D01*
X76598541Y-56999500D01*
X76401459Y-56999500D01*
X76401457Y-56999500D01*
X76208170Y-57037947D01*
X76208160Y-57037950D01*
X76026092Y-57113364D01*
X76026079Y-57113371D01*
X75862218Y-57222860D01*
X75862214Y-57222863D01*
X75722863Y-57362214D01*
X75722860Y-57362218D01*
X75613371Y-57526079D01*
X75613364Y-57526092D01*
X75537950Y-57708160D01*
X75537947Y-57708170D01*
X75499500Y-57901456D01*
X75499500Y-57901459D01*
X75499500Y-59098541D01*
X75499500Y-59098543D01*
X75499499Y-59098543D01*
X75000500Y-59098543D01*
X75000500Y-55124500D01*
X75020185Y-55057461D01*
X75072989Y-55011706D01*
X75124500Y-55000500D01*
X131875500Y-55000500D01*
X131942539Y-55020185D01*
G37*
G04 #@! TD.AperFunction*
M02*
