G04 #@! TF.GenerationSoftware,KiCad,Pcbnew,8.0.6*
G04 #@! TF.CreationDate,2025-06-14T18:55:47+01:00*
G04 #@! TF.ProjectId,led-matrix,6c65642d-6d61-4747-9269-782e6b696361,rev?*
G04 #@! TF.SameCoordinates,Original*
G04 #@! TF.FileFunction,Copper,L1,Top*
G04 #@! TF.FilePolarity,Positive*
%FSLAX46Y46*%
G04 Gerber Fmt 4.6, Leading zero omitted, Abs format (unit mm)*
G04 Created by KiCad (PCBNEW 8.0.6) date 2025-06-14 18:55:47*
%MOMM*%
%LPD*%
G01*
G04 APERTURE LIST*
G04 Aperture macros list*
%AMHorizOval*
0 Thick line with rounded ends*
0 $1 width*
0 $2 $3 position (X,Y) of the first rounded end (center of the circle)*
0 $4 $5 position (X,Y) of the second rounded end (center of the circle)*
0 Add line between two ends*
20,1,$1,$2,$3,$4,$5,0*
0 Add two circle primitives to create the rounded ends*
1,1,$1,$2,$3*
1,1,$1,$4,$5*%
G04 Aperture macros list end*
G04 #@! TA.AperFunction,ComponentPad*
%ADD10O,1.000000X1.600000*%
G04 #@! TD*
G04 #@! TA.AperFunction,ComponentPad*
%ADD11HorizOval,1.000000X0.212132X0.212132X-0.212132X-0.212132X0*%
G04 #@! TD*
G04 #@! TA.AperFunction,ComponentPad*
%ADD12HorizOval,1.000000X-0.212132X0.212132X0.212132X-0.212132X0*%
G04 #@! TD*
G04 #@! TA.AperFunction,ViaPad*
%ADD13C,0.600000*%
G04 #@! TD*
G04 #@! TA.AperFunction,Conductor*
%ADD14C,0.200000*%
G04 #@! TD*
G04 APERTURE END LIST*
D10*
X90310000Y-58500000D03*
X89040000Y-58500000D03*
X87770000Y-58500000D03*
X86500000Y-58500000D03*
D11*
X99752038Y-69847038D03*
X98854013Y-68949013D03*
X97955987Y-68050987D03*
X97057962Y-67152962D03*
D10*
X120310000Y-58500000D03*
X119040000Y-58500000D03*
X117770000Y-58500000D03*
X116500000Y-58500000D03*
X120310000Y-68500000D03*
X119040000Y-68500000D03*
X117770000Y-68500000D03*
X116500000Y-68500000D03*
D12*
X109752038Y-67152962D03*
X108854013Y-68050987D03*
X107955987Y-68949013D03*
X107057962Y-69847038D03*
D10*
X80310000Y-58500000D03*
X79040000Y-58500000D03*
X77770000Y-58500000D03*
X76500000Y-58500000D03*
X130310000Y-58500000D03*
X129040000Y-58500000D03*
X127770000Y-58500000D03*
X126500000Y-58500000D03*
X130310000Y-68500000D03*
X129040000Y-68500000D03*
X127770000Y-68500000D03*
X126500000Y-68500000D03*
X80310000Y-68500000D03*
X79040000Y-68500000D03*
X77770000Y-68500000D03*
X76500000Y-68500000D03*
X90310000Y-68500000D03*
X89040000Y-68500000D03*
X87770000Y-68500000D03*
X86500000Y-68500000D03*
D12*
X99752038Y-57152962D03*
X98854013Y-58050987D03*
X97955987Y-58949013D03*
X97057962Y-59847038D03*
D11*
X109752038Y-59847038D03*
X108854013Y-58949013D03*
X107955987Y-58050987D03*
X107057962Y-57152962D03*
D13*
X101950000Y-67850000D03*
X104950000Y-67800000D03*
D14*
X76500000Y-66200000D02*
X76500000Y-68500000D01*
X130310000Y-58500000D02*
X130310000Y-60840000D01*
X79200000Y-63500000D02*
X76500000Y-66200000D01*
X127650000Y-63500000D02*
X79200000Y-63500000D01*
X130310000Y-60840000D02*
X127650000Y-63500000D01*
G04 #@! TA.AperFunction,Conductor*
G36*
X131942539Y-55020185D02*
G01*
X131988294Y-55072989D01*
X131999500Y-55124500D01*
X131999500Y-71875500D01*
X131979815Y-71942539D01*
X131927011Y-71988294D01*
X131875500Y-71999500D01*
X75124500Y-71999500D01*
X75057461Y-71979815D01*
X75011706Y-71927011D01*
X75000500Y-71875500D01*
X75000500Y-68898543D01*
X75499499Y-68898543D01*
X75537947Y-69091829D01*
X75537950Y-69091839D01*
X75613364Y-69273907D01*
X75613371Y-69273920D01*
X75722860Y-69437781D01*
X75722863Y-69437785D01*
X75862214Y-69577136D01*
X75862218Y-69577139D01*
X76026079Y-69686628D01*
X76026092Y-69686635D01*
X76207001Y-69761569D01*
X76208165Y-69762051D01*
X76208169Y-69762051D01*
X76208170Y-69762052D01*
X76401456Y-69800500D01*
X76401459Y-69800500D01*
X76598543Y-69800500D01*
X76752567Y-69769862D01*
X76791835Y-69762051D01*
X76973914Y-69686632D01*
X76973919Y-69686628D01*
X76973922Y-69686627D01*
X76998560Y-69670164D01*
X77066559Y-69624728D01*
X77133234Y-69603850D01*
X77200614Y-69622334D01*
X77204341Y-69624728D01*
X77296321Y-69686188D01*
X77296328Y-69686192D01*
X77478308Y-69761569D01*
X77520000Y-69769862D01*
X77520000Y-68846409D01*
X77605956Y-68896037D01*
X77714048Y-68925000D01*
X77825952Y-68925000D01*
X77934044Y-68896037D01*
X78020000Y-68846409D01*
X78020000Y-69769862D01*
X78061690Y-69761569D01*
X78061692Y-69761569D01*
X78243673Y-69686191D01*
X78243676Y-69686189D01*
X78335657Y-69624729D01*
X78402334Y-69603850D01*
X78469715Y-69622334D01*
X78473440Y-69624728D01*
X78566079Y-69686628D01*
X78566092Y-69686635D01*
X78747001Y-69761569D01*
X78748165Y-69762051D01*
X78748169Y-69762051D01*
X78748170Y-69762052D01*
X78941456Y-69800500D01*
X78941459Y-69800500D01*
X79138543Y-69800500D01*
X79292567Y-69769862D01*
X79331835Y-69762051D01*
X79513914Y-69686632D01*
X79606109Y-69625029D01*
X79672786Y-69604151D01*
X79740166Y-69622635D01*
X79743891Y-69625029D01*
X79835423Y-69686189D01*
X79836086Y-69686632D01*
X79836088Y-69686633D01*
X79836092Y-69686635D01*
X80017001Y-69761569D01*
X80018165Y-69762051D01*
X80018169Y-69762051D01*
X80018170Y-69762052D01*
X80211456Y-69800500D01*
X80211459Y-69800500D01*
X80408543Y-69800500D01*
X80562567Y-69769862D01*
X80601835Y-69762051D01*
X80783914Y-69686632D01*
X80784579Y-69686188D01*
X80786114Y-69685161D01*
X80947782Y-69577139D01*
X81087139Y-69437782D01*
X81196632Y-69273914D01*
X81272051Y-69091835D01*
X81305237Y-68925000D01*
X81310500Y-68898543D01*
X85499499Y-68898543D01*
X85537947Y-69091829D01*
X85537950Y-69091839D01*
X85613364Y-69273907D01*
X85613371Y-69273920D01*
X85722860Y-69437781D01*
X85722863Y-69437785D01*
X85862214Y-69577136D01*
X85862218Y-69577139D01*
X86026079Y-69686628D01*
X86026092Y-69686635D01*
X86207001Y-69761569D01*
X86208165Y-69762051D01*
X86208169Y-69762051D01*
X86208170Y-69762052D01*
X86401456Y-69800500D01*
X86401459Y-69800500D01*
X86598543Y-69800500D01*
X86752567Y-69769862D01*
X86791835Y-69762051D01*
X86973914Y-69686632D01*
X86973919Y-69686628D01*
X86973922Y-69686627D01*
X86998560Y-69670164D01*
X87066559Y-69624728D01*
X87133234Y-69603850D01*
X87200614Y-69622334D01*
X87204341Y-69624728D01*
X87296321Y-69686188D01*
X87296328Y-69686192D01*
X87478308Y-69761569D01*
X87520000Y-69769862D01*
X87520000Y-68846409D01*
X87605956Y-68896037D01*
X87714048Y-68925000D01*
X87825952Y-68925000D01*
X87934044Y-68896037D01*
X88020000Y-68846409D01*
X88020000Y-69769862D01*
X88061690Y-69761569D01*
X88061692Y-69761569D01*
X88243673Y-69686191D01*
X88243676Y-69686189D01*
X88335657Y-69624729D01*
X88402334Y-69603850D01*
X88469715Y-69622334D01*
X88473440Y-69624728D01*
X88566079Y-69686628D01*
X88566092Y-69686635D01*
X88747001Y-69761569D01*
X88748165Y-69762051D01*
X88748169Y-69762051D01*
X88748170Y-69762052D01*
X88941456Y-69800500D01*
X88941459Y-69800500D01*
X89138543Y-69800500D01*
X89292567Y-69769862D01*
X89331835Y-69762051D01*
X89513914Y-69686632D01*
X89606109Y-69625029D01*
X89672786Y-69604151D01*
X89740166Y-69622635D01*
X89743891Y-69625029D01*
X89835423Y-69686189D01*
X89836086Y-69686632D01*
X89836088Y-69686633D01*
X89836092Y-69686635D01*
X90017001Y-69761569D01*
X90018165Y-69762051D01*
X90018169Y-69762051D01*
X90018170Y-69762052D01*
X90211456Y-69800500D01*
X90211459Y-69800500D01*
X90408543Y-69800500D01*
X90562567Y-69769862D01*
X90601835Y-69762051D01*
X90783914Y-69686632D01*
X90784579Y-69686188D01*
X90786114Y-69685161D01*
X90947782Y-69577139D01*
X91087139Y-69437782D01*
X91196632Y-69273914D01*
X91272051Y-69091835D01*
X91305237Y-68925000D01*
X91310500Y-68898543D01*
X91310500Y-68101456D01*
X91272052Y-67908170D01*
X91272051Y-67908169D01*
X91272051Y-67908165D01*
X91243408Y-67839014D01*
X91196635Y-67726092D01*
X91196628Y-67726079D01*
X91087139Y-67562218D01*
X91087136Y-67562214D01*
X90947785Y-67422863D01*
X90947781Y-67422860D01*
X90783920Y-67313371D01*
X90783907Y-67313364D01*
X90670884Y-67266549D01*
X95845330Y-67266549D01*
X95845330Y-67463638D01*
X95883777Y-67656922D01*
X95883779Y-67656930D01*
X95959197Y-67839004D01*
X95959202Y-67839014D01*
X96068690Y-68002874D01*
X96068693Y-68002878D01*
X96208045Y-68142230D01*
X96208049Y-68142233D01*
X96371909Y-68251721D01*
X96371913Y-68251723D01*
X96371916Y-68251725D01*
X96553994Y-68327145D01*
X96663277Y-68348882D01*
X96725186Y-68381266D01*
X96759760Y-68441982D01*
X96760701Y-68446307D01*
X96782282Y-68554802D01*
X96782285Y-68554812D01*
X96857663Y-68736792D01*
X96857664Y-68736794D01*
X96881280Y-68772138D01*
X97534261Y-68119158D01*
X97559950Y-68215031D01*
X97615903Y-68311943D01*
X97695031Y-68391071D01*
X97791943Y-68447024D01*
X97887814Y-68472712D01*
X97234834Y-69125691D01*
X97270183Y-69149311D01*
X97452162Y-69224688D01*
X97452166Y-69224689D01*
X97560664Y-69246270D01*
X97622575Y-69278655D01*
X97657150Y-69339370D01*
X97658091Y-69343696D01*
X97679828Y-69452975D01*
X97679830Y-69452981D01*
X97755248Y-69635055D01*
X97755253Y-69635065D01*
X97864741Y-69798925D01*
X97864744Y-69798929D01*
X98004096Y-69938281D01*
X98004100Y-69938284D01*
X98167960Y-70047772D01*
X98167964Y-70047774D01*
X98167967Y-70047776D01*
X98350045Y-70123196D01*
X98447761Y-70142633D01*
X98458796Y-70144828D01*
X98520707Y-70177212D01*
X98555281Y-70237928D01*
X98556222Y-70242253D01*
X98577853Y-70351000D01*
X98577855Y-70351006D01*
X98653273Y-70533080D01*
X98653278Y-70533090D01*
X98762766Y-70696950D01*
X98762769Y-70696954D01*
X98902121Y-70836306D01*
X98902125Y-70836309D01*
X99065985Y-70945797D01*
X99065989Y-70945799D01*
X99065992Y-70945801D01*
X99248070Y-71021221D01*
X99441361Y-71059669D01*
X99441364Y-71059670D01*
X99441366Y-71059670D01*
X99638448Y-71059670D01*
X99638449Y-71059669D01*
X99831742Y-71021221D01*
X100013820Y-70945801D01*
X100177687Y-70836309D01*
X100741309Y-70272687D01*
X100850801Y-70108820D01*
X100926221Y-69926742D01*
X100964670Y-69733446D01*
X100964670Y-69536366D01*
X100964670Y-69536363D01*
X100964669Y-69536361D01*
X105845330Y-69536361D01*
X105845330Y-69733450D01*
X105883777Y-69926734D01*
X105883779Y-69926742D01*
X105959197Y-70108816D01*
X105959202Y-70108826D01*
X106068690Y-70272686D01*
X106068693Y-70272690D01*
X106632309Y-70836306D01*
X106632313Y-70836309D01*
X106796173Y-70945797D01*
X106796177Y-70945799D01*
X106796180Y-70945801D01*
X106978258Y-71021221D01*
X107171549Y-71059669D01*
X107171552Y-71059670D01*
X107171554Y-71059670D01*
X107368636Y-71059670D01*
X107368637Y-71059669D01*
X107561930Y-71021221D01*
X107744008Y-70945801D01*
X107907875Y-70836309D01*
X108047233Y-70696951D01*
X108156725Y-70533084D01*
X108232145Y-70351006D01*
X108253883Y-70241719D01*
X108286266Y-70179813D01*
X108346981Y-70145238D01*
X108351309Y-70144296D01*
X108459808Y-70122715D01*
X108459811Y-70122714D01*
X108641795Y-70047335D01*
X108641799Y-70047332D01*
X108677138Y-70023718D01*
X108677139Y-70023717D01*
X108024159Y-69370738D01*
X108120031Y-69345050D01*
X108216943Y-69289097D01*
X108296071Y-69209969D01*
X108352024Y-69113057D01*
X108377712Y-69017185D01*
X109030691Y-69670165D01*
X109030692Y-69670164D01*
X109054306Y-69634825D01*
X109054309Y-69634821D01*
X109129688Y-69452837D01*
X109129691Y-69452825D01*
X109151272Y-69344333D01*
X109183656Y-69282422D01*
X109244372Y-69247848D01*
X109248615Y-69246924D01*
X109357981Y-69225170D01*
X109540059Y-69149750D01*
X109703926Y-69040258D01*
X109843284Y-68900900D01*
X109844859Y-68898543D01*
X115499499Y-68898543D01*
X115537947Y-69091829D01*
X115537950Y-69091839D01*
X115613364Y-69273907D01*
X115613371Y-69273920D01*
X115722860Y-69437781D01*
X115722863Y-69437785D01*
X115862214Y-69577136D01*
X115862218Y-69577139D01*
X116026079Y-69686628D01*
X116026092Y-69686635D01*
X116207001Y-69761569D01*
X116208165Y-69762051D01*
X116208169Y-69762051D01*
X116208170Y-69762052D01*
X116401456Y-69800500D01*
X116401459Y-69800500D01*
X116598543Y-69800500D01*
X116752567Y-69769862D01*
X116791835Y-69762051D01*
X116973914Y-69686632D01*
X116973919Y-69686628D01*
X116973922Y-69686627D01*
X116998560Y-69670164D01*
X117066559Y-69624728D01*
X117133234Y-69603850D01*
X117200614Y-69622334D01*
X117204341Y-69624728D01*
X117296321Y-69686188D01*
X117296328Y-69686192D01*
X117478308Y-69761569D01*
X117520000Y-69769862D01*
X117520000Y-68846409D01*
X117605956Y-68896037D01*
X117714048Y-68925000D01*
X117825952Y-68925000D01*
X117934044Y-68896037D01*
X118020000Y-68846409D01*
X118020000Y-69769862D01*
X118061690Y-69761569D01*
X118061692Y-69761569D01*
X118243673Y-69686191D01*
X118243676Y-69686189D01*
X118335657Y-69624729D01*
X118402334Y-69603850D01*
X118469715Y-69622334D01*
X118473440Y-69624728D01*
X118566079Y-69686628D01*
X118566092Y-69686635D01*
X118747001Y-69761569D01*
X118748165Y-69762051D01*
X118748169Y-69762051D01*
X118748170Y-69762052D01*
X118941456Y-69800500D01*
X118941459Y-69800500D01*
X119138543Y-69800500D01*
X119292567Y-69769862D01*
X119331835Y-69762051D01*
X119513914Y-69686632D01*
X119606109Y-69625029D01*
X119672786Y-69604151D01*
X119740166Y-69622635D01*
X119743891Y-69625029D01*
X119835423Y-69686189D01*
X119836086Y-69686632D01*
X119836088Y-69686633D01*
X119836092Y-69686635D01*
X120017001Y-69761569D01*
X120018165Y-69762051D01*
X120018169Y-69762051D01*
X120018170Y-69762052D01*
X120211456Y-69800500D01*
X120211459Y-69800500D01*
X120408543Y-69800500D01*
X120562567Y-69769862D01*
X120601835Y-69762051D01*
X120783914Y-69686632D01*
X120784579Y-69686188D01*
X120786114Y-69685161D01*
X120947782Y-69577139D01*
X121087139Y-69437782D01*
X121196632Y-69273914D01*
X121272051Y-69091835D01*
X121305237Y-68925000D01*
X121310500Y-68898543D01*
X125499499Y-68898543D01*
X125537947Y-69091829D01*
X125537950Y-69091839D01*
X125613364Y-69273907D01*
X125613371Y-69273920D01*
X125722860Y-69437781D01*
X125722863Y-69437785D01*
X125862214Y-69577136D01*
X125862218Y-69577139D01*
X126026079Y-69686628D01*
X126026092Y-69686635D01*
X126207001Y-69761569D01*
X126208165Y-69762051D01*
X126208169Y-69762051D01*
X126208170Y-69762052D01*
X126401456Y-69800500D01*
X126401459Y-69800500D01*
X126598543Y-69800500D01*
X126752567Y-69769862D01*
X126791835Y-69762051D01*
X126973914Y-69686632D01*
X126973919Y-69686628D01*
X126973922Y-69686627D01*
X126998560Y-69670164D01*
X127066559Y-69624728D01*
X127133234Y-69603850D01*
X127200614Y-69622334D01*
X127204341Y-69624728D01*
X127296321Y-69686188D01*
X127296328Y-69686192D01*
X127478308Y-69761569D01*
X127520000Y-69769862D01*
X127520000Y-68846409D01*
X127605956Y-68896037D01*
X127714048Y-68925000D01*
X127825952Y-68925000D01*
X127934044Y-68896037D01*
X128020000Y-68846409D01*
X128020000Y-69769862D01*
X128061690Y-69761569D01*
X128061692Y-69761569D01*
X128243673Y-69686191D01*
X128243676Y-69686189D01*
X128335657Y-69624729D01*
X128402334Y-69603850D01*
X128469715Y-69622334D01*
X128473440Y-69624728D01*
X128566079Y-69686628D01*
X128566092Y-69686635D01*
X128747001Y-69761569D01*
X128748165Y-69762051D01*
X128748169Y-69762051D01*
X128748170Y-69762052D01*
X128941456Y-69800500D01*
X128941459Y-69800500D01*
X129138543Y-69800500D01*
X129292567Y-69769862D01*
X129331835Y-69762051D01*
X129513914Y-69686632D01*
X129606109Y-69625029D01*
X129672786Y-69604151D01*
X129740166Y-69622635D01*
X129743891Y-69625029D01*
X129835423Y-69686189D01*
X129836086Y-69686632D01*
X129836088Y-69686633D01*
X129836092Y-69686635D01*
X130017001Y-69761569D01*
X130018165Y-69762051D01*
X130018169Y-69762051D01*
X130018170Y-69762052D01*
X130211456Y-69800500D01*
X130211459Y-69800500D01*
X130408543Y-69800500D01*
X130562567Y-69769862D01*
X130601835Y-69762051D01*
X130783914Y-69686632D01*
X130784579Y-69686188D01*
X130786114Y-69685161D01*
X130947782Y-69577139D01*
X131087139Y-69437782D01*
X131196632Y-69273914D01*
X131272051Y-69091835D01*
X131305237Y-68925000D01*
X131310500Y-68898543D01*
X131310500Y-68101456D01*
X131272052Y-67908170D01*
X131272051Y-67908169D01*
X131272051Y-67908165D01*
X131243408Y-67839014D01*
X131196635Y-67726092D01*
X131196628Y-67726079D01*
X131087139Y-67562218D01*
X131087136Y-67562214D01*
X130947785Y-67422863D01*
X130947781Y-67422860D01*
X130783920Y-67313371D01*
X130783907Y-67313364D01*
X130601839Y-67237950D01*
X130601829Y-67237947D01*
X130408543Y-67199500D01*
X130408541Y-67199500D01*
X130211459Y-67199500D01*
X130211457Y-67199500D01*
X130018170Y-67237947D01*
X130018160Y-67237950D01*
X129836089Y-67313366D01*
X129743890Y-67374971D01*
X129677213Y-67395848D01*
X129609833Y-67377363D01*
X129606110Y-67374971D01*
X129579740Y-67357352D01*
X129513914Y-67313368D01*
X129513911Y-67313366D01*
X129513910Y-67313366D01*
X129331839Y-67237950D01*
X129331829Y-67237947D01*
X129138543Y-67199500D01*
X129138541Y-67199500D01*
X128941459Y-67199500D01*
X128941457Y-67199500D01*
X128748170Y-67237947D01*
X128748160Y-67237950D01*
X128566093Y-67313364D01*
X128566082Y-67313370D01*
X128473440Y-67375271D01*
X128406762Y-67396148D01*
X128339382Y-67377663D01*
X128335659Y-67375270D01*
X128243684Y-67313814D01*
X128243671Y-67313807D01*
X128061691Y-67238429D01*
X128061683Y-67238427D01*
X128020000Y-67230135D01*
X128020000Y-68153590D01*
X127934044Y-68103963D01*
X127825952Y-68075000D01*
X127714048Y-68075000D01*
X127605956Y-68103963D01*
X127520000Y-68153590D01*
X127520000Y-67230136D01*
X127519999Y-67230135D01*
X127478316Y-67238427D01*
X127478308Y-67238429D01*
X127296325Y-67313809D01*
X127204339Y-67375271D01*
X127137661Y-67396148D01*
X127070281Y-67377663D01*
X127066559Y-67375271D01*
X127034552Y-67353885D01*
X126973914Y-67313368D01*
X126973911Y-67313366D01*
X126973910Y-67313366D01*
X126791839Y-67237950D01*
X126791829Y-67237947D01*
X126598543Y-67199500D01*
X126598541Y-67199500D01*
X126401459Y-67199500D01*
X126401457Y-67199500D01*
X126208170Y-67237947D01*
X126208160Y-67237950D01*
X126026092Y-67313364D01*
X126026079Y-67313371D01*
X125862218Y-67422860D01*
X125862214Y-67422863D01*
X125722863Y-67562214D01*
X125722860Y-67562218D01*
X125613371Y-67726079D01*
X125613364Y-67726092D01*
X125537950Y-67908160D01*
X125537947Y-67908170D01*
X125499500Y-68101456D01*
X125499500Y-68101459D01*
X125499500Y-68898541D01*
X125499500Y-68898543D01*
X125499499Y-68898543D01*
X121310500Y-68898543D01*
X121310500Y-68101456D01*
X121272052Y-67908170D01*
X121272051Y-67908169D01*
X121272051Y-67908165D01*
X121243408Y-67839014D01*
X121196635Y-67726092D01*
X121196628Y-67726079D01*
X121087139Y-67562218D01*
X121087136Y-67562214D01*
X120947785Y-67422863D01*
X120947781Y-67422860D01*
X120783920Y-67313371D01*
X120783907Y-67313364D01*
X120601839Y-67237950D01*
X120601829Y-67237947D01*
X120408543Y-67199500D01*
X120408541Y-67199500D01*
X120211459Y-67199500D01*
X120211457Y-67199500D01*
X120018170Y-67237947D01*
X120018160Y-67237950D01*
X119836089Y-67313366D01*
X119743890Y-67374971D01*
X119677213Y-67395848D01*
X119609833Y-67377363D01*
X119606110Y-67374971D01*
X119579740Y-67357352D01*
X119513914Y-67313368D01*
X119513911Y-67313366D01*
X119513910Y-67313366D01*
X119331839Y-67237950D01*
X119331829Y-67237947D01*
X119138543Y-67199500D01*
X119138541Y-67199500D01*
X118941459Y-67199500D01*
X118941457Y-67199500D01*
X118748170Y-67237947D01*
X118748160Y-67237950D01*
X118566093Y-67313364D01*
X118566082Y-67313370D01*
X118473440Y-67375271D01*
X118406762Y-67396148D01*
X118339382Y-67377663D01*
X118335659Y-67375270D01*
X118243684Y-67313814D01*
X118243671Y-67313807D01*
X118061691Y-67238429D01*
X118061683Y-67238427D01*
X118020000Y-67230135D01*
X118020000Y-68153590D01*
X117934044Y-68103963D01*
X117825952Y-68075000D01*
X117714048Y-68075000D01*
X117605956Y-68103963D01*
X117520000Y-68153590D01*
X117520000Y-67230136D01*
X117519999Y-67230135D01*
X117478316Y-67238427D01*
X117478308Y-67238429D01*
X117296325Y-67313809D01*
X117204339Y-67375271D01*
X117137661Y-67396148D01*
X117070281Y-67377663D01*
X117066559Y-67375271D01*
X117034552Y-67353885D01*
X116973914Y-67313368D01*
X116973911Y-67313366D01*
X116973910Y-67313366D01*
X116791839Y-67237950D01*
X116791829Y-67237947D01*
X116598543Y-67199500D01*
X116598541Y-67199500D01*
X116401459Y-67199500D01*
X116401457Y-67199500D01*
X116208170Y-67237947D01*
X116208160Y-67237950D01*
X116026092Y-67313364D01*
X116026079Y-67313371D01*
X115862218Y-67422860D01*
X115862214Y-67422863D01*
X115722863Y-67562214D01*
X115722860Y-67562218D01*
X115613371Y-67726079D01*
X115613364Y-67726092D01*
X115537950Y-67908160D01*
X115537947Y-67908170D01*
X115499500Y-68101456D01*
X115499500Y-68101459D01*
X115499500Y-68898541D01*
X115499500Y-68898543D01*
X115499499Y-68898543D01*
X109844859Y-68898543D01*
X109952776Y-68737033D01*
X110028196Y-68554955D01*
X110049828Y-68446199D01*
X110082212Y-68384292D01*
X110142928Y-68349718D01*
X110147198Y-68348788D01*
X110256006Y-68327145D01*
X110438084Y-68251725D01*
X110601951Y-68142233D01*
X110741309Y-68002875D01*
X110850801Y-67839008D01*
X110926221Y-67656930D01*
X110964670Y-67463634D01*
X110964670Y-67266554D01*
X110964670Y-67266551D01*
X110964669Y-67266549D01*
X110926222Y-67073265D01*
X110926221Y-67073258D01*
X110850801Y-66891180D01*
X110850799Y-66891177D01*
X110850797Y-66891173D01*
X110741309Y-66727313D01*
X110741306Y-66727309D01*
X110177690Y-66163693D01*
X110177686Y-66163690D01*
X110013826Y-66054202D01*
X110013816Y-66054197D01*
X109831742Y-65978779D01*
X109831734Y-65978777D01*
X109638449Y-65940330D01*
X109638446Y-65940330D01*
X109441366Y-65940330D01*
X109441363Y-65940330D01*
X109248077Y-65978777D01*
X109248069Y-65978779D01*
X109065995Y-66054197D01*
X109065985Y-66054202D01*
X108902125Y-66163690D01*
X108902121Y-66163693D01*
X108762769Y-66303045D01*
X108762766Y-66303049D01*
X108653278Y-66466909D01*
X108653273Y-66466919D01*
X108577855Y-66648993D01*
X108577853Y-66648999D01*
X108556222Y-66757746D01*
X108523837Y-66819657D01*
X108463121Y-66854231D01*
X108458797Y-66855171D01*
X108350050Y-66876802D01*
X108350044Y-66876804D01*
X108167970Y-66952222D01*
X108167960Y-66952227D01*
X108004100Y-67061715D01*
X108004096Y-67061718D01*
X107864744Y-67201070D01*
X107864741Y-67201074D01*
X107755253Y-67364934D01*
X107755248Y-67364944D01*
X107679830Y-67547018D01*
X107679828Y-67547024D01*
X107658091Y-67656302D01*
X107625706Y-67718213D01*
X107564990Y-67752787D01*
X107560666Y-67753727D01*
X107452171Y-67775308D01*
X107452165Y-67775310D01*
X107270180Y-67850690D01*
X107270173Y-67850694D01*
X107234834Y-67874307D01*
X107234833Y-67874307D01*
X107887814Y-68527287D01*
X107791943Y-68552976D01*
X107695031Y-68608929D01*
X107615903Y-68688057D01*
X107559950Y-68784969D01*
X107534261Y-68880840D01*
X106881281Y-68227859D01*
X106881281Y-68227860D01*
X106857668Y-68263199D01*
X106857664Y-68263206D01*
X106782284Y-68445191D01*
X106782282Y-68445197D01*
X106760701Y-68553692D01*
X106728316Y-68615603D01*
X106667600Y-68650177D01*
X106663275Y-68651117D01*
X106554001Y-68672853D01*
X106553993Y-68672855D01*
X106371919Y-68748273D01*
X106371909Y-68748278D01*
X106208049Y-68857766D01*
X106208045Y-68857769D01*
X106068693Y-68997121D01*
X106068690Y-68997125D01*
X105959202Y-69160985D01*
X105959197Y-69160995D01*
X105883779Y-69343069D01*
X105883777Y-69343077D01*
X105845330Y-69536361D01*
X100964669Y-69536361D01*
X100948055Y-69452837D01*
X100926221Y-69343070D01*
X100850801Y-69160992D01*
X100850799Y-69160989D01*
X100850797Y-69160985D01*
X100741309Y-68997125D01*
X100741306Y-68997121D01*
X100601954Y-68857769D01*
X100601950Y-68857766D01*
X100438090Y-68748278D01*
X100438080Y-68748273D01*
X100256006Y-68672855D01*
X100256000Y-68672853D01*
X100147253Y-68651222D01*
X100085342Y-68618837D01*
X100050768Y-68558121D01*
X100049828Y-68553796D01*
X100034480Y-68476636D01*
X100028196Y-68445045D01*
X99952776Y-68262967D01*
X99952774Y-68262964D01*
X99952772Y-68262960D01*
X99843284Y-68099100D01*
X99843281Y-68099096D01*
X99703929Y-67959744D01*
X99703925Y-67959741D01*
X99540065Y-67850253D01*
X99540055Y-67850248D01*
X99357981Y-67774830D01*
X99357975Y-67774828D01*
X99248696Y-67753091D01*
X99186785Y-67720706D01*
X99152211Y-67659990D01*
X99151270Y-67655664D01*
X99129689Y-67547166D01*
X99129688Y-67547162D01*
X99054311Y-67365183D01*
X99030691Y-67329834D01*
X98377712Y-67982813D01*
X98352024Y-67886943D01*
X98296071Y-67790031D01*
X98216943Y-67710903D01*
X98120031Y-67654950D01*
X98024159Y-67629261D01*
X98677139Y-66976281D01*
X98641794Y-66952664D01*
X98641792Y-66952663D01*
X98459812Y-66877285D01*
X98459802Y-66877282D01*
X98351307Y-66855701D01*
X98289396Y-66823316D01*
X98254822Y-66762600D01*
X98253894Y-66758336D01*
X98232145Y-66648994D01*
X98156725Y-66466916D01*
X98156723Y-66466913D01*
X98156721Y-66466909D01*
X98047233Y-66303049D01*
X98047230Y-66303045D01*
X97907878Y-66163693D01*
X97907874Y-66163690D01*
X97744014Y-66054202D01*
X97744004Y-66054197D01*
X97561930Y-65978779D01*
X97561922Y-65978777D01*
X97368637Y-65940330D01*
X97368634Y-65940330D01*
X97171554Y-65940330D01*
X97171551Y-65940330D01*
X96978265Y-65978777D01*
X96978257Y-65978779D01*
X96796183Y-66054197D01*
X96796173Y-66054202D01*
X96632313Y-66163690D01*
X96632309Y-66163693D01*
X96068693Y-66727309D01*
X96068690Y-66727313D01*
X95959202Y-66891173D01*
X95959197Y-66891183D01*
X95883779Y-67073257D01*
X95883777Y-67073265D01*
X95845330Y-67266549D01*
X90670884Y-67266549D01*
X90601839Y-67237950D01*
X90601829Y-67237947D01*
X90408543Y-67199500D01*
X90408541Y-67199500D01*
X90211459Y-67199500D01*
X90211457Y-67199500D01*
X90018170Y-67237947D01*
X90018160Y-67237950D01*
X89836089Y-67313366D01*
X89743890Y-67374971D01*
X89677213Y-67395848D01*
X89609833Y-67377363D01*
X89606110Y-67374971D01*
X89579740Y-67357352D01*
X89513914Y-67313368D01*
X89513911Y-67313366D01*
X89513910Y-67313366D01*
X89331839Y-67237950D01*
X89331829Y-67237947D01*
X89138543Y-67199500D01*
X89138541Y-67199500D01*
X88941459Y-67199500D01*
X88941457Y-67199500D01*
X88748170Y-67237947D01*
X88748160Y-67237950D01*
X88566093Y-67313364D01*
X88566082Y-67313370D01*
X88473440Y-67375271D01*
X88406762Y-67396148D01*
X88339382Y-67377663D01*
X88335659Y-67375270D01*
X88243684Y-67313814D01*
X88243671Y-67313807D01*
X88061691Y-67238429D01*
X88061683Y-67238427D01*
X88020000Y-67230135D01*
X88020000Y-68153590D01*
X87934044Y-68103963D01*
X87825952Y-68075000D01*
X87714048Y-68075000D01*
X87605956Y-68103963D01*
X87520000Y-68153590D01*
X87520000Y-67230136D01*
X87519999Y-67230135D01*
X87478316Y-67238427D01*
X87478308Y-67238429D01*
X87296325Y-67313809D01*
X87204339Y-67375271D01*
X87137661Y-67396148D01*
X87070281Y-67377663D01*
X87066559Y-67375271D01*
X87034552Y-67353885D01*
X86973914Y-67313368D01*
X86973911Y-67313366D01*
X86973910Y-67313366D01*
X86791839Y-67237950D01*
X86791829Y-67237947D01*
X86598543Y-67199500D01*
X86598541Y-67199500D01*
X86401459Y-67199500D01*
X86401457Y-67199500D01*
X86208170Y-67237947D01*
X86208160Y-67237950D01*
X86026092Y-67313364D01*
X86026079Y-67313371D01*
X85862218Y-67422860D01*
X85862214Y-67422863D01*
X85722863Y-67562214D01*
X85722860Y-67562218D01*
X85613371Y-67726079D01*
X85613364Y-67726092D01*
X85537950Y-67908160D01*
X85537947Y-67908170D01*
X85499500Y-68101456D01*
X85499500Y-68101459D01*
X85499500Y-68898541D01*
X85499500Y-68898543D01*
X85499499Y-68898543D01*
X81310500Y-68898543D01*
X81310500Y-68101456D01*
X81272052Y-67908170D01*
X81272051Y-67908169D01*
X81272051Y-67908165D01*
X81243408Y-67839014D01*
X81196635Y-67726092D01*
X81196628Y-67726079D01*
X81087139Y-67562218D01*
X81087136Y-67562214D01*
X80947785Y-67422863D01*
X80947781Y-67422860D01*
X80783920Y-67313371D01*
X80783907Y-67313364D01*
X80601839Y-67237950D01*
X80601829Y-67237947D01*
X80408543Y-67199500D01*
X80408541Y-67199500D01*
X80211459Y-67199500D01*
X80211457Y-67199500D01*
X80018170Y-67237947D01*
X80018160Y-67237950D01*
X79836089Y-67313366D01*
X79743890Y-67374971D01*
X79677213Y-67395848D01*
X79609833Y-67377363D01*
X79606110Y-67374971D01*
X79579740Y-67357352D01*
X79513914Y-67313368D01*
X79513911Y-67313366D01*
X79513910Y-67313366D01*
X79331839Y-67237950D01*
X79331829Y-67237947D01*
X79138543Y-67199500D01*
X79138541Y-67199500D01*
X78941459Y-67199500D01*
X78941457Y-67199500D01*
X78748170Y-67237947D01*
X78748160Y-67237950D01*
X78566093Y-67313364D01*
X78566082Y-67313370D01*
X78473440Y-67375271D01*
X78406762Y-67396148D01*
X78339382Y-67377663D01*
X78335659Y-67375270D01*
X78243684Y-67313814D01*
X78243671Y-67313807D01*
X78061691Y-67238429D01*
X78061683Y-67238427D01*
X78020000Y-67230135D01*
X78020000Y-68153590D01*
X77934044Y-68103963D01*
X77825952Y-68075000D01*
X77714048Y-68075000D01*
X77605956Y-68103963D01*
X77520000Y-68153590D01*
X77520000Y-67230136D01*
X77519999Y-67230135D01*
X77478316Y-67238427D01*
X77478308Y-67238429D01*
X77296324Y-67313809D01*
X77293387Y-67315772D01*
X77291614Y-67316326D01*
X77290952Y-67316681D01*
X77290884Y-67316555D01*
X77226709Y-67336647D01*
X77159329Y-67318160D01*
X77112641Y-67266179D01*
X77100500Y-67212667D01*
X77100500Y-66500097D01*
X77120185Y-66433058D01*
X77136819Y-66412416D01*
X79412417Y-64136819D01*
X79473740Y-64103334D01*
X79500098Y-64100500D01*
X127563331Y-64100500D01*
X127563347Y-64100501D01*
X127570943Y-64100501D01*
X127729054Y-64100501D01*
X127729057Y-64100501D01*
X127881785Y-64059577D01*
X127931904Y-64030639D01*
X128018716Y-63980520D01*
X128130520Y-63868716D01*
X128130520Y-63868714D01*
X128140728Y-63858507D01*
X128140730Y-63858504D01*
X130678713Y-61320521D01*
X130678716Y-61320520D01*
X130790520Y-61208716D01*
X130840639Y-61121904D01*
X130869577Y-61071785D01*
X130910500Y-60919057D01*
X130910500Y-60760943D01*
X130910500Y-59665784D01*
X130930185Y-59598745D01*
X130946819Y-59578103D01*
X131087136Y-59437785D01*
X131087139Y-59437782D01*
X131196632Y-59273914D01*
X131272051Y-59091835D01*
X131305237Y-58925000D01*
X131310500Y-58898543D01*
X131310500Y-58101456D01*
X131272052Y-57908170D01*
X131272051Y-57908169D01*
X131272051Y-57908165D01*
X131243408Y-57839014D01*
X131196635Y-57726092D01*
X131196628Y-57726079D01*
X131087139Y-57562218D01*
X131087136Y-57562214D01*
X130947785Y-57422863D01*
X130947781Y-57422860D01*
X130783920Y-57313371D01*
X130783907Y-57313364D01*
X130601839Y-57237950D01*
X130601829Y-57237947D01*
X130408543Y-57199500D01*
X130408541Y-57199500D01*
X130211459Y-57199500D01*
X130211457Y-57199500D01*
X130018170Y-57237947D01*
X130018160Y-57237950D01*
X129836089Y-57313366D01*
X129743890Y-57374971D01*
X129677213Y-57395848D01*
X129609833Y-57377363D01*
X129606110Y-57374971D01*
X129538557Y-57329834D01*
X129513914Y-57313368D01*
X129513911Y-57313366D01*
X129513910Y-57313366D01*
X129331839Y-57237950D01*
X129331829Y-57237947D01*
X129138543Y-57199500D01*
X129138541Y-57199500D01*
X128941459Y-57199500D01*
X128941457Y-57199500D01*
X128748170Y-57237947D01*
X128748160Y-57237950D01*
X128566093Y-57313364D01*
X128566082Y-57313370D01*
X128473440Y-57375271D01*
X128406762Y-57396148D01*
X128339382Y-57377663D01*
X128335659Y-57375270D01*
X128243684Y-57313814D01*
X128243671Y-57313807D01*
X128061691Y-57238429D01*
X128061683Y-57238427D01*
X128020000Y-57230135D01*
X128020000Y-58153590D01*
X127934044Y-58103963D01*
X127825952Y-58075000D01*
X127714048Y-58075000D01*
X127605956Y-58103963D01*
X127520000Y-58153590D01*
X127520000Y-57230136D01*
X127519999Y-57230135D01*
X127478316Y-57238427D01*
X127478308Y-57238429D01*
X127296325Y-57313809D01*
X127204339Y-57375271D01*
X127137661Y-57396148D01*
X127070281Y-57377663D01*
X127066559Y-57375271D01*
X126998557Y-57329834D01*
X126973914Y-57313368D01*
X126973911Y-57313366D01*
X126973910Y-57313366D01*
X126791839Y-57237950D01*
X126791829Y-57237947D01*
X126598543Y-57199500D01*
X126598541Y-57199500D01*
X126401459Y-57199500D01*
X126401457Y-57199500D01*
X126208170Y-57237947D01*
X126208160Y-57237950D01*
X126026092Y-57313364D01*
X126026079Y-57313371D01*
X125862218Y-57422860D01*
X125862214Y-57422863D01*
X125722863Y-57562214D01*
X125722860Y-57562218D01*
X125613371Y-57726079D01*
X125613364Y-57726092D01*
X125537950Y-57908160D01*
X125537947Y-57908170D01*
X125499500Y-58101456D01*
X125499500Y-58101459D01*
X125499500Y-58898541D01*
X125499500Y-58898543D01*
X125499499Y-58898543D01*
X125537947Y-59091829D01*
X125537950Y-59091839D01*
X125613364Y-59273907D01*
X125613371Y-59273920D01*
X125722860Y-59437781D01*
X125722863Y-59437785D01*
X125862214Y-59577136D01*
X125862218Y-59577139D01*
X126026079Y-59686628D01*
X126026092Y-59686635D01*
X126207001Y-59761569D01*
X126208165Y-59762051D01*
X126208169Y-59762051D01*
X126208170Y-59762052D01*
X126401456Y-59800500D01*
X126401459Y-59800500D01*
X126598543Y-59800500D01*
X126752567Y-59769862D01*
X126791835Y-59762051D01*
X126973914Y-59686632D01*
X126973919Y-59686628D01*
X126973922Y-59686627D01*
X127005115Y-59665784D01*
X127066559Y-59624728D01*
X127133234Y-59603850D01*
X127200614Y-59622334D01*
X127204341Y-59624728D01*
X127296321Y-59686188D01*
X127296328Y-59686192D01*
X127478308Y-59761569D01*
X127520000Y-59769862D01*
X127520000Y-58846409D01*
X127605956Y-58896037D01*
X127714048Y-58925000D01*
X127825952Y-58925000D01*
X127934044Y-58896037D01*
X128020000Y-58846409D01*
X128020000Y-59769862D01*
X128061690Y-59761569D01*
X128061692Y-59761569D01*
X128243673Y-59686191D01*
X128243676Y-59686189D01*
X128335657Y-59624729D01*
X128402334Y-59603850D01*
X128469715Y-59622334D01*
X128473440Y-59624728D01*
X128566079Y-59686628D01*
X128566092Y-59686635D01*
X128747001Y-59761569D01*
X128748165Y-59762051D01*
X128748169Y-59762051D01*
X128748170Y-59762052D01*
X128941456Y-59800500D01*
X128941459Y-59800500D01*
X129138543Y-59800500D01*
X129292567Y-59769862D01*
X129331835Y-59762051D01*
X129513914Y-59686632D01*
X129516602Y-59684835D01*
X129518226Y-59684326D01*
X129519289Y-59683759D01*
X129519396Y-59683960D01*
X129583276Y-59663953D01*
X129650658Y-59682432D01*
X129697353Y-59734407D01*
X129709500Y-59787933D01*
X129709500Y-60539903D01*
X129689815Y-60606942D01*
X129673181Y-60627584D01*
X127437584Y-62863181D01*
X127376261Y-62896666D01*
X127349903Y-62899500D01*
X79286670Y-62899500D01*
X79286654Y-62899499D01*
X79279058Y-62899499D01*
X79120943Y-62899499D01*
X79044579Y-62919961D01*
X78968214Y-62940423D01*
X78968209Y-62940426D01*
X78831290Y-63019475D01*
X78831282Y-63019481D01*
X76019481Y-65831282D01*
X76019479Y-65831285D01*
X75969361Y-65918094D01*
X75969359Y-65918096D01*
X75940425Y-65968209D01*
X75940424Y-65968210D01*
X75940423Y-65968215D01*
X75899499Y-66120943D01*
X75899499Y-66120945D01*
X75899499Y-66289046D01*
X75899500Y-66289059D01*
X75899500Y-67334216D01*
X75879815Y-67401255D01*
X75863181Y-67421897D01*
X75722863Y-67562214D01*
X75722860Y-67562218D01*
X75613371Y-67726079D01*
X75613364Y-67726092D01*
X75537950Y-67908160D01*
X75537947Y-67908170D01*
X75499500Y-68101456D01*
X75499500Y-68101459D01*
X75499500Y-68898541D01*
X75499500Y-68898543D01*
X75499499Y-68898543D01*
X75000500Y-68898543D01*
X75000500Y-58898543D01*
X75499499Y-58898543D01*
X75537947Y-59091829D01*
X75537950Y-59091839D01*
X75613364Y-59273907D01*
X75613371Y-59273920D01*
X75722860Y-59437781D01*
X75722863Y-59437785D01*
X75862214Y-59577136D01*
X75862218Y-59577139D01*
X76026079Y-59686628D01*
X76026092Y-59686635D01*
X76207001Y-59761569D01*
X76208165Y-59762051D01*
X76208169Y-59762051D01*
X76208170Y-59762052D01*
X76401456Y-59800500D01*
X76401459Y-59800500D01*
X76598543Y-59800500D01*
X76752567Y-59769862D01*
X76791835Y-59762051D01*
X76973914Y-59686632D01*
X76973919Y-59686628D01*
X76973922Y-59686627D01*
X77005115Y-59665784D01*
X77066559Y-59624728D01*
X77133234Y-59603850D01*
X77200614Y-59622334D01*
X77204341Y-59624728D01*
X77296321Y-59686188D01*
X77296328Y-59686192D01*
X77478308Y-59761569D01*
X77520000Y-59769862D01*
X77520000Y-58846409D01*
X77605956Y-58896037D01*
X77714048Y-58925000D01*
X77825952Y-58925000D01*
X77934044Y-58896037D01*
X78020000Y-58846409D01*
X78020000Y-59769862D01*
X78061690Y-59761569D01*
X78061692Y-59761569D01*
X78243673Y-59686191D01*
X78243676Y-59686189D01*
X78335657Y-59624729D01*
X78402334Y-59603850D01*
X78469715Y-59622334D01*
X78473440Y-59624728D01*
X78566079Y-59686628D01*
X78566092Y-59686635D01*
X78747001Y-59761569D01*
X78748165Y-59762051D01*
X78748169Y-59762051D01*
X78748170Y-59762052D01*
X78941456Y-59800500D01*
X78941459Y-59800500D01*
X79138543Y-59800500D01*
X79292567Y-59769862D01*
X79331835Y-59762051D01*
X79513914Y-59686632D01*
X79606109Y-59625029D01*
X79672786Y-59604151D01*
X79740166Y-59622635D01*
X79743891Y-59625029D01*
X79835423Y-59686189D01*
X79836086Y-59686632D01*
X79836088Y-59686633D01*
X79836092Y-59686635D01*
X80017001Y-59761569D01*
X80018165Y-59762051D01*
X80018169Y-59762051D01*
X80018170Y-59762052D01*
X80211456Y-59800500D01*
X80211459Y-59800500D01*
X80408543Y-59800500D01*
X80562567Y-59769862D01*
X80601835Y-59762051D01*
X80783914Y-59686632D01*
X80784579Y-59686188D01*
X80790200Y-59682432D01*
X80947782Y-59577139D01*
X81087139Y-59437782D01*
X81196632Y-59273914D01*
X81272051Y-59091835D01*
X81305237Y-58925000D01*
X81310500Y-58898543D01*
X85499499Y-58898543D01*
X85537947Y-59091829D01*
X85537950Y-59091839D01*
X85613364Y-59273907D01*
X85613371Y-59273920D01*
X85722860Y-59437781D01*
X85722863Y-59437785D01*
X85862214Y-59577136D01*
X85862218Y-59577139D01*
X86026079Y-59686628D01*
X86026092Y-59686635D01*
X86207001Y-59761569D01*
X86208165Y-59762051D01*
X86208169Y-59762051D01*
X86208170Y-59762052D01*
X86401456Y-59800500D01*
X86401459Y-59800500D01*
X86598543Y-59800500D01*
X86752567Y-59769862D01*
X86791835Y-59762051D01*
X86973914Y-59686632D01*
X86973919Y-59686628D01*
X86973922Y-59686627D01*
X87005115Y-59665784D01*
X87066559Y-59624728D01*
X87133234Y-59603850D01*
X87200614Y-59622334D01*
X87204341Y-59624728D01*
X87296321Y-59686188D01*
X87296328Y-59686192D01*
X87478308Y-59761569D01*
X87520000Y-59769862D01*
X87520000Y-58846409D01*
X87605956Y-58896037D01*
X87714048Y-58925000D01*
X87825952Y-58925000D01*
X87934044Y-58896037D01*
X88020000Y-58846409D01*
X88020000Y-59769862D01*
X88061690Y-59761569D01*
X88061692Y-59761569D01*
X88243673Y-59686191D01*
X88243676Y-59686189D01*
X88335657Y-59624729D01*
X88402334Y-59603850D01*
X88469715Y-59622334D01*
X88473440Y-59624728D01*
X88566079Y-59686628D01*
X88566092Y-59686635D01*
X88747001Y-59761569D01*
X88748165Y-59762051D01*
X88748169Y-59762051D01*
X88748170Y-59762052D01*
X88941456Y-59800500D01*
X88941459Y-59800500D01*
X89138543Y-59800500D01*
X89292567Y-59769862D01*
X89331835Y-59762051D01*
X89513914Y-59686632D01*
X89606109Y-59625029D01*
X89672786Y-59604151D01*
X89740166Y-59622635D01*
X89743891Y-59625029D01*
X89835423Y-59686189D01*
X89836086Y-59686632D01*
X89836088Y-59686633D01*
X89836092Y-59686635D01*
X90017001Y-59761569D01*
X90018165Y-59762051D01*
X90018169Y-59762051D01*
X90018170Y-59762052D01*
X90211456Y-59800500D01*
X90211459Y-59800500D01*
X90408543Y-59800500D01*
X90562567Y-59769862D01*
X90601835Y-59762051D01*
X90783914Y-59686632D01*
X90784579Y-59686188D01*
X90790200Y-59682432D01*
X90947782Y-59577139D01*
X90988560Y-59536361D01*
X95845330Y-59536361D01*
X95845330Y-59733450D01*
X95883777Y-59926734D01*
X95883779Y-59926742D01*
X95959197Y-60108816D01*
X95959202Y-60108826D01*
X96068690Y-60272686D01*
X96068693Y-60272690D01*
X96632309Y-60836306D01*
X96632313Y-60836309D01*
X96796173Y-60945797D01*
X96796177Y-60945799D01*
X96796180Y-60945801D01*
X96978258Y-61021221D01*
X97171549Y-61059669D01*
X97171552Y-61059670D01*
X97171554Y-61059670D01*
X97368636Y-61059670D01*
X97368637Y-61059669D01*
X97561930Y-61021221D01*
X97744008Y-60945801D01*
X97907875Y-60836309D01*
X98047233Y-60696951D01*
X98156725Y-60533084D01*
X98232145Y-60351006D01*
X98253883Y-60241719D01*
X98286266Y-60179813D01*
X98346981Y-60145238D01*
X98351309Y-60144296D01*
X98459808Y-60122715D01*
X98459811Y-60122714D01*
X98641795Y-60047335D01*
X98641799Y-60047332D01*
X98677138Y-60023718D01*
X98677139Y-60023717D01*
X98024159Y-59370738D01*
X98120031Y-59345050D01*
X98216943Y-59289097D01*
X98296071Y-59209969D01*
X98352024Y-59113057D01*
X98377712Y-59017185D01*
X99030691Y-59670165D01*
X99030692Y-59670164D01*
X99054306Y-59634825D01*
X99054309Y-59634821D01*
X99129688Y-59452837D01*
X99129691Y-59452825D01*
X99151272Y-59344333D01*
X99183656Y-59282422D01*
X99244372Y-59247848D01*
X99248615Y-59246924D01*
X99357981Y-59225170D01*
X99540059Y-59149750D01*
X99703926Y-59040258D01*
X99843284Y-58900900D01*
X99952776Y-58737033D01*
X100028196Y-58554955D01*
X100049828Y-58446199D01*
X100082212Y-58384292D01*
X100142928Y-58349718D01*
X100147198Y-58348788D01*
X100256006Y-58327145D01*
X100438084Y-58251725D01*
X100601951Y-58142233D01*
X100741309Y-58002875D01*
X100850801Y-57839008D01*
X100926221Y-57656930D01*
X100964670Y-57463634D01*
X100964670Y-57266554D01*
X100964670Y-57266551D01*
X100964669Y-57266549D01*
X105845330Y-57266549D01*
X105845330Y-57463638D01*
X105883777Y-57656922D01*
X105883779Y-57656930D01*
X105959197Y-57839004D01*
X105959202Y-57839014D01*
X106068690Y-58002874D01*
X106068693Y-58002878D01*
X106208045Y-58142230D01*
X106208049Y-58142233D01*
X106371909Y-58251721D01*
X106371913Y-58251723D01*
X106371916Y-58251725D01*
X106553994Y-58327145D01*
X106663277Y-58348882D01*
X106725186Y-58381266D01*
X106759760Y-58441982D01*
X106760701Y-58446307D01*
X106782282Y-58554802D01*
X106782285Y-58554812D01*
X106857663Y-58736792D01*
X106857664Y-58736794D01*
X106881280Y-58772138D01*
X107534261Y-58119158D01*
X107559950Y-58215031D01*
X107615903Y-58311943D01*
X107695031Y-58391071D01*
X107791943Y-58447024D01*
X107887814Y-58472712D01*
X107234834Y-59125691D01*
X107270183Y-59149311D01*
X107452162Y-59224688D01*
X107452166Y-59224689D01*
X107560664Y-59246270D01*
X107622575Y-59278655D01*
X107657150Y-59339370D01*
X107658091Y-59343696D01*
X107679828Y-59452975D01*
X107679830Y-59452981D01*
X107755248Y-59635055D01*
X107755253Y-59635065D01*
X107864741Y-59798925D01*
X107864744Y-59798929D01*
X108004096Y-59938281D01*
X108004100Y-59938284D01*
X108167960Y-60047772D01*
X108167964Y-60047774D01*
X108167967Y-60047776D01*
X108350045Y-60123196D01*
X108447761Y-60142633D01*
X108458796Y-60144828D01*
X108520707Y-60177212D01*
X108555281Y-60237928D01*
X108556222Y-60242253D01*
X108577853Y-60351000D01*
X108577855Y-60351006D01*
X108653273Y-60533080D01*
X108653278Y-60533090D01*
X108762766Y-60696950D01*
X108762769Y-60696954D01*
X108902121Y-60836306D01*
X108902125Y-60836309D01*
X109065985Y-60945797D01*
X109065989Y-60945799D01*
X109065992Y-60945801D01*
X109248070Y-61021221D01*
X109441361Y-61059669D01*
X109441364Y-61059670D01*
X109441366Y-61059670D01*
X109638448Y-61059670D01*
X109638449Y-61059669D01*
X109831742Y-61021221D01*
X110013820Y-60945801D01*
X110177687Y-60836309D01*
X110741309Y-60272687D01*
X110850801Y-60108820D01*
X110926221Y-59926742D01*
X110964670Y-59733446D01*
X110964670Y-59536366D01*
X110964670Y-59536363D01*
X110964669Y-59536361D01*
X110948055Y-59452837D01*
X110926221Y-59343070D01*
X110850801Y-59160992D01*
X110850799Y-59160989D01*
X110850797Y-59160985D01*
X110741309Y-58997125D01*
X110741306Y-58997121D01*
X110642728Y-58898543D01*
X115499499Y-58898543D01*
X115537947Y-59091829D01*
X115537950Y-59091839D01*
X115613364Y-59273907D01*
X115613371Y-59273920D01*
X115722860Y-59437781D01*
X115722863Y-59437785D01*
X115862214Y-59577136D01*
X115862218Y-59577139D01*
X116026079Y-59686628D01*
X116026092Y-59686635D01*
X116207001Y-59761569D01*
X116208165Y-59762051D01*
X116208169Y-59762051D01*
X116208170Y-59762052D01*
X116401456Y-59800500D01*
X116401459Y-59800500D01*
X116598543Y-59800500D01*
X116752567Y-59769862D01*
X116791835Y-59762051D01*
X116973914Y-59686632D01*
X116973919Y-59686628D01*
X116973922Y-59686627D01*
X117005115Y-59665784D01*
X117066559Y-59624728D01*
X117133234Y-59603850D01*
X117200614Y-59622334D01*
X117204341Y-59624728D01*
X117296321Y-59686188D01*
X117296328Y-59686192D01*
X117478308Y-59761569D01*
X117520000Y-59769862D01*
X117520000Y-58846409D01*
X117605956Y-58896037D01*
X117714048Y-58925000D01*
X117825952Y-58925000D01*
X117934044Y-58896037D01*
X118020000Y-58846409D01*
X118020000Y-59769862D01*
X118061690Y-59761569D01*
X118061692Y-59761569D01*
X118243673Y-59686191D01*
X118243676Y-59686189D01*
X118335657Y-59624729D01*
X118402334Y-59603850D01*
X118469715Y-59622334D01*
X118473440Y-59624728D01*
X118566079Y-59686628D01*
X118566092Y-59686635D01*
X118747001Y-59761569D01*
X118748165Y-59762051D01*
X118748169Y-59762051D01*
X118748170Y-59762052D01*
X118941456Y-59800500D01*
X118941459Y-59800500D01*
X119138543Y-59800500D01*
X119292567Y-59769862D01*
X119331835Y-59762051D01*
X119513914Y-59686632D01*
X119606109Y-59625029D01*
X119672786Y-59604151D01*
X119740166Y-59622635D01*
X119743891Y-59625029D01*
X119835423Y-59686189D01*
X119836086Y-59686632D01*
X119836088Y-59686633D01*
X119836092Y-59686635D01*
X120017001Y-59761569D01*
X120018165Y-59762051D01*
X120018169Y-59762051D01*
X120018170Y-59762052D01*
X120211456Y-59800500D01*
X120211459Y-59800500D01*
X120408543Y-59800500D01*
X120562567Y-59769862D01*
X120601835Y-59762051D01*
X120783914Y-59686632D01*
X120784579Y-59686188D01*
X120790200Y-59682432D01*
X120947782Y-59577139D01*
X121087139Y-59437782D01*
X121196632Y-59273914D01*
X121272051Y-59091835D01*
X121305237Y-58925000D01*
X121310500Y-58898543D01*
X121310500Y-58101456D01*
X121272052Y-57908170D01*
X121272051Y-57908169D01*
X121272051Y-57908165D01*
X121243408Y-57839014D01*
X121196635Y-57726092D01*
X121196628Y-57726079D01*
X121087139Y-57562218D01*
X121087136Y-57562214D01*
X120947785Y-57422863D01*
X120947781Y-57422860D01*
X120783920Y-57313371D01*
X120783907Y-57313364D01*
X120601839Y-57237950D01*
X120601829Y-57237947D01*
X120408543Y-57199500D01*
X120408541Y-57199500D01*
X120211459Y-57199500D01*
X120211457Y-57199500D01*
X120018170Y-57237947D01*
X120018160Y-57237950D01*
X119836089Y-57313366D01*
X119743890Y-57374971D01*
X119677213Y-57395848D01*
X119609833Y-57377363D01*
X119606110Y-57374971D01*
X119538557Y-57329834D01*
X119513914Y-57313368D01*
X119513911Y-57313366D01*
X119513910Y-57313366D01*
X119331839Y-57237950D01*
X119331829Y-57237947D01*
X119138543Y-57199500D01*
X119138541Y-57199500D01*
X118941459Y-57199500D01*
X118941457Y-57199500D01*
X118748170Y-57237947D01*
X118748160Y-57237950D01*
X118566093Y-57313364D01*
X118566082Y-57313370D01*
X118473440Y-57375271D01*
X118406762Y-57396148D01*
X118339382Y-57377663D01*
X118335659Y-57375270D01*
X118243684Y-57313814D01*
X118243671Y-57313807D01*
X118061691Y-57238429D01*
X118061683Y-57238427D01*
X118020000Y-57230135D01*
X118020000Y-58153590D01*
X117934044Y-58103963D01*
X117825952Y-58075000D01*
X117714048Y-58075000D01*
X117605956Y-58103963D01*
X117520000Y-58153590D01*
X117520000Y-57230136D01*
X117519999Y-57230135D01*
X117478316Y-57238427D01*
X117478308Y-57238429D01*
X117296325Y-57313809D01*
X117204339Y-57375271D01*
X117137661Y-57396148D01*
X117070281Y-57377663D01*
X117066559Y-57375271D01*
X116998557Y-57329834D01*
X116973914Y-57313368D01*
X116973911Y-57313366D01*
X116973910Y-57313366D01*
X116791839Y-57237950D01*
X116791829Y-57237947D01*
X116598543Y-57199500D01*
X116598541Y-57199500D01*
X116401459Y-57199500D01*
X116401457Y-57199500D01*
X116208170Y-57237947D01*
X116208160Y-57237950D01*
X116026092Y-57313364D01*
X116026079Y-57313371D01*
X115862218Y-57422860D01*
X115862214Y-57422863D01*
X115722863Y-57562214D01*
X115722860Y-57562218D01*
X115613371Y-57726079D01*
X115613364Y-57726092D01*
X115537950Y-57908160D01*
X115537947Y-57908170D01*
X115499500Y-58101456D01*
X115499500Y-58101459D01*
X115499500Y-58898541D01*
X115499500Y-58898543D01*
X115499499Y-58898543D01*
X110642728Y-58898543D01*
X110601954Y-58857769D01*
X110601950Y-58857766D01*
X110438090Y-58748278D01*
X110438080Y-58748273D01*
X110256006Y-58672855D01*
X110256000Y-58672853D01*
X110147253Y-58651222D01*
X110085342Y-58618837D01*
X110050768Y-58558121D01*
X110049828Y-58553796D01*
X110034480Y-58476636D01*
X110028196Y-58445045D01*
X109952776Y-58262967D01*
X109952774Y-58262964D01*
X109952772Y-58262960D01*
X109843284Y-58099100D01*
X109843281Y-58099096D01*
X109703929Y-57959744D01*
X109703925Y-57959741D01*
X109540065Y-57850253D01*
X109540055Y-57850248D01*
X109357981Y-57774830D01*
X109357975Y-57774828D01*
X109248696Y-57753091D01*
X109186785Y-57720706D01*
X109152211Y-57659990D01*
X109151270Y-57655664D01*
X109129689Y-57547166D01*
X109129688Y-57547162D01*
X109054311Y-57365183D01*
X109030691Y-57329834D01*
X108377712Y-57982813D01*
X108352024Y-57886943D01*
X108296071Y-57790031D01*
X108216943Y-57710903D01*
X108120031Y-57654950D01*
X108024159Y-57629261D01*
X108677139Y-56976281D01*
X108641794Y-56952664D01*
X108641792Y-56952663D01*
X108459812Y-56877285D01*
X108459802Y-56877282D01*
X108351307Y-56855701D01*
X108289396Y-56823316D01*
X108254822Y-56762600D01*
X108253894Y-56758336D01*
X108232145Y-56648994D01*
X108156725Y-56466916D01*
X108156723Y-56466913D01*
X108156721Y-56466909D01*
X108047233Y-56303049D01*
X108047230Y-56303045D01*
X107907878Y-56163693D01*
X107907874Y-56163690D01*
X107744014Y-56054202D01*
X107744004Y-56054197D01*
X107561930Y-55978779D01*
X107561922Y-55978777D01*
X107368637Y-55940330D01*
X107368634Y-55940330D01*
X107171554Y-55940330D01*
X107171551Y-55940330D01*
X106978265Y-55978777D01*
X106978257Y-55978779D01*
X106796183Y-56054197D01*
X106796173Y-56054202D01*
X106632313Y-56163690D01*
X106632309Y-56163693D01*
X106068693Y-56727309D01*
X106068690Y-56727313D01*
X105959202Y-56891173D01*
X105959197Y-56891183D01*
X105883779Y-57073257D01*
X105883777Y-57073265D01*
X105845330Y-57266549D01*
X100964669Y-57266549D01*
X100926222Y-57073265D01*
X100926221Y-57073258D01*
X100850801Y-56891180D01*
X100850799Y-56891177D01*
X100850797Y-56891173D01*
X100741309Y-56727313D01*
X100741306Y-56727309D01*
X100177690Y-56163693D01*
X100177686Y-56163690D01*
X100013826Y-56054202D01*
X100013816Y-56054197D01*
X99831742Y-55978779D01*
X99831734Y-55978777D01*
X99638449Y-55940330D01*
X99638446Y-55940330D01*
X99441366Y-55940330D01*
X99441363Y-55940330D01*
X99248077Y-55978777D01*
X99248069Y-55978779D01*
X99065995Y-56054197D01*
X99065985Y-56054202D01*
X98902125Y-56163690D01*
X98902121Y-56163693D01*
X98762769Y-56303045D01*
X98762766Y-56303049D01*
X98653278Y-56466909D01*
X98653273Y-56466919D01*
X98577855Y-56648993D01*
X98577853Y-56648999D01*
X98556222Y-56757746D01*
X98523837Y-56819657D01*
X98463121Y-56854231D01*
X98458797Y-56855171D01*
X98350050Y-56876802D01*
X98350044Y-56876804D01*
X98167970Y-56952222D01*
X98167960Y-56952227D01*
X98004100Y-57061715D01*
X98004096Y-57061718D01*
X97864744Y-57201070D01*
X97864741Y-57201074D01*
X97755253Y-57364934D01*
X97755248Y-57364944D01*
X97679830Y-57547018D01*
X97679828Y-57547024D01*
X97658091Y-57656302D01*
X97625706Y-57718213D01*
X97564990Y-57752787D01*
X97560666Y-57753727D01*
X97452171Y-57775308D01*
X97452165Y-57775310D01*
X97270180Y-57850690D01*
X97270173Y-57850694D01*
X97234834Y-57874307D01*
X97234833Y-57874307D01*
X97887814Y-58527287D01*
X97791943Y-58552976D01*
X97695031Y-58608929D01*
X97615903Y-58688057D01*
X97559950Y-58784969D01*
X97534261Y-58880840D01*
X96881281Y-58227859D01*
X96881281Y-58227860D01*
X96857668Y-58263199D01*
X96857664Y-58263206D01*
X96782284Y-58445191D01*
X96782282Y-58445197D01*
X96760701Y-58553692D01*
X96728316Y-58615603D01*
X96667600Y-58650177D01*
X96663275Y-58651117D01*
X96554001Y-58672853D01*
X96553993Y-58672855D01*
X96371919Y-58748273D01*
X96371909Y-58748278D01*
X96208049Y-58857766D01*
X96208045Y-58857769D01*
X96068693Y-58997121D01*
X96068690Y-58997125D01*
X95959202Y-59160985D01*
X95959197Y-59160995D01*
X95883779Y-59343069D01*
X95883777Y-59343077D01*
X95845330Y-59536361D01*
X90988560Y-59536361D01*
X91087139Y-59437782D01*
X91196632Y-59273914D01*
X91272051Y-59091835D01*
X91305237Y-58925000D01*
X91310500Y-58898543D01*
X91310500Y-58101456D01*
X91272052Y-57908170D01*
X91272051Y-57908169D01*
X91272051Y-57908165D01*
X91243408Y-57839014D01*
X91196635Y-57726092D01*
X91196628Y-57726079D01*
X91087139Y-57562218D01*
X91087136Y-57562214D01*
X90947785Y-57422863D01*
X90947781Y-57422860D01*
X90783920Y-57313371D01*
X90783907Y-57313364D01*
X90601839Y-57237950D01*
X90601829Y-57237947D01*
X90408543Y-57199500D01*
X90408541Y-57199500D01*
X90211459Y-57199500D01*
X90211457Y-57199500D01*
X90018170Y-57237947D01*
X90018160Y-57237950D01*
X89836089Y-57313366D01*
X89743890Y-57374971D01*
X89677213Y-57395848D01*
X89609833Y-57377363D01*
X89606110Y-57374971D01*
X89538557Y-57329834D01*
X89513914Y-57313368D01*
X89513911Y-57313366D01*
X89513910Y-57313366D01*
X89331839Y-57237950D01*
X89331829Y-57237947D01*
X89138543Y-57199500D01*
X89138541Y-57199500D01*
X88941459Y-57199500D01*
X88941457Y-57199500D01*
X88748170Y-57237947D01*
X88748160Y-57237950D01*
X88566093Y-57313364D01*
X88566082Y-57313370D01*
X88473440Y-57375271D01*
X88406762Y-57396148D01*
X88339382Y-57377663D01*
X88335659Y-57375270D01*
X88243684Y-57313814D01*
X88243671Y-57313807D01*
X88061691Y-57238429D01*
X88061683Y-57238427D01*
X88020000Y-57230135D01*
X88020000Y-58153590D01*
X87934044Y-58103963D01*
X87825952Y-58075000D01*
X87714048Y-58075000D01*
X87605956Y-58103963D01*
X87520000Y-58153590D01*
X87520000Y-57230136D01*
X87519999Y-57230135D01*
X87478316Y-57238427D01*
X87478308Y-57238429D01*
X87296325Y-57313809D01*
X87204339Y-57375271D01*
X87137661Y-57396148D01*
X87070281Y-57377663D01*
X87066559Y-57375271D01*
X86998557Y-57329834D01*
X86973914Y-57313368D01*
X86973911Y-57313366D01*
X86973910Y-57313366D01*
X86791839Y-57237950D01*
X86791829Y-57237947D01*
X86598543Y-57199500D01*
X86598541Y-57199500D01*
X86401459Y-57199500D01*
X86401457Y-57199500D01*
X86208170Y-57237947D01*
X86208160Y-57237950D01*
X86026092Y-57313364D01*
X86026079Y-57313371D01*
X85862218Y-57422860D01*
X85862214Y-57422863D01*
X85722863Y-57562214D01*
X85722860Y-57562218D01*
X85613371Y-57726079D01*
X85613364Y-57726092D01*
X85537950Y-57908160D01*
X85537947Y-57908170D01*
X85499500Y-58101456D01*
X85499500Y-58101459D01*
X85499500Y-58898541D01*
X85499500Y-58898543D01*
X85499499Y-58898543D01*
X81310500Y-58898543D01*
X81310500Y-58101456D01*
X81272052Y-57908170D01*
X81272051Y-57908169D01*
X81272051Y-57908165D01*
X81243408Y-57839014D01*
X81196635Y-57726092D01*
X81196628Y-57726079D01*
X81087139Y-57562218D01*
X81087136Y-57562214D01*
X80947785Y-57422863D01*
X80947781Y-57422860D01*
X80783920Y-57313371D01*
X80783907Y-57313364D01*
X80601839Y-57237950D01*
X80601829Y-57237947D01*
X80408543Y-57199500D01*
X80408541Y-57199500D01*
X80211459Y-57199500D01*
X80211457Y-57199500D01*
X80018170Y-57237947D01*
X80018160Y-57237950D01*
X79836089Y-57313366D01*
X79743890Y-57374971D01*
X79677213Y-57395848D01*
X79609833Y-57377363D01*
X79606110Y-57374971D01*
X79538557Y-57329834D01*
X79513914Y-57313368D01*
X79513911Y-57313366D01*
X79513910Y-57313366D01*
X79331839Y-57237950D01*
X79331829Y-57237947D01*
X79138543Y-57199500D01*
X79138541Y-57199500D01*
X78941459Y-57199500D01*
X78941457Y-57199500D01*
X78748170Y-57237947D01*
X78748160Y-57237950D01*
X78566093Y-57313364D01*
X78566082Y-57313370D01*
X78473440Y-57375271D01*
X78406762Y-57396148D01*
X78339382Y-57377663D01*
X78335659Y-57375270D01*
X78243684Y-57313814D01*
X78243671Y-57313807D01*
X78061691Y-57238429D01*
X78061683Y-57238427D01*
X78020000Y-57230135D01*
X78020000Y-58153590D01*
X77934044Y-58103963D01*
X77825952Y-58075000D01*
X77714048Y-58075000D01*
X77605956Y-58103963D01*
X77520000Y-58153590D01*
X77520000Y-57230136D01*
X77519999Y-57230135D01*
X77478316Y-57238427D01*
X77478308Y-57238429D01*
X77296325Y-57313809D01*
X77204339Y-57375271D01*
X77137661Y-57396148D01*
X77070281Y-57377663D01*
X77066559Y-57375271D01*
X76998557Y-57329834D01*
X76973914Y-57313368D01*
X76973911Y-57313366D01*
X76973910Y-57313366D01*
X76791839Y-57237950D01*
X76791829Y-57237947D01*
X76598543Y-57199500D01*
X76598541Y-57199500D01*
X76401459Y-57199500D01*
X76401457Y-57199500D01*
X76208170Y-57237947D01*
X76208160Y-57237950D01*
X76026092Y-57313364D01*
X76026079Y-57313371D01*
X75862218Y-57422860D01*
X75862214Y-57422863D01*
X75722863Y-57562214D01*
X75722860Y-57562218D01*
X75613371Y-57726079D01*
X75613364Y-57726092D01*
X75537950Y-57908160D01*
X75537947Y-57908170D01*
X75499500Y-58101456D01*
X75499500Y-58101459D01*
X75499500Y-58898541D01*
X75499500Y-58898543D01*
X75499499Y-58898543D01*
X75000500Y-58898543D01*
X75000500Y-55124500D01*
X75020185Y-55057461D01*
X75072989Y-55011706D01*
X75124500Y-55000500D01*
X131875500Y-55000500D01*
X131942539Y-55020185D01*
G37*
G04 #@! TD.AperFunction*
M02*
