M48
; DRILL file {KiCad 8.0.6} date 2025-07-13T20:09:50+0100
; FORMAT={-:-/ absolute / inch / decimal}
; #@! TF.CreationDate,2025-07-13T20:09:50+01:00
; #@! TF.GenerationSoftware,Kicad,Pcbnew,8.0.6
; #@! TF.FileFunction,Plated,1,2,PTH
FMAT,2
INCH
; #@! TA.AperFunction,Plated,PTH,ViaDrill
T1C0.0118
; #@! TA.AperFunction,Plated,PTH,ComponentDrill
T2C0.0335
%
G90
G05
T1
X4.0138Y-2.6713
X4.1319Y-2.6693
T2
X3.0118Y-2.3031
X3.0118Y-2.6969
X3.0618Y-2.3031
X3.0618Y-2.6969
X3.1118Y-2.3031
X3.1118Y-2.6969
X3.1618Y-2.3031
X3.1618Y-2.6969
X3.4055Y-2.3031
X3.4055Y-2.6969
X3.4555Y-2.3031
X3.4555Y-2.6969
X3.5055Y-2.3031
X3.5055Y-2.6969
X3.5555Y-2.3031
X3.5555Y-2.6969
X3.8212Y-2.3562
X3.8212Y-2.6438
X3.8565Y-2.3208
X3.8565Y-2.6792
X3.8919Y-2.2855
X3.8919Y-2.7145
X3.9272Y-2.2501
X3.9272Y-2.7499
X4.2149Y-2.2501
X4.2149Y-2.7499
X4.2502Y-2.2855
X4.2502Y-2.7145
X4.2856Y-2.3208
X4.2856Y-2.6792
X4.3209Y-2.3562
X4.3209Y-2.6438
X4.5866Y-2.3031
X4.5866Y-2.6969
X4.6366Y-2.3031
X4.6366Y-2.6969
X4.6866Y-2.3031
X4.6866Y-2.6969
X4.7366Y-2.3031
X4.7366Y-2.6969
X4.9803Y-2.3031
X4.9803Y-2.6969
X5.0303Y-2.3031
X5.0303Y-2.6969
X5.0803Y-2.3031
X5.0803Y-2.6969
X5.1303Y-2.3031
X5.1303Y-2.6969
M30
